<?xml version="1.0" standalone="no"?>
<!DOCTYPE svg PUBLIC "-//W3C//DTD SVG 20010904//EN"
 "http://www.w3.org/TR/2001/REC-SVG-20010904/DTD/svg10.dtd">
<svg version="1.0" xmlns="http://www.w3.org/2000/svg"
 width="1280.000000pt" height="786.000000pt" viewBox="0 0 1280.000000 786.000000"
 preserveAspectRatio="xMidYMid meet">
<metadata>
Created by potrace 1.15, written by Peter Selinger 2001-2017
</metadata>
<g transform="translate(0.000000,786.000000) scale(0.100000,-0.100000)"
fill="#000000" stroke="none">
<path d="M2329 7841 c-26 -10 -101 -48 -167 -85 -163 -91 -205 -106 -339 -117
-155 -12 -201 -37 -189 -103 6 -32 10 -35 52 -42 59 -9 182 2 332 30 135 25
132 26 132 -45 0 -55 -31 -141 -100 -278 -77 -156 -94 -214 -87 -311 7 -99 28
-158 93 -257 77 -120 86 -138 75 -166 -5 -13 -16 -27 -24 -30 -34 -13 -56 -89
-72 -252 -21 -217 -36 -288 -101 -467 -101 -277 -136 -470 -154 -833 -11 -229
-20 -305 -51 -408 -25 -84 -20 -107 10 -48 35 67 49 159 56 366 12 351 43 532
141 830 75 233 92 307 105 470 14 197 45 290 104 317 14 6 25 15 25 20 0 4 18
8 41 8 137 0 299 71 563 248 216 145 273 179 368 216 65 25 70 26 165 15 273
-29 361 -64 684 -270 47 -31 140 -79 205 -108 350 -156 445 -211 533 -306 58
-65 77 -96 102 -175 15 -45 18 -49 18 -25 2 82 -52 190 -133 271 -74 73 -158
124 -360 214 -161 73 -209 99 -397 216 -239 149 -366 197 -574 219 -33 3 -83
11 -111 17 -50 12 -51 12 -37 37 18 35 17 159 -3 235 -24 94 -79 190 -141 246
-65 60 -188 121 -296 148 -75 19 -82 24 -163 102 -47 45 -104 90 -127 100 -52
24 -118 24 -178 1z m191 -62 c19 -9 56 -39 82 -66 l47 -48 -137 -2 c-94 -1
-198 -10 -329 -31 -106 -16 -190 -25 -187 -20 3 4 11 8 17 8 7 0 59 27 117 61
232 135 290 149 390 98z m130 -199 c287 -35 465 -131 540 -292 40 -85 48 -145
26 -203 -15 -38 -22 -45 -45 -45 -15 0 -64 -18 -109 -40 -45 -21 -82 -37 -82
-33 0 3 14 49 31 102 27 84 30 106 26 176 -5 77 -45 217 -70 240 -7 7 -8 5 -5
-5 3 -8 16 -55 28 -105 28 -112 24 -182 -19 -319 -17 -54 -31 -115 -31 -135 0
-35 -4 -39 -132 -132 -251 -180 -312 -211 -531 -269 -99 -26 -109 -27 -114
-12 -16 48 -55 126 -83 167 -69 101 -95 198 -78 300 6 39 34 112 78 205 80
170 94 219 88 305 -4 44 -2 65 6 68 12 5 129 23 191 31 67 7 205 5 285 -4z"/>
<path d="M2503 7400 c-40 -16 -27 -37 27 -44 55 -7 95 -40 124 -99 20 -44 21
-136 1 -184 -28 -66 -11 -103 20 -43 19 37 20 161 1 224 -17 56 -57 111 -100
137 -34 21 -41 22 -73 9z"/>
<path d="M4995 6280 c-93 -10 -173 -19 -177 -19 -5 -1 -8 -10 -8 -21 0 -20 6
-20 278 -18 263 3 281 2 349 -20 139 -43 289 -169 395 -331 50 -76 168 -306
168 -326 0 -6 -17 -17 -37 -24 -107 -37 -214 -125 -322 -263 -98 -126 -136
-148 -287 -168 -105 -14 -166 -35 -195 -66 -35 -37 -90 -63 -151 -70 l-53 -6
-1 68 c-1 53 -13 109 -53 239 -64 205 -88 314 -94 418 -3 43 -8 81 -12 85 -14
13 4 -193 25 -297 11 -57 41 -168 65 -247 72 -229 64 -257 -93 -363 -48 -32
-105 -78 -126 -101 -73 -81 -161 -315 -216 -575 -54 -259 -99 -354 -223 -473
-80 -76 -166 -132 -344 -221 -113 -56 -143 -75 -143 -91 0 -24 11 -22 140 23
264 92 425 217 508 396 22 49 49 140 78 270 60 266 132 479 181 533 18 20 20
17 54 -87 6 -18 8 -82 4 -160 -4 -76 -3 -140 3 -155 l10 -25 5 25 c13 60 15
104 7 228 -7 108 -12 139 -30 169 l-22 37 39 36 c21 19 66 56 101 82 34 26 75
67 92 90 l31 42 69 0 c61 1 73 4 112 34 69 52 116 69 231 86 59 9 125 25 145
35 43 22 119 99 186 188 62 83 102 115 234 189 l111 62 48 -86 c57 -101 133
-184 186 -201 48 -16 67 -9 67 26 0 36 -5 43 -60 81 -73 51 -90 69 -90 94 1
34 31 95 98 194 110 165 131 232 97 320 -33 87 -121 128 -300 139 -55 4 -158
16 -230 26 -125 19 -131 21 -178 61 -173 146 -324 177 -672 138z m847 -254
c35 -8 120 -22 190 -31 201 -25 276 -49 318 -102 38 -48 25 -91 -72 -233 -47
-69 -94 -150 -105 -180 -12 -30 -24 -55 -29 -55 -16 0 -105 144 -186 300 -46
87 -106 194 -135 237 -29 43 -50 78 -48 78 2 0 32 -6 67 -14z"/>
<path d="M2750 6122 c0 -13 9 -37 20 -52 29 -41 50 -106 50 -154 0 -81 -39
-140 -190 -286 -99 -95 -140 -142 -140 -157 0 -32 16 -29 87 17 87 58 174 155
220 246 63 129 59 261 -13 362 -29 40 -34 43 -34 24z"/>
<path d="M2505 6016 c-5 -3 -27 -7 -47 -11 -64 -10 -48 -33 30 -40 37 -3 83
-10 102 -15 31 -7 32 -8 8 -9 -15 -1 -30 -6 -33 -11 -4 -6 -11 -8 -16 -4 -7 4
-8 -10 -3 -42 l7 -47 -31 22 c-17 12 -45 40 -63 63 -37 45 -50 38 -23 -14 45
-88 139 -168 197 -168 38 0 97 57 97 94 l0 26 -37 -16 c-21 -10 -56 -19 -78
-21 l-40 -4 35 18 c38 20 52 62 29 89 -20 24 -1 15 36 -17 33 -29 35 -30 35
-10 0 35 -28 79 -61 97 -30 15 -123 28 -144 20z"/>
<path d="M5479 5882 c-17 -57 -76 -131 -133 -167 -42 -25 -59 -30 -115 -30
-36 0 -74 4 -83 9 -29 14 -21 -13 13 -45 24 -22 41 -29 72 -29 83 0 187 75
235 169 15 30 35 59 44 65 29 18 91 -10 168 -79 67 -58 122 -87 137 -71 13 12
-14 46 -72 90 -119 92 -163 118 -209 123 l-44 5 -13 -40z"/>
<path d="M3518 5668 c-43 -27 -78 -56 -78 -64 0 -18 2 -17 48 1 20 9 45 26 55
38 29 36 59 77 55 76 -2 0 -38 -23 -80 -51z"/>
<path d="M7046 5395 c-21 -7 -43 -20 -48 -27 -24 -35 -39 -71 -56 -134 -11
-38 -42 -130 -70 -204 -61 -165 -77 -218 -93 -295 -13 -65 -18 -294 -7 -335 6
-23 0 -28 -65 -59 -135 -65 -265 -230 -326 -416 -17 -53 -40 -164 -56 -268
-40 -268 -69 -361 -172 -539 -52 -90 -59 -98 -102 -113 -117 -41 -251 -120
-251 -147 0 -5 15 0 33 11 46 31 219 113 224 107 3 -3 -29 -56 -70 -119 -145
-220 -201 -331 -237 -467 -10 -36 -20 -65 -23 -65 -3 0 -36 47 -74 105 -89
134 -188 260 -298 380 -198 215 -243 297 -285 525 -39 212 -70 326 -141 514
-39 100 -69 184 -67 186 8 7 139 -17 198 -36 36 -12 144 -62 240 -111 96 -50
247 -127 335 -172 220 -113 291 -162 431 -299 71 -69 125 -114 129 -108 25 41
-170 259 -315 354 -125 81 -636 333 -757 373 -85 29 -121 36 -196 37 -77 2
-91 0 -88 -13 2 -8 7 -33 11 -55 3 -22 38 -134 77 -250 52 -154 79 -255 102
-376 58 -316 99 -402 295 -626 153 -176 254 -303 327 -411 56 -84 69 -110 69
-143 0 -21 5 -39 10 -39 6 0 10 10 10 23 0 27 63 -81 165 -283 88 -175 144
-305 193 -448 34 -102 36 -114 36 -237 0 -117 -2 -136 -26 -197 -29 -72 -96
-184 -105 -175 -3 4 -28 -3 -56 -13 -27 -11 -71 -22 -96 -25 -80 -11 -91 -14
-91 -34 0 -24 19 -31 88 -31 62 0 138 29 148 55 3 8 12 15 20 15 7 0 26 16 41
35 l28 35 12 -72 c6 -40 12 -114 12 -165 1 -50 6 -95 11 -98 18 -11 15 151 -6
227 -20 76 -18 111 13 192 25 65 27 83 27 216 1 127 -3 158 -28 255 -54 210
-160 460 -300 709 l-76 134 26 74 c35 98 74 168 224 398 70 107 135 210 144
227 19 37 7 33 226 72 228 40 423 66 443 58 37 -14 17 -35 -50 -51 -38 -9
-138 -41 -223 -71 -171 -59 -266 -88 -352 -105 -40 -8 -58 -16 -58 -27 0 -28
88 -5 440 115 261 89 270 91 293 53 l17 -29 -82 -26 c-45 -15 -118 -44 -162
-65 -141 -66 -354 -207 -363 -240 -2 -9 -21 -26 -41 -38 -81 -46 -452 -341
-452 -359 0 -13 26 2 88 54 341 281 631 461 916 568 90 33 125 54 94 54 -46 0
-311 -116 -458 -200 -30 -17 -46 -24 -35 -15 34 28 201 124 262 152 83 37 188
72 263 88 78 16 225 18 298 4 30 -6 56 -8 59 -5 12 12 -68 36 -143 43 l-78 8
-38 50 c-21 28 -38 53 -38 56 0 10 58 19 125 19 75 0 125 9 125 22 0 7 -49 9
-132 7 l-133 -4 1 47 c0 26 3 51 7 54 9 9 114 -12 205 -41 56 -18 72 -20 72
-9 0 12 -135 61 -217 79 -18 3 -33 11 -33 16 0 16 80 67 131 84 54 18 67 45
22 45 -61 0 -158 -66 -188 -127 -1 -2 -49 4 -106 12 -57 8 -123 15 -145 15
-32 0 -57 11 -117 50 -42 28 -78 50 -81 50 -4 0 -6 -7 -6 -15 0 -8 19 -27 42
-42 l42 -28 -140 -7 c-76 -3 -140 -5 -141 -4 -1 1 2 19 7 41 5 22 19 106 30
187 51 368 109 475 397 729 51 45 52 45 62 23 13 -29 69 -60 83 -46 6 6 -6 41
-34 98 l-43 89 1 120 c0 116 2 125 46 255 25 74 63 189 83 255 35 115 72 193
115 244 19 23 23 23 62 12 103 -31 193 -170 243 -376 15 -60 42 -157 61 -215
50 -158 58 -225 38 -310 -13 -51 -14 -74 -7 -81 8 -8 16 -3 30 17 36 55 22
172 -52 434 -24 85 -55 197 -69 248 -45 160 -121 283 -199 321 -50 24 -59 25
-111 6z m-340 -2139 c32 -29 67 -67 76 -83 l16 -29 -196 -27 c-212 -30 -328
-51 -379 -66 -40 -12 -41 -6 -9 57 13 26 36 82 51 125 l28 77 177 0 177 0 59
-54z m202 28 c32 -6 32 -7 32 -64 0 -65 -5 -70 -74 -70 -36 0 -45 4 -54 25 -7
14 -33 49 -59 77 l-48 51 85 -6 c47 -3 100 -9 118 -13z m46 -177 c3 -13 17
-40 30 -60 l25 -36 -52 -8 c-48 -8 -53 -7 -65 14 -7 13 -12 29 -10 36 2 7 -8
23 -22 37 l-25 25 35 6 c67 12 78 10 84 -14z"/>
<path d="M3895 5386 c-60 -19 -104 -44 -170 -96 -77 -62 -101 -88 -89 -100 6
-6 51 16 119 55 122 72 145 79 145 39 0 -34 24 -74 63 -103 l32 -23 -44 5
c-24 3 -65 19 -92 36 -56 35 -67 20 -20 -27 52 -51 116 -75 203 -76 85 -1 125
18 142 67 13 36 6 40 -37 22 -51 -21 -53 -20 -49 24 2 21 -1 42 -7 45 -7 5
-11 -2 -11 -18 0 -23 -4 -26 -32 -26 -30 1 -32 2 -15 15 19 14 16 55 -4 55 -5
0 -9 11 -9 24 0 22 3 24 28 17 41 -12 88 -38 168 -93 39 -26 74 -48 78 -48 21
0 -2 43 -46 86 -71 68 -102 89 -176 113 -69 24 -118 26 -177 7z m105 -126 c0
-35 -8 -37 -44 -9 -35 28 -33 39 9 39 32 0 35 -2 35 -30z"/>
<path d="M2503 4989 c-21 -21 -15 -26 35 -33 57 -7 103 -31 191 -98 56 -42 67
-47 70 -31 4 23 -89 110 -155 142 -57 29 -124 38 -141 20z"/>
<path d="M2352 4914 c3 -15 18 -21 85 -30 164 -24 234 -58 374 -183 81 -73
129 -141 129 -184 0 -17 4 -26 10 -22 16 10 2 73 -28 128 -14 27 -55 78 -91
114 -123 124 -236 178 -395 190 -83 6 -88 5 -84 -13z"/>
<path d="M2207 4879 c-9 -5 -27 -29 -39 -52 -43 -83 -21 -319 41 -453 76 -162
227 -233 414 -194 120 24 327 159 327 211 0 17 -7 15 -57 -19 -251 -170 -461
-186 -605 -45 -91 90 -146 267 -119 388 14 61 53 115 102 141 16 8 29 19 29
24 0 13 -70 12 -93 -1z"/>
<path d="M1996 4837 c-7 -38 -51 -109 -143 -234 -104 -140 -127 -248 -75 -349
51 -98 144 -152 366 -213 81 -23 168 -53 194 -68 48 -28 212 -179 212 -194 0
-5 -15 -9 -33 -9 -109 0 -334 115 -489 251 -36 33 -69 59 -72 59 -3 0 -6 -8
-6 -17 0 -30 87 -131 170 -196 190 -150 349 -207 457 -162 35 15 37 14 83 -15
117 -75 256 -110 438 -110 219 0 394 58 482 158 37 41 51 72 33 72 -5 0 -28
-14 -53 -30 -130 -87 -299 -125 -510 -117 -153 6 -223 22 -329 73 -60 30 -99
61 -210 169 -84 81 -156 142 -187 158 -28 14 -114 44 -192 66 -163 47 -226 76
-288 133 -55 51 -72 99 -54 154 15 44 24 60 99 164 65 90 108 178 117 237 8
52 -1 69 -10 20z"/>
<path d="M7585 4851 c-36 -4 -51 -11 -53 -23 -4 -21 13 -24 198 -38 209 -16
272 -32 488 -119 51 -20 52 -20 52 -1 0 23 -44 57 -125 98 -147 73 -367 106
-560 83z"/>
<path d="M9030 4845 c-8 -2 -48 -9 -89 -15 -98 -16 -196 -50 -288 -100 -218
-118 -392 -325 -399 -478 l-3 -57 9 44 c35 165 317 399 573 476 77 23 278 65
313 65 71 0 88 -54 54 -176 -25 -94 -109 -270 -177 -374 -61 -93 -134 -160
-294 -272 -162 -114 -159 -112 -159 -138 0 -25 11 -24 104 11 187 69 379 281
476 522 59 147 75 225 75 367 l0 125 -90 2 c-49 0 -97 0 -105 -2z"/>
<path d="M2090 4825 c0 -8 5 -15 10 -15 6 0 10 7 10 15 0 8 -4 15 -10 15 -5 0
-10 -7 -10 -15z"/>
<path d="M2030 4670 c0 -11 4 -20 9 -20 5 0 7 9 4 20 -3 11 -7 20 -9 20 -2 0
-4 -9 -4 -20z"/>
<path d="M2280 4660 c0 -12 12 -26 30 -35 74 -38 65 -122 -16 -144 -24 -6 -29
-13 -29 -37 0 -24 4 -30 27 -32 84 -10 119 169 47 240 -32 33 -59 36 -59 8z"/>
<path d="M2030 4570 c0 -16 5 -30 10 -30 6 0 10 14 10 30 0 17 -4 30 -10 30
-5 0 -10 -13 -10 -30z"/>
<path d="M2599 4531 c-18 -15 -23 -30 -26 -82 -3 -35 -9 -74 -15 -85 -7 -15
-7 -28 1 -43 20 -36 31 -14 28 54 -3 83 11 98 95 105 64 5 87 22 75 54 -10 24
-127 23 -158 -3z"/>
<path d="M3200 4358 c0 -65 15 -95 25 -50 7 35 -3 102 -16 102 -5 0 -9 -24 -9
-52z"/>
<path d="M1603 4263 c-123 -232 -204 -532 -283 -1053 -44 -290 -91 -427 -202
-597 -146 -221 -321 -418 -503 -563 -246 -196 -296 -282 -296 -520 0 -63 5
-158 10 -210 13 -117 14 -282 2 -334 -11 -47 -2 -82 11 -45 19 51 20 199 3
380 -33 340 7 430 280 639 125 95 231 199 325 319 206 262 297 429 340 626 6
28 36 194 65 370 30 176 65 368 79 427 41 173 113 384 172 505 72 146 69 192
-3 56z"/>
<path d="M3093 4274 c-3 -8 -1 -20 6 -27 8 -8 11 -4 11 16 0 30 -7 35 -17 11z"/>
<path d="M4736 4123 c-11 -199 -25 -245 -112 -363 -60 -83 -296 -323 -394
-403 -214 -173 -446 -290 -682 -344 -103 -23 -352 -23 -473 1 -269 53 -664
228 -873 386 -112 85 -129 105 -134 167 -8 91 -116 291 -234 436 -28 34 -52
76 -60 105 -9 32 -13 39 -13 21 -2 -48 28 -124 74 -189 67 -93 155 -272 155
-314 0 -96 68 -227 169 -324 133 -128 466 -311 730 -401 218 -74 463 -96 646
-57 397 85 790 347 1064 710 115 152 139 234 148 499 7 206 -1 256 -11 70z"/>
<path d="M3281 4139 c-10 -24 -10 -34 1 -59 19 -44 28 -37 28 24 0 64 -10 77
-29 35z"/>
<path d="M3075 4148 c-4 -10 -4 -26 0 -35 8 -17 8 -17 12 0 3 9 3 25 0 35 -4
16 -4 16 -12 0z"/>
<path d="M9024 4025 c-3 -20 -1 -87 6 -149 20 -177 11 -254 -50 -441 -59 -180
-79 -224 -158 -345 -62 -95 -238 -330 -304 -404 l-43 -49 -55 48 c-74 63 -191
140 -255 166 l-52 22 -7 59 c-6 59 -41 158 -57 158 -4 0 3 -24 16 -52 31 -67
36 -164 8 -153 -10 3 -31 9 -47 12 -44 9 -28 -20 17 -30 39 -10 47 -29 25 -60
-12 -16 -24 -10 -126 64 -62 45 -116 78 -120 74 -3 -3 -2 -9 4 -13 60 -41 214
-158 214 -162 0 -4 -9 -15 -20 -25 -14 -12 -23 -15 -32 -8 -76 60 -229 186
-233 193 -8 12 -25 13 -25 1 0 -4 56 -55 126 -112 l125 -104 -25 -20 c-15 -12
-26 -26 -26 -33 0 -15 2 -15 50 4 l39 16 70 -62 c212 -188 403 -518 465 -803
8 -34 14 -53 15 -41 2 34 -39 182 -76 273 -93 232 -232 438 -400 595 l-56 52
18 27 18 27 30 -19 c17 -11 79 -58 139 -106 100 -79 108 -89 108 -120 0 -32 1
-34 25 -25 22 8 30 2 86 -58 63 -69 177 -218 309 -405 41 -58 77 -101 78 -96
5 13 -239 352 -341 474 l-84 99 51 32 51 31 78 -76 c43 -42 152 -157 242 -256
141 -156 283 -292 315 -303 30 -10 0 24 -74 87 -46 39 -141 135 -212 214 -71
78 -175 190 -231 248 l-103 105 31 30 c28 26 204 266 271 370 101 156 210 466
225 640 4 46 0 110 -12 185 -9 63 -15 147 -13 187 3 76 -6 97 -18 37z m-784
-1237 c62 -37 210 -151 210 -162 0 -6 -19 -26 -41 -45 l-40 -33 -37 31 c-20
17 -83 66 -140 109 -102 76 -102 77 -96 112 3 19 8 38 10 42 5 8 81 -23 134
-54z"/>
<path d="M7057 4030 c-29 -9 -57 -28 -57 -39 0 -3 44 -6 98 -6 88 0 103 -3
162 -31 79 -37 132 -82 165 -138 40 -69 38 -77 -25 -92 -107 -25 -161 -16
-218 39 -35 33 -72 120 -72 167 0 16 -4 32 -10 35 -13 8 -13 0 1 -87 19 -124
58 -191 131 -229 59 -30 159 -18 207 25 26 23 31 20 31 -20 0 -52 -27 -102
-72 -132 -46 -30 -48 -58 -4 -55 66 5 91 64 84 202 -10 196 -100 305 -295 356
-63 17 -84 17 -126 5z"/>
<path d="M3023 3920 c0 -25 2 -35 4 -22 2 12 2 32 0 45 -2 12 -4 2 -4 -23z"/>
<path d="M7270 3885 c0 -8 -6 -14 -12 -12 -9 1 -12 -10 -10 -37 4 -45 19 -79
31 -72 12 8 22 82 15 111 -7 27 -24 34 -24 10z"/>
<path d="M8075 3726 c-98 -31 -165 -94 -190 -181 -19 -63 -32 -250 -18 -258 6
-4 12 23 16 71 6 83 26 153 57 192 l19 25 11 -29 c28 -76 96 -125 170 -126 47
0 129 40 173 84 26 26 37 47 42 81 4 25 12 45 19 45 6 0 44 -18 85 -41 40 -22
76 -37 80 -33 10 10 -82 88 -145 121 -109 58 -232 77 -319 49z m228 -75 c51
-12 53 -16 34 -55 -32 -68 -169 -120 -254 -97 -44 12 -107 65 -100 85 6 18 66
49 121 62 61 15 147 17 199 5z"/>
<path d="M8158 3624 c-3 -5 -8 -21 -12 -36 -5 -21 -2 -30 14 -38 24 -13 40 -5
40 19 0 23 -35 68 -42 55z"/>
<path d="M3592 3648 c8 -52 180 -99 296 -80 72 12 93 25 74 44 -8 8 -63 14
-155 18 -107 4 -150 10 -176 23 -43 21 -43 21 -39 -5z"/>
<path d="M7414 3277 c-9 -23 4 -37 34 -37 25 -1 25 -2 10 -14 -26 -20 -22 -43
13 -68 22 -17 35 -38 46 -81 l16 -58 34 33 c19 18 55 40 81 49 38 13 47 20 47
39 0 33 -27 47 -65 33 -25 -9 -30 -9 -30 3 0 9 -11 14 -30 14 -23 0 -30 -4
-30 -20 0 -11 7 -20 15 -20 19 0 19 -9 -2 -32 -16 -18 -17 -17 -30 13 -9 22
-10 36 -3 43 5 5 10 20 10 33 0 22 3 23 43 17 34 -5 86 -24 140 -52 4 -2 7 8
7 21 0 27 -27 51 -85 76 -16 8 -72 16 -122 19 -78 4 -94 2 -99 -11z"/>
<path d="M8963 3043 c-7 -2 -13 -13 -13 -23 0 -21 17 -25 125 -35 39 -3 140
-19 225 -35 85 -16 215 -38 289 -50 155 -25 221 -48 375 -129 61 -33 152 -76
201 -96 176 -72 232 -108 390 -248 83 -74 198 -186 257 -249 78 -83 141 -140
228 -202 111 -79 120 -84 120 -61 0 19 -21 42 -87 97 -48 40 -109 93 -137 118
-68 63 -216 232 -210 242 9 14 125 70 196 94 105 35 203 47 345 41 197 -8 265
-34 522 -202 152 -99 264 -157 392 -201 207 -71 397 -107 534 -102 74 3 80 5
83 25 4 25 11 22 -128 49 -304 58 -633 196 -919 383 -85 56 -180 110 -210 122
-170 64 -388 64 -585 -2 -96 -32 -210 -101 -249 -151 l-24 -30 -99 89 c-185
165 -264 217 -419 276 -50 19 -141 60 -203 91 -146 73 -232 101 -372 121 -63
9 -204 29 -312 45 -184 28 -286 35 -315 23z"/>
<path d="M7418 2963 c-13 -3 -18 -14 -18 -37 0 -33 1 -34 51 -40 28 -4 73 -16
100 -26 66 -26 79 -25 79 4 0 52 -141 118 -212 99z"/>
<path d="M8120 2932 c0 -5 27 -16 61 -26 33 -9 90 -30 126 -46 73 -33 73 -33
73 -22 0 11 -81 50 -164 78 -74 26 -96 29 -96 16z"/>
<path d="M7048 2845 c-202 -32 -398 -129 -565 -280 -57 -51 -74 -85 -20 -41
89 73 195 150 253 182 118 66 277 113 427 127 32 2 42 21 12 24 -11 1 -59 -5
-107 -12z"/>
<path d="M7304 2649 c-2 -4 3 -12 13 -17 26 -14 160 -50 216 -58 40 -5 47 -4
47 10 0 9 -6 19 -12 21 -39 14 -260 51 -264 44z"/>
<path d="M2392 1998 c3 -8 33 -16 72 -21 119 -13 248 -83 376 -203 121 -114
196 -237 261 -425 35 -102 36 -105 44 -97 15 15 -32 164 -85 273 -120 246
-305 417 -506 470 -73 19 -167 20 -162 3z"/>
<path d="M9232 1983 c3 -25 16 -33 143 -88 77 -34 163 -74 192 -89 51 -28 227
-165 220 -172 -2 -2 -46 -5 -99 -7 -81 -3 -104 -8 -160 -34 -127 -60 -201
-167 -201 -292 0 -38 7 -82 16 -104 15 -35 15 -37 -2 -28 -25 14 -88 85 -95
109 -9 29 38 142 80 191 20 23 61 56 92 74 84 49 82 87 -5 87 -64 0 -118 -47
-168 -144 l-40 -79 0 -131 c0 -184 24 -223 120 -196 32 9 45 18 47 34 3 19 9
15 55 -31 l52 -51 -92 -46 c-98 -48 -240 -89 -347 -101 -86 -9 -100 -13 -100
-32 0 -24 240 -12 330 16 73 23 170 78 213 120 l29 28 61 -25 c109 -44 212
-40 288 11 18 12 36 33 39 46 4 19 19 28 70 46 101 33 187 84 235 137 24 27
46 44 49 39 14 -23 162 -45 301 -45 157 -1 180 3 218 38 l26 24 36 -25 c26
-17 46 -46 71 -99 51 -107 93 -131 278 -159 121 -18 206 -19 295 -4 238 38
311 149 252 381 -29 113 -64 174 -150 259 -78 77 -155 130 -255 174 -53 24
-56 24 -56 6 0 -14 27 -38 88 -77 226 -147 329 -267 361 -425 19 -89 -17 -161
-98 -195 -38 -16 -65 -18 -57 -5 8 13 -21 103 -43 131 -30 38 -34 19 -5 -24
31 -45 40 -95 22 -117 -8 -11 -36 -19 -74 -23 l-61 -7 -5 63 c-6 66 -34 151
-48 143 -4 -3 3 -31 16 -62 25 -60 28 -83 18 -120 -6 -20 -13 -23 -59 -23 -29
0 -80 3 -114 6 l-61 7 0 44 c0 52 -20 100 -56 134 -35 33 -30 3 6 -32 31 -31
46 -83 35 -118 -8 -25 -16 -26 -82 -6 -69 21 -98 47 -134 119 -17 33 -38 69
-46 78 -23 26 -77 33 -116 15 -64 -30 -153 -40 -305 -34 -195 9 -198 10 -206
57 -10 62 -47 96 -129 121 -63 19 -82 31 -167 106 -149 134 -335 280 -392 309
-41 21 -312 124 -326 124 -2 0 -2 -12 0 -27z m592 -416 c21 -6 54 -25 72 -43
47 -44 47 -103 0 -206 -18 -40 -36 -81 -39 -90 -8 -24 -53 -23 -100 1 -29 15
-37 16 -37 5 0 -17 53 -51 91 -59 40 -9 44 -41 8 -62 -32 -19 -38 -49 -11 -56
9 -3 -14 -5 -53 -6 -80 -1 -148 15 -220 51 -148 76 -208 176 -161 266 30 57
188 177 276 209 37 13 106 10 174 -10z m159 -111 c12 -7 47 -21 77 -31 93 -30
110 -37 135 -57 14 -11 25 -28 25 -37 0 -45 -94 -104 -254 -160 -90 -32 -109
-33 -87 -7 7 8 10 24 6 35 -4 13 7 45 30 91 27 53 36 85 37 125 1 30 3 55 5
55 2 0 14 -6 26 -14z"/>
<path d="M9720 1421 c0 -14 27 -21 81 -21 37 0 49 4 49 15 0 12 -14 15 -65 15
-36 0 -65 -4 -65 -9z"/>
<path d="M9740 1311 c0 -7 94 -31 122 -31 18 0 6 28 -14 34 -34 9 -108 7 -108
-3z"/>
<path d="M7816 1862 c-8 -14 8 -28 49 -39 l40 -12 -33 29 c-33 31 -47 36 -56
22z"/>
<path d="M9053 1854 c-8 -21 4 -29 61 -43 70 -17 169 -64 258 -123 84 -54 148
-81 162 -68 17 16 -5 62 -50 106 -76 73 -208 124 -362 138 -51 5 -64 3 -69
-10z"/>
<path d="M12125 1830 c-98 -22 -179 -32 -330 -41 -110 -6 -203 -16 -206 -21
-3 -5 -22 -6 -43 -3 -64 12 -40 -13 34 -36 53 -16 84 -19 127 -15 32 3 135 10
228 15 181 9 263 27 324 70 34 24 42 62 14 60 -10 0 -76 -14 -148 -29z"/>
<path d="M3660 1821 c-116 -48 -214 -129 -302 -248 -49 -67 -123 -211 -133
-258 -3 -17 9 2 28 41 106 220 254 350 484 428 53 18 69 27 71 44 3 20 -1 22
-40 21 -24 0 -72 -13 -108 -28z"/>
<path d="M5075 1831 c-148 -53 -303 -176 -393 -311 -72 -108 -98 -199 -147
-500 -9 -58 -35 -159 -57 -225 -65 -195 -62 -288 12 -332 16 -9 30 -20 30 -23
0 -3 -16 -25 -35 -49 -22 -27 -35 -55 -35 -72 0 -26 4 -29 30 -29 61 0 140 66
140 116 0 19 5 24 25 24 13 0 44 9 68 21 l43 21 37 -25 c20 -14 57 -33 83 -43
l46 -19 -7 -78 c-7 -84 -1 -92 43 -61 29 20 52 65 52 102 0 25 5 30 31 36 31
6 91 57 101 86 4 12 10 9 28 -13 28 -36 83 -63 143 -72 56 -9 59 -21 17 -67
l-29 -33 -1 40 -1 40 -15 -40 c-35 -90 -38 -105 -26 -117 29 -29 121 86 122
153 0 20 8 30 30 39 17 7 41 25 54 41 23 27 25 27 67 15 41 -12 45 -16 58 -65
8 -28 19 -50 25 -48 6 2 20 20 32 41 l21 37 6 -42 c12 -87 47 -59 47 38 0 28
8 58 20 79 36 57 28 148 -20 244 -40 80 -144 210 -148 186 -2 -10 6 -33 19
-50 96 -129 131 -184 146 -232 16 -51 16 -56 0 -90 -12 -24 -22 -34 -33 -30
-8 3 -23 -3 -34 -14 -22 -22 -73 -26 -131 -10 l-36 10 5 53 c2 29 -1 79 -8
110 -19 95 -105 246 -126 224 -4 -3 20 -58 52 -121 49 -98 59 -126 62 -181 4
-53 1 -66 -12 -71 -9 -3 -16 -14 -16 -24 0 -44 -133 -74 -221 -50 -63 18 -79
41 -79 120 0 69 -32 194 -65 250 -22 38 -18 11 11 -76 36 -107 42 -208 16
-250 -46 -73 -154 -83 -276 -26 -56 26 -67 35 -61 49 36 87 68 263 47 263 -5
0 -11 -33 -14 -73 -6 -92 -30 -143 -85 -181 -37 -25 -52 -30 -105 -30 -42 0
-79 8 -110 21 -82 37 -87 77 -28 222 29 72 46 136 61 228 53 336 114 473 285
632 122 114 242 171 361 171 69 0 110 -15 156 -58 l27 -26 0 27 c0 35 -54 95
-105 118 -51 24 -135 24 -200 0z m-477 -1401 c12 0 10 -6 -9 -26 -26 -28 -58
-48 -65 -41 -3 2 3 21 13 41 11 23 22 35 31 31 7 -3 21 -5 30 -5z m1032 -24
c0 -11 -19 -15 -25 -6 -3 5 1 10 9 10 9 0 16 -2 16 -4z m-640 -44 c0 -11 -8
-26 -17 -34 -37 -32 -42 -30 -40 12 1 37 4 40 29 40 21 0 28 -5 28 -18z"/>
<path d="M5202 1748 c-7 -7 -12 -19 -12 -27 0 -11 5 -8 16 7 18 25 15 39 -4
20z"/>
<path d="M1395 1664 c-11 -3 -37 -10 -57 -15 -24 -6 -38 -16 -38 -25 0 -12 5
-14 18 -9 39 17 258 18 343 1 120 -24 395 -118 517 -176 58 -28 106 -50 108
-50 2 0 4 9 4 19 0 21 -68 75 -135 108 -51 26 -198 74 -345 114 -97 26 -137
31 -255 34 -77 2 -149 2 -160 -1z"/>
<path d="M6720 1633 c-21 -45 -25 -199 -6 -273 9 -36 55 -144 101 -240 87
-180 116 -271 135 -415 6 -44 13 -96 16 -115 8 -49 -20 -224 -47 -292 -12 -32
-37 -75 -56 -97 -35 -41 -130 -94 -190 -106 l-33 -7 -2 109 -2 108 -3 -105
c-3 -68 -8 -107 -16 -112 -13 -8 -177 -11 -177 -3 0 2 9 27 20 55 11 28 20 61
20 73 0 12 -11 -8 -24 -44 -13 -36 -26 -71 -29 -76 -8 -13 -76 -1 -135 22
l-41 17 18 36 c30 61 60 179 42 168 -4 -3 -11 -21 -14 -41 -6 -34 -55 -155
-64 -155 -2 0 -19 11 -37 25 -68 51 -104 160 -107 314 -2 70 -3 66 -10 -39
-13 -183 10 -262 97 -338 100 -89 291 -125 466 -87 218 46 307 169 332 460 4
39 9 90 12 114 4 29 2 41 -5 36 -7 -4 -11 13 -11 54 0 158 -35 291 -120 461
-116 233 -140 319 -120 438 14 79 11 97 -10 55z"/>
<path d="M11235 1625 c-38 -19 -87 -48 -108 -65 -62 -53 -94 -138 -67 -180 7
-11 10 -3 10 31 0 59 32 91 165 162 57 30 101 61 103 70 5 26 -25 21 -103 -18z"/>
<path d="M946 1488 c15 -47 73 -180 97 -221 14 -23 48 -73 77 -112 67 -90 152
-265 185 -379 63 -219 36 -339 -87 -402 -60 -31 -161 -44 -173 -23 -5 7 -8 60
-8 118 1 104 1 105 -8 41 -5 -36 -12 -79 -15 -97 -7 -44 -52 -89 -105 -103
-42 -12 -143 -10 -155 3 -4 3 3 21 14 39 29 49 16 60 -23 21 -19 -19 -39 -32
-44 -29 -5 3 -12 -1 -15 -10 -9 -23 -69 -44 -125 -44 -39 0 -56 6 -80 26 -36
30 -39 54 -11 79 21 19 27 51 10 57 -7 2 -5 20 6 50 18 54 17 97 -2 57 -6 -13
-19 -50 -28 -81 -16 -53 -19 -58 -52 -64 -59 -11 -185 2 -245 25 -31 12 -73
37 -93 57 -62 60 -49 101 85 256 108 126 137 176 144 254 4 53 4 56 -6 24 -26
-84 -49 -119 -144 -220 -121 -128 -140 -161 -140 -251 0 -52 5 -72 24 -100 55
-80 181 -135 291 -126 36 3 75 9 88 13 18 5 22 2 22 -15 0 -12 15 -37 33 -56
51 -56 137 -60 211 -10 l36 24 36 -24 c20 -14 45 -25 55 -25 11 0 19 -2 19 -5
0 -13 -30 -62 -44 -74 -18 -15 -21 -47 -6 -56 15 -10 75 21 99 51 25 32 15 52
-19 34 -27 -14 -30 -12 -23 22 5 25 10 28 45 28 47 0 113 32 129 63 6 12 13
23 14 25 2 2 14 -8 28 -22 18 -18 37 -26 62 -26 41 0 43 -10 15 -63 -22 -41
-26 -67 -10 -67 18 0 84 30 102 47 41 37 12 56 -43 28 l-30 -16 7 28 c10 48
12 50 42 56 46 9 113 67 141 122 23 44 26 61 25 155 -1 208 -94 461 -246 672
-31 43 -78 120 -105 173 -44 88 -74 125 -57 73z"/>
<path d="M4017 1481 c-92 -19 -55 -40 90 -50 141 -10 195 -30 283 -106 63 -55
138 -105 157 -105 50 0 -33 104 -139 174 -107 71 -281 110 -391 87z"/>
<path d="M1771 1244 c-95 -20 -203 -75 -266 -135 -61 -57 -100 -113 -90 -128
3 -6 -12 -27 -35 -47 -22 -20 -40 -45 -40 -56 0 -17 7 -14 48 19 26 22 72 56
102 75 67 42 87 65 73 79 -11 11 -65 -11 -78 -31 -3 -5 -16 -15 -28 -20 -12
-6 4 13 36 43 113 107 244 150 452 150 193 0 373 -37 730 -148 371 -116 772
-223 1120 -300 318 -71 459 -72 602 -5 49 22 63 34 63 51 0 16 -4 19 -17 14
-107 -44 -233 -54 -393 -31 -246 37 -756 165 -1295 326 -290 87 -441 125 -576
144 -130 19 -321 19 -408 0z"/>
<path d="M8585 1177 c8 -79 50 -145 191 -297 108 -117 135 -174 119 -256 -8
-46 -80 -124 -151 -165 -36 -20 -54 -37 -54 -50 0 -16 7 -19 53 -19 71 0 116
31 154 107 26 54 28 67 28 173 0 107 -2 119 -29 174 -19 39 -53 82 -104 130
-159 151 -188 182 -200 216 l-12 35 5 -48z"/>
<path d="M5796 1199 c-51 -12 -99 -49 -120 -92 -22 -48 -20 -65 5 -33 30 38
91 66 143 66 47 0 62 15 51 51 -7 21 -19 22 -79 8z"/>
<path d="M7828 1093 c-93 -58 -57 -198 132 -503 43 -69 85 -140 94 -158 22
-43 30 -40 23 9 -7 56 -44 127 -142 273 -135 203 -155 288 -81 352 20 17 36
34 36 38 0 12 -35 6 -62 -11z"/>
<path d="M8566 752 c46 -62 87 -102 106 -102 15 0 18 8 18 44 0 41 -2 45 -37
59 -21 8 -55 19 -76 25 l-38 11 27 -37z"/>
<path d="M7155 695 c-128 -24 -186 -64 -114 -80 17 -4 99 -4 182 0 144 7 158
6 265 -20 82 -20 131 -26 175 -23 73 5 137 32 137 58 0 16 -10 18 -87 19 -59
0 -136 10 -233 30 -157 33 -217 36 -325 16z"/>
<path d="M6666 553 c-4 -16 -9 -36 -12 -45 -6 -22 18 -24 35 -4 12 14 4 76 -9
76 -4 0 -11 -12 -14 -27z"/>
<path d="M718 473 c-2 -32 -8 -67 -12 -78 -8 -20 -7 -20 8 -1 11 13 16 40 16
78 0 74 -7 75 -12 1z"/>
<path d="M8287 453 c-3 -5 -8 -30 -12 -58 -12 -87 -64 -185 -98 -185 -34 0
-109 44 -128 74 -21 34 -24 81 -9 120 5 14 6 26 1 26 -16 0 -34 -79 -29 -134
8 -101 80 -150 263 -181 125 -22 302 -22 368 -2 106 34 178 120 176 211 l-1
41 -10 -35 c-16 -55 -44 -87 -103 -114 -29 -14 -58 -26 -64 -26 -6 0 -8 28 -6
73 l5 72 -13 -72 c-7 -40 -15 -74 -18 -77 -2 -2 -37 -7 -77 -11 l-74 -7 16 30
c8 16 18 49 21 73 l5 44 -13 -42 c-6 -23 -24 -55 -40 -71 -27 -28 -28 -28
-105 -20 -42 4 -87 10 -100 13 l-22 5 24 38 c27 40 40 87 50 170 6 48 4 63 -7
45z"/>
<path d="M82 346 c-1 -22 -11 -59 -23 -83 -21 -43 -22 -73 -4 -76 21 -3 36 53
32 125 -1 40 -4 55 -5 34z"/>
<path d="M191 303 c0 -6 -14 -20 -31 -30 -34 -19 -40 -43 -12 -43 27 0 54 34
49 62 -2 13 -5 18 -6 11z"/>
<path d="M514 206 c-3 -9 -28 -32 -55 -52 -39 -29 -49 -42 -49 -65 0 -33 13
-36 63 -16 44 19 58 39 63 91 4 44 -11 72 -22 42z"/>
</g>
</svg>
