<?xml version="1.0" standalone="no"?>
<!DOCTYPE svg PUBLIC "-//W3C//DTD SVG 20010904//EN"
 "http://www.w3.org/TR/2001/REC-SVG-20010904/DTD/svg10.dtd">
<svg version="1.0" xmlns="http://www.w3.org/2000/svg"
 width="1216.000000pt" height="1280.000000pt" viewBox="0 0 1216.000000 1280.000000"
 preserveAspectRatio="xMidYMid meet">
<metadata>
Created by potrace 1.15, written by Peter Selinger 2001-2017
</metadata>
<g transform="translate(0.000000,1280.000000) scale(0.100000,-0.100000)"
fill="#000000" stroke="none">
<path d="M5930 12725 c0 -33 -4 -221 -10 -420 -5 -198 -14 -531 -20 -739 -6
-209 -12 -381 -13 -382 -1 -2 -22 2 -45 8 -24 6 -45 9 -47 6 -3 -2 16 -57 41
-122 26 -64 44 -119 41 -122 -3 -3 -34 3 -69 14 -34 11 -64 19 -65 18 -2 -1
11 -78 28 -171 16 -92 28 -169 26 -172 -2 -2 -39 7 -81 21 -67 21 -78 22 -83
9 -9 -24 4 -211 22 -294 8 -42 30 -131 48 -198 20 -73 29 -121 23 -121 -6 0
-54 13 -106 29 -52 16 -96 25 -98 22 -1 -4 18 -76 43 -159 25 -84 45 -154 45
-156 0 -3 -42 20 -92 50 -51 29 -97 54 -101 54 -9 0 -1 -93 14 -180 14 -77 53
-196 99 -303 22 -51 40 -95 40 -99 0 -3 -49 13 -110 37 -126 49 -122 52 -89
-65 21 -76 57 -150 110 -222 16 -23 29 -44 29 -48 0 -5 -45 -11 -100 -15 -55
-4 -100 -9 -100 -12 0 -2 27 -41 59 -86 33 -45 73 -106 90 -135 32 -55 85
-172 79 -177 -2 -2 -57 33 -123 76 -66 43 -124 79 -129 79 -5 0 -6 -48 -3
-112 9 -158 46 -297 113 -429 l25 -50 -28 7 c-15 4 -59 18 -97 31 -38 12 -71
23 -72 23 -2 0 18 -48 43 -107 73 -174 70 -157 23 -149 -26 4 -40 2 -40 -5 0
-16 96 -199 140 -268 22 -34 38 -61 35 -61 -2 0 -42 22 -87 49 -99 59 -98 60
-74 -92 18 -114 61 -271 106 -391 16 -44 28 -81 27 -82 -1 -1 -38 27 -82 62
-43 35 -80 62 -82 60 -4 -4 45 -183 78 -281 17 -49 52 -137 80 -194 27 -57 47
-106 45 -108 -2 -3 -43 21 -91 52 -48 31 -89 55 -90 53 -2 -2 18 -47 45 -100
26 -54 63 -146 83 -205 36 -110 75 -288 65 -298 -3 -3 -22 4 -42 16 -20 12
-39 20 -41 18 -7 -8 55 -232 90 -320 20 -52 60 -136 87 -188 28 -51 44 -90 37
-86 -8 5 -33 22 -57 38 -24 16 -45 27 -47 25 -1 -1 53 -99 121 -217 68 -118
124 -215 124 -216 0 -2 -27 4 -60 12 -34 9 -63 13 -67 10 -9 -9 44 -152 85
-231 20 -38 64 -108 97 -155 84 -119 82 -115 35 -91 -23 12 -43 20 -44 18 -2
-2 39 -97 90 -213 50 -115 90 -212 88 -214 -1 -2 -15 6 -30 18 -15 12 -28 20
-30 18 -2 -1 10 -45 27 -97 50 -154 105 -381 148 -605 53 -273 52 -265 43
-265 -11 0 -194 258 -309 435 -96 148 -180 290 -241 409 -31 60 -37 67 -40 46
-2 -14 -7 -28 -11 -32 -6 -7 -132 302 -148 361 -8 30 -16 26 -33 -17 l-16 -37
-17 108 c-10 59 -29 141 -42 182 -31 93 -81 205 -92 205 -5 0 -22 -23 -38 -50
-35 -60 -26 -78 -96 188 -29 111 -56 202 -60 202 -4 0 -10 -22 -14 -50 -7 -47
-25 -80 -25 -44 0 63 -133 371 -208 482 l-29 43 -12 -45 c-6 -25 -13 -46 -16
-46 -2 0 -29 38 -59 83 -64 96 -144 260 -177 362 -12 39 -25 73 -29 78 -3 4
-14 -30 -24 -75 -9 -46 -20 -92 -23 -102 -4 -14 -17 14 -43 87 -42 118 -95
231 -167 352 l-48 80 -9 -92 c-5 -51 -11 -93 -15 -93 -3 0 -32 53 -63 118 -74
153 -211 362 -237 362 -4 0 -18 -40 -31 -90 l-24 -89 -21 87 c-29 117 -76 262
-86 262 -4 0 -10 -9 -14 -19 -3 -11 -12 -24 -19 -30 -11 -9 -22 10 -56 96 -24
60 -47 112 -51 117 -4 5 -26 -29 -49 -74 l-42 -84 -33 87 c-42 113 -113 230
-193 317 -35 39 -67 70 -71 70 -5 0 -21 -59 -37 -131 -25 -115 -30 -129 -41
-112 -23 30 -63 174 -82 288 l-17 107 -74 -62 -75 -63 -7 29 c-3 16 -12 55
-18 87 -12 60 -79 206 -105 227 -15 12 -29 -14 -82 -143 -9 -21 -19 -35 -24
-30 -4 4 -22 44 -39 88 -17 44 -52 119 -76 166 -46 88 -149 224 -163 214 -5
-2 -19 -46 -31 -96 -13 -50 -26 -87 -31 -82 -5 5 -40 66 -78 137 l-69 128 -48
-91 c-27 -50 -51 -91 -54 -91 -3 0 -36 55 -75 122 -38 67 -90 149 -114 182
-50 68 -139 166 -152 166 -4 0 -24 -29 -44 -65 -20 -36 -38 -65 -40 -65 -2 0
-43 56 -90 125 -47 68 -89 126 -93 129 -4 2 -21 -20 -37 -50 -16 -30 -32 -54
-35 -54 -3 0 -25 46 -49 103 -24 56 -47 106 -51 110 -4 5 -18 -10 -31 -32
l-24 -40 -534 509 c-294 280 -537 508 -539 505 -8 -7 225 -468 319 -630 114
-198 190 -313 287 -433 66 -83 158 -170 194 -186 9 -3 5 -11 -11 -23 -68 -50
-66 -44 -42 -91 26 -50 84 -92 141 -99 22 -3 43 -9 45 -13 3 -4 -9 -25 -25
-45 -33 -42 -33 -49 5 -125 29 -56 68 -94 120 -116 l40 -16 -28 -24 c-20 -17
-27 -30 -22 -44 9 -28 60 -64 125 -88 l55 -21 -88 0 -88 -1 28 -51 c15 -28 45
-71 66 -95 40 -45 209 -164 234 -164 7 0 13 -4 13 -9 0 -5 -29 -14 -65 -21
-36 -7 -65 -14 -65 -16 0 -14 54 -107 88 -153 49 -65 118 -116 189 -138 29 -9
53 -19 53 -22 0 -3 -19 -14 -43 -24 -80 -33 -80 -30 13 -116 l84 -78 -38 -20
-38 -19 34 -26 c54 -41 114 -68 170 -76 l53 -7 -78 -34 c-42 -19 -77 -35 -77
-36 0 -1 12 -24 27 -51 71 -127 204 -204 353 -204 22 0 40 -3 40 -7 0 -5 -41
-23 -90 -42 -50 -18 -93 -38 -96 -42 -8 -14 79 -131 133 -179 53 -46 167 -105
226 -116 47 -8 41 -14 -51 -49 -40 -16 -75 -32 -77 -36 -10 -15 154 -157 216
-187 l64 -31 -45 -19 c-42 -18 -43 -20 -20 -26 32 -8 292 -56 304 -56 51 0
-236 -49 -294 -50 -24 0 6 -23 114 -84 152 -87 250 -135 343 -165 l84 -27 -61
-18 c-65 -18 -139 -53 -179 -84 -30 -24 -55 -16 249 -82 129 -28 241 -53 249
-56 10 -3 -2 -21 -39 -59 l-53 -54 24 -21 c43 -38 181 -97 288 -124 57 -14
112 -26 122 -26 30 0 22 -13 -27 -44 -55 -35 -57 -32 76 -100 102 -53 214 -92
293 -101 31 -4 57 -9 57 -12 0 -2 -9 -23 -20 -45 -11 -23 -17 -45 -13 -49 5
-4 114 -26 243 -47 179 -30 234 -43 232 -53 -2 -8 -15 -29 -29 -47 -14 -18
-23 -36 -20 -39 3 -2 117 -30 254 -60 136 -30 250 -57 252 -59 2 -2 -11 -21
-28 -42 -17 -22 -31 -44 -31 -49 0 -5 51 -17 113 -26 445 -70 792 -242 1131
-559 l89 -83 -26 -14 c-24 -13 -48 -10 -227 23 -347 65 -486 107 -690 209 -69
34 -128 63 -132 65 -4 2 -8 -8 -10 -22 -3 -25 -7 -23 -223 94 -121 66 -224
120 -228 120 -5 0 -7 -27 -5 -60 2 -40 -1 -59 -8 -56 -6 2 -103 67 -216 145
-114 78 -209 141 -212 141 -2 0 -6 -15 -8 -34 l-3 -33 -200 93 c-110 52 -200
94 -202 94 -1 0 -3 -13 -5 -30 l-3 -29 -215 105 -215 104 -3 -40 c-2 -22 -7
-40 -13 -40 -5 0 -107 38 -227 85 -120 47 -222 85 -225 85 -4 0 -4 -31 -1 -70
4 -38 4 -70 -1 -70 -4 0 -42 29 -85 65 -43 36 -81 65 -84 65 -3 0 -6 -9 -6
-19 0 -17 -14 -14 -127 35 -70 30 -131 54 -135 54 -4 0 -8 -27 -8 -60 0 -33
-1 -60 -2 -60 -2 0 -120 45 -263 99 -143 54 -262 97 -264 95 -1 -1 20 -44 49
-94 28 -51 50 -94 47 -96 -3 -3 -293 97 -379 131 -14 5 -18 2 -18 -14 0 -12
-4 -21 -8 -21 -4 0 -54 17 -110 39 l-102 38 0 -43 c0 -53 13 -51 -200 -24
-240 30 -379 40 -575 40 -167 0 -363 -11 -445 -26 l-35 -6 30 -16 c17 -8 95
-44 174 -79 259 -115 525 -196 750 -227 57 -8 105 -17 108 -20 3 -2 0 -13 -6
-24 -18 -33 -14 -38 52 -65 126 -52 263 -87 340 -87 72 0 72 -12 0 -55 -36
-22 -65 -44 -65 -50 2 -14 134 -69 215 -89 53 -13 155 -23 264 -26 1 0 -14
-37 -32 -83 -18 -45 -30 -85 -27 -88 14 -14 200 -51 277 -56 45 -3 105 0 134
6 30 6 55 10 57 9 1 -2 -22 -41 -52 -87 -30 -46 -53 -85 -51 -88 3 -2 45 -11
94 -20 107 -18 301 -13 383 11 30 8 66 19 79 22 20 6 10 -11 -52 -86 -42 -52
-77 -98 -77 -103 0 -6 51 -7 123 -5 107 5 138 10 253 47 72 22 134 41 138 41
3 0 -23 -39 -58 -87 -36 -49 -64 -88 -63 -89 1 -1 136 14 301 33 164 19 300
32 302 30 2 -2 -7 -30 -22 -61 -14 -32 -24 -59 -23 -61 2 -2 102 17 222 42
120 25 221 43 224 40 3 -3 0 -29 -7 -57 -7 -28 -11 -53 -8 -55 2 -2 110 24
240 59 l237 62 6 -38 c5 -30 11 -38 23 -33 10 3 105 36 212 73 l195 68 3 -29
c3 -22 7 -27 20 -22 310 119 527 175 757 194 132 12 277 13 314 2 24 -6 24 -6
-611 -208 l-247 -78 21 -22 20 -21 -48 -7 c-223 -28 -391 -70 -401 -101 -2 -6
8 -16 23 -23 15 -6 24 -14 22 -17 -3 -2 -66 -13 -141 -24 -151 -23 -253 -50
-289 -79 l-23 -20 39 -39 c44 -47 58 -39 -129 -77 -71 -15 -159 -38 -194 -51
-71 -27 -135 -70 -126 -85 4 -5 25 -19 48 -31 l42 -21 -55 -14 c-87 -21 -204
-82 -354 -183 l-139 -94 39 -17 c21 -10 45 -18 52 -18 23 -2 12 -18 -35 -52
-272 -195 -740 -592 -869 -736 -125 -140 -199 -263 -192 -316 3 -23 17 -13
178 114 318 253 581 428 765 508 116 51 145 58 145 37 0 -9 5 -16 10 -16 6 0
110 59 231 130 121 72 225 130 229 130 5 0 10 -30 12 -66 l3 -66 165 130 c90
72 166 130 167 128 2 -2 7 -36 11 -76 l7 -72 58 81 c32 44 84 109 115 143 53
57 164 148 182 148 4 0 5 -39 2 -87 l-5 -86 48 34 c72 51 240 215 320 313 l70
86 3 -68 c1 -37 5 -78 8 -91 5 -22 7 -21 38 25 80 119 317 359 354 359 12 0
18 -11 22 -38 3 -21 10 -38 15 -37 6 0 41 30 78 67 77 76 167 206 250 363 86
161 88 163 82 55 -2 -49 -7 -245 -10 -435 -3 -190 -10 -552 -15 -805 -5 -253
-14 -696 -20 -985 -5 -289 -12 -617 -16 -729 l-6 -204 83 6 c49 4 86 12 91 19
4 7 8 92 8 188 0 96 4 375 10 620 5 245 14 704 20 1020 26 1376 26 1379 46
1401 16 18 18 18 36 2 10 -9 68 -90 129 -179 118 -174 207 -278 300 -350 l59
-45 0 35 c0 43 8 66 24 66 30 0 273 -212 383 -334 l46 -51 -8 95 -7 95 108
-106 c109 -105 227 -200 318 -253 26 -15 49 -26 52 -24 2 2 -2 39 -10 81 -10
58 -10 77 -1 77 20 0 125 -68 186 -120 32 -28 89 -88 126 -132 l68 -80 5 76 5
76 173 -115 c95 -63 175 -115 178 -115 2 0 1 32 -2 70 l-7 71 94 -44 c52 -24
162 -76 245 -115 84 -40 155 -72 158 -72 3 0 6 9 6 21 0 23 -5 24 125 -18 218
-69 501 -223 878 -475 65 -43 124 -81 132 -85 47 -17 -27 125 -112 217 -157
170 -558 465 -985 726 -54 32 -97 62 -98 65 0 3 18 14 40 24 23 10 43 22 45
26 7 10 -126 86 -265 153 -111 53 -209 86 -257 86 -13 0 -23 5 -23 10 0 6 4
10 8 10 4 0 23 13 42 29 l34 28 -50 26 c-79 40 -185 62 -397 83 l-67 6 35 43
c19 24 35 45 35 48 0 2 -21 14 -47 25 -56 24 -172 41 -281 43 -42 1 -90 4
-107 8 l-30 6 24 17 c13 9 20 21 17 26 -19 31 -206 61 -375 62 l-84 0 22 24
23 24 -69 16 c-37 8 -234 51 -438 96 -203 44 -379 84 -390 89 -31 13 212 34
385 34 192 0 339 -21 569 -79 96 -24 176 -44 178 -44 2 0 3 11 3 25 0 14 4 25
10 25 5 0 100 -23 211 -50 111 -28 208 -50 215 -50 9 0 14 12 14 35 0 21 5 35
13 35 6 0 115 -18 241 -40 126 -22 231 -38 233 -37 2 2 -6 29 -16 60 -16 45
-17 57 -7 57 8 0 112 -11 231 -25 120 -14 219 -24 221 -23 1 2 -13 29 -33 61
-19 32 -34 59 -32 61 2 1 139 -1 304 -5 165 -4 302 -6 304 -3 2 2 -28 38 -67
81 -39 43 -70 79 -69 80 1 1 67 -12 147 -29 123 -25 161 -29 245 -25 153 8
151 5 48 110 -79 80 -85 89 -58 83 136 -26 215 -30 326 -14 63 9 140 25 172
35 l59 18 -61 77 c-34 43 -61 80 -61 83 0 2 26 2 59 -1 74 -8 166 8 304 52
l107 35 -43 84 -44 84 46 6 c174 22 251 45 364 109 37 20 67 39 67 41 0 3 -35
22 -77 44 l-78 39 60 12 c105 20 193 50 288 95 126 59 122 56 104 92 l-16 29
142 36 c78 20 187 52 242 73 115 42 416 188 553 268 l93 55 -48 7 c-53 8 -279
0 -448 -16 -149 -14 -325 -43 -542 -90 -101 -21 -187 -39 -192 -39 -5 0 -12
18 -16 40 -8 48 -9 48 -127 -11 -89 -45 -95 -46 -100 -20 -3 17 -24 9 -192
-70 -104 -49 -191 -88 -192 -86 -2 1 17 47 42 101 24 54 43 100 41 102 -1 2
-115 -51 -251 -117 -137 -66 -251 -117 -254 -114 -3 3 -7 30 -10 60 l-5 55
-123 -65 c-68 -36 -128 -65 -133 -65 -6 0 -11 8 -11 17 0 11 -28 -10 -79 -61
l-78 -78 -8 76 -7 75 -219 -109 c-120 -61 -221 -110 -224 -110 -3 0 -5 18 -5
41 0 34 -3 40 -16 35 -9 -4 -99 -56 -199 -116 -220 -132 -215 -130 -215 -96 0
14 -3 26 -6 26 -3 0 -90 -50 -194 -110 -104 -60 -191 -110 -194 -110 -2 0 -6
16 -8 35 l-3 35 -200 -165 c-138 -114 -201 -161 -207 -152 -4 6 -8 33 -8 60 0
26 -2 47 -5 47 -3 0 -100 -63 -215 -140 -115 -77 -212 -140 -215 -140 -3 0 -5
11 -5 25 0 14 -2 25 -5 25 -2 0 -41 -25 -85 -55 -103 -70 -293 -163 -430 -210
-58 -20 -199 -63 -314 -95 l-209 -58 -35 35 -34 35 6 81 c40 472 172 821 457
1208 27 37 49 69 49 72 0 3 -25 9 -55 12 -30 4 -57 11 -60 14 -2 4 63 113 145
241 82 128 147 237 145 241 -3 3 -30 10 -60 14 -30 3 -55 9 -55 12 0 3 51 75
113 161 62 87 132 185 156 220 l42 62 -28 10 c-58 21 -83 33 -83 37 0 3 17 25
38 49 45 50 94 139 123 221 29 82 69 217 65 221 -2 1 -23 -2 -47 -7 -83 -20
-84 -18 -30 63 87 129 151 271 164 368 5 36 4 38 -26 43 -18 3 -55 6 -83 8
l-50 2 157 245 c112 173 153 246 143 248 -25 6 -156 -38 -220 -73 l-61 -34 43
82 c23 45 56 123 74 172 36 103 103 352 98 365 -2 5 -63 -36 -136 -91 -74 -55
-135 -99 -137 -97 -1 2 40 64 92 138 127 182 123 175 76 154 -70 -29 -67 -29
-58 -8 37 87 47 135 48 241 1 61 -1 114 -5 118 -4 4 -46 -9 -93 -29 -48 -20
-85 -32 -83 -28 2 4 19 41 40 82 42 87 58 155 58 246 0 75 -19 204 -31 204 -4
0 -45 -16 -91 -36 -138 -60 -133 -60 -84 1 81 99 126 201 126 284 0 45 -27
172 -38 183 -5 5 -44 -5 -88 -22 -43 -16 -80 -30 -81 -30 -2 0 12 20 31 44 36
47 61 111 72 185 8 48 13 46 -61 26 -19 -6 -20 -2 -15 117 3 68 5 124 4 126
-1 2 -88 -27 -128 -44 -19 -7 -19 -6 1 27 35 56 63 154 63 218 0 52 -39 233
-53 247 -3 3 -33 -13 -66 -35 -33 -23 -62 -41 -64 -41 -3 0 7 35 20 78 22 65
26 97 27 207 1 85 -4 147 -13 178 l-14 48 -41 -38 c-23 -21 -54 -50 -69 -63
l-28 -25 30 65 c31 65 40 131 22 159 -7 10 -20 12 -50 7 -23 -3 -41 -5 -41 -3
0 1 9 20 20 42 12 23 20 59 20 87 0 45 -32 163 -49 181 -4 4 -33 11 -63 15
l-57 7 36 57 c40 65 49 137 24 196 -13 31 -16 33 -50 27 -20 -3 -43 -8 -52
-11 -14 -4 -15 12 -11 135 7 233 -41 492 -174 934 -54 179 -164 498 -175 512
-5 5 -9 -17 -9 -50z"/>
<path d="M11220 9778 c-265 -304 -486 -554 -490 -556 -4 -1 -18 13 -31 33 -13
19 -26 35 -29 35 -3 0 -16 -35 -28 -78 -13 -44 -32 -96 -41 -117 l-17 -38 -34
51 c-19 28 -38 52 -41 52 -4 0 -41 -61 -83 -135 -43 -74 -79 -135 -81 -135 -2
0 -23 27 -45 61 -23 33 -45 59 -50 57 -5 -2 -34 -34 -65 -73 -38 -46 -87 -131
-145 -249 l-88 -178 -52 78 c-29 44 -56 83 -60 87 -4 4 -33 -55 -66 -133 -32
-77 -61 -140 -64 -140 -3 0 -21 43 -40 97 l-33 96 -24 -29 c-67 -83 -134 -226
-184 -394 -13 -41 -26 -78 -29 -82 -3 -4 -28 33 -55 82 -27 50 -53 90 -57 90
-10 0 -46 -72 -70 -140 -10 -30 -22 -92 -25 -137 -3 -46 -8 -83 -10 -83 -2 0
-37 23 -78 50 -41 28 -76 50 -79 50 -2 0 -7 -44 -11 -97 -4 -54 -11 -118 -16
-143 -16 -79 -42 -170 -48 -170 -3 0 -24 59 -46 131 l-40 130 -40 -45 c-71
-80 -137 -201 -181 -333 l-41 -124 -47 75 c-26 42 -49 76 -51 76 -3 0 -43
-125 -72 -223 -4 -17 -7 -17 -33 8 l-28 27 -10 -34 c-22 -67 -52 -229 -52
-274 0 -26 -3 -44 -7 -40 -4 4 -22 46 -39 93 l-31 87 -43 -64 c-50 -73 -144
-270 -185 -384 -32 -89 -34 -88 -55 32 -7 39 -16 72 -19 72 -24 -1 -191 -456
-191 -521 0 -43 -17 -13 -44 76 -16 53 -32 92 -36 88 -3 -4 -12 -36 -19 -71
-6 -34 -23 -97 -37 -140 -26 -78 -120 -280 -147 -317 -15 -20 -16 -19 -27 10
-6 17 -13 37 -16 45 -8 22 -89 -143 -129 -264 -19 -55 -42 -140 -52 -188 -9
-49 -20 -88 -23 -88 -4 0 -12 23 -19 50 -7 28 -16 50 -20 50 -4 0 -17 -64 -30
-142 -13 -79 -30 -180 -38 -226 l-15 -83 -38 52 -39 51 -15 -30 c-41 -79 -83
-282 -89 -432 l-2 -55 -22 40 c-15 28 -23 35 -27 25 -3 -8 -28 -96 -56 -195
-64 -228 -60 -218 -74 -171 l-11 39 -44 -109 c-55 -139 -252 -525 -365 -716
-82 -139 -95 -168 -78 -168 4 0 40 38 80 84 201 232 423 411 652 526 122 61
327 134 497 175 l73 17 -40 47 -40 46 123 40 c67 22 178 58 247 79 69 22 127
41 129 42 2 2 -13 24 -33 49 -26 31 -33 46 -24 50 7 2 87 23 178 46 171 43
290 77 290 83 0 2 -11 23 -25 47 -26 46 -21 59 21 59 69 0 282 104 378 183
l29 23 -47 28 c-26 15 -46 29 -44 31 2 1 52 19 112 39 125 42 224 91 281 141
l40 35 -58 53 -59 53 99 31 c54 17 172 54 262 83 l163 52 -28 19 c-39 26 -116
54 -188 69 l-59 12 70 27 c87 34 195 98 343 204 111 79 114 82 85 88 -17 4
-70 7 -120 8 -49 1 -107 5 -129 9 -35 6 -26 10 123 51 88 24 158 48 155 52 -2
5 -20 11 -39 15 -44 8 -44 16 1 37 56 27 214 186 214 216 0 5 -36 19 -80 32
-44 13 -80 26 -80 29 0 3 27 16 60 28 76 30 164 96 211 159 49 65 100 152 91
156 -4 2 -51 17 -106 32 l-98 29 90 22 c98 24 179 68 225 124 24 28 87 140 87
154 0 2 -37 17 -82 32 l-83 28 44 8 c24 4 59 15 77 25 40 21 123 85 124 95 0
3 -16 12 -35 18 -19 6 -35 15 -35 18 1 4 34 43 75 87 41 44 71 83 67 86 -4 3
-31 14 -59 25 -59 20 -65 29 -27 38 41 11 125 68 163 111 19 21 52 77 74 123
45 94 43 101 -28 102 -69 1 -71 13 -9 55 113 74 192 163 234 261 l20 46 -87
-6 -88 -7 62 31 c59 29 113 79 113 104 0 6 -14 20 -30 30 -30 17 -32 36 -5 36
22 0 84 59 104 99 11 20 25 55 32 79 12 43 12 43 -25 81 l-38 39 51 17 c66 22
109 58 133 113 19 42 19 44 1 57 -10 8 -30 19 -45 26 l-27 11 64 64 c161 161
369 560 569 1093 36 96 64 176 62 178 -2 2 -221 -245 -486 -549z"/>
</g>
</svg>
