<?xml version="1.0" standalone="no"?>
<!DOCTYPE svg PUBLIC "-//W3C//DTD SVG 20010904//EN"
 "http://www.w3.org/TR/2001/REC-SVG-20010904/DTD/svg10.dtd">
<svg version="1.0" xmlns="http://www.w3.org/2000/svg"
 width="1280.000000pt" height="640.000000pt" viewBox="0 0 1280.000000 640.000000"
 preserveAspectRatio="xMidYMid meet">
<metadata>
Created by potrace 1.15, written by Peter Selinger 2001-2017
</metadata>
<g transform="translate(0.000000,640.000000) scale(0.100000,-0.100000)"
fill="#000000" stroke="none">
<path d="M2641 6284 c-21 -27 -23 -41 -41 -274 -17 -223 -31 -398 -60 -762 -5
-68 -14 -184 -20 -258 -6 -74 -15 -191 -20 -260 -23 -289 -47 -591 -60 -760
-6 -74 -15 -191 -20 -260 -18 -221 -29 -362 -40 -500 -13 -169 -37 -471 -60
-760 -5 -69 -14 -186 -20 -260 -6 -74 -15 -191 -20 -260 -18 -221 -29 -362
-40 -500 -6 -74 -15 -189 -20 -255 -5 -66 -13 -160 -17 -210 -6 -88 -7 -89
-14 -40 -4 28 -12 79 -17 115 -6 36 -20 130 -32 210 -12 80 -25 170 -30 200
-5 30 -18 120 -30 200 -12 80 -25 170 -30 200 -5 30 -18 120 -30 200 -12 80
-25 170 -30 200 -16 105 -32 205 -41 268 -5 34 -13 90 -18 125 -5 34 -15 96
-21 137 -6 41 -16 102 -20 135 -10 69 -47 314 -60 395 -5 30 -18 120 -30 200
-12 80 -25 170 -30 200 -5 30 -16 105 -25 165 -21 142 -23 149 -46 174 -25 26
-88 28 -118 4 -14 -11 -29 -45 -41 -88 -61 -232 -172 -658 -197 -760 l-15 -60
-664 3 -664 3 0 -91 0 -90 718 0 c394 0 722 4 727 8 32 23 27 7 156 506 6 21
12 36 15 34 2 -3 9 -38 14 -79 5 -41 14 -103 20 -139 6 -36 15 -96 20 -135 24
-161 36 -242 60 -395 5 -30 18 -120 30 -200 12 -80 25 -170 30 -200 5 -30 18
-120 30 -200 12 -80 25 -170 30 -200 5 -30 18 -120 30 -200 12 -80 25 -170 30
-200 16 -105 32 -205 41 -267 5 -35 13 -91 18 -125 9 -63 25 -163 41 -268 5
-30 18 -120 30 -200 12 -80 25 -170 30 -200 8 -49 36 -238 60 -405 7 -46 15
-65 35 -83 33 -28 84 -29 117 -2 28 21 33 55 58 385 6 77 15 196 20 265 6 69
15 181 20 250 5 69 14 181 20 250 5 69 14 186 20 260 6 74 15 191 20 260 6 69
15 179 20 245 17 220 30 389 40 510 5 66 14 183 20 260 6 77 15 190 20 250 5
61 14 175 20 255 6 80 15 195 20 255 5 61 14 173 20 250 6 77 15 196 21 265
15 196 27 353 39 505 11 146 21 260 42 505 14 163 15 161 38 -105 6 -71 15
-175 20 -230 14 -149 38 -406 60 -657 13 -137 27 -297 40 -440 6 -62 15 -160
20 -218 12 -128 27 -301 40 -435 5 -55 14 -158 20 -230 27 -315 32 -328 110
-327 65 1 96 39 212 257 55 104 121 228 147 275 l46 85 1303 3 1302 2 0 89 0
88 -43 39 c-71 64 -151 131 -248 207 -105 83 -100 79 -334 257 -280 213 -307
234 -375 290 -497 408 -679 678 -740 1097 -27 188 5 377 91 543 81 157 221
301 389 400 207 123 503 188 738 161 113 -12 281 -48 296 -62 6 -5 16 -9 24
-9 25 0 184 -81 261 -133 139 -93 240 -209 341 -389 30 -54 59 -96 64 -95 4 2
35 50 69 107 99 173 194 281 329 373 364 250 854 283 1252 85 286 -143 483
-382 541 -658 19 -91 19 -282 1 -380 -81 -419 -320 -711 -1016 -1238 -230
-174 -480 -373 -643 -511 l-87 -75 0 -93 0 -93 1268 -2 1267 -3 46 -85 c26
-47 92 -171 147 -275 116 -218 147 -256 212 -257 78 -1 83 12 110 327 6 72 15
175 20 230 10 102 23 243 40 433 5 59 14 158 20 220 5 61 15 162 20 222 6 61
15 160 20 220 6 61 14 158 20 218 13 145 29 316 40 437 5 55 14 159 20 230 23
266 24 268 38 105 21 -245 31 -359 42 -505 6 -77 15 -196 21 -265 15 -196 27
-353 39 -505 6 -77 15 -189 20 -250 5 -60 14 -175 20 -255 6 -80 15 -194 20
-255 5 -60 14 -173 20 -250 6 -77 15 -194 20 -260 5 -66 14 -181 20 -255 21
-267 30 -382 40 -502 5 -68 14 -184 20 -258 12 -156 25 -318 40 -510 21 -267
30 -377 40 -515 25 -330 30 -364 58 -385 33 -27 84 -26 117 3 20 17 28 36 35
82 24 167 52 356 60 405 5 30 18 120 30 200 12 80 25 170 30 200 16 105 32
205 41 268 5 34 13 90 18 125 9 62 25 162 41 267 5 30 18 120 30 200 12 80 25
170 30 200 5 30 18 120 30 200 12 80 25 170 30 200 5 30 18 120 30 200 12 80
25 170 30 200 24 153 36 234 60 395 5 39 14 99 20 135 6 36 15 98 20 139 5 41
12 76 14 79 3 2 9 -13 15 -34 129 -499 124 -483 156 -506 6 -4 297 -8 648 -8
l637 0 0 90 0 91 -584 -3 -584 -3 -15 60 c-25 102 -136 528 -197 760 -12 43
-27 77 -41 88 -30 24 -93 22 -118 -4 -23 -25 -25 -32 -46 -174 -9 -60 -20
-135 -25 -165 -5 -30 -18 -120 -30 -200 -12 -80 -25 -170 -30 -200 -13 -81
-50 -326 -60 -395 -4 -33 -14 -94 -20 -135 -6 -41 -16 -104 -21 -140 -22 -150
-36 -240 -59 -390 -5 -30 -18 -120 -30 -200 -12 -80 -25 -170 -30 -200 -5 -30
-18 -120 -30 -200 -12 -80 -25 -170 -30 -200 -5 -30 -18 -120 -30 -200 -12
-80 -26 -174 -32 -210 -5 -36 -13 -87 -17 -115 -7 -49 -8 -48 -14 40 -4 50
-12 144 -17 210 -5 66 -14 181 -20 255 -6 74 -15 190 -20 258 -6 67 -14 177
-20 245 -5 67 -14 183 -20 257 -12 156 -25 318 -40 510 -15 192 -28 354 -40
510 -6 74 -15 190 -20 258 -6 67 -14 177 -20 245 -5 67 -14 183 -20 257 -13
169 -37 471 -60 760 -5 69 -14 186 -20 260 -10 132 -19 246 -40 500 -13 167
-27 344 -40 520 -18 233 -20 247 -41 274 -27 35 -98 37 -128 5 -25 -27 -29
-45 -41 -194 -6 -66 -15 -168 -20 -227 -6 -60 -14 -157 -20 -218 -5 -60 -14
-159 -20 -220 -5 -60 -14 -159 -20 -220 -5 -60 -14 -159 -20 -220 -5 -60 -14
-159 -20 -220 -5 -61 -14 -159 -20 -220 -5 -60 -14 -159 -20 -220 -5 -61 -14
-159 -20 -220 -5 -61 -14 -160 -20 -220 -5 -61 -14 -160 -20 -220 -5 -61 -14
-160 -20 -220 -22 -238 -30 -330 -41 -445 -6 -66 -14 -158 -17 -205 l-7 -85
-46 85 c-25 47 -70 130 -98 185 -29 55 -60 111 -71 125 l-19 25 -1188 5 -1188
5 105 86 c58 47 161 130 230 183 69 53 132 102 140 109 8 7 71 55 140 107 69
52 127 97 130 100 3 3 25 21 50 40 25 19 47 37 50 40 3 3 26 22 52 43 26 21
53 43 60 50 7 7 42 37 78 67 98 83 275 265 345 355 212 272 315 548 315 845 0
295 -107 543 -329 760 -203 199 -438 316 -745 370 -89 15 -396 13 -491 -5
-308 -55 -548 -180 -753 -392 -51 -53 -96 -92 -101 -87 -4 5 -29 35 -55 66
-119 142 -337 283 -551 356 -161 55 -275 72 -481 72 -177 0 -218 -4 -352 -36
-294 -70 -569 -243 -733 -459 -97 -129 -141 -213 -185 -360 -26 -85 -28 -101
-28 -285 0 -210 8 -271 60 -425 36 -109 128 -291 181 -360 5 -5 16 -22 25 -36
9 -14 23 -32 30 -40 7 -8 31 -36 53 -64 52 -64 233 -245 315 -315 36 -30 67
-57 70 -60 3 -3 41 -34 85 -69 44 -34 89 -71 101 -81 12 -9 95 -73 185 -140
90 -68 166 -126 169 -130 3 -3 21 -17 40 -30 19 -13 37 -27 40 -30 3 -3 43
-35 90 -70 47 -35 90 -69 96 -75 6 -5 34 -28 62 -50 28 -22 51 -43 52 -47 0
-5 -545 -8 -1210 -8 l-1211 0 -22 -24 c-13 -14 -47 -71 -76 -128 -30 -57 -75
-141 -100 -188 l-46 -85 -7 85 c-3 47 -11 139 -17 205 -11 115 -19 207 -41
445 -5 60 -14 159 -20 220 -5 60 -14 160 -20 220 -5 61 -14 160 -20 220 -5 61
-14 160 -20 220 -5 61 -14 160 -20 220 -5 61 -14 160 -20 220 -5 61 -14 160
-20 220 -5 61 -14 160 -20 220 -5 61 -14 160 -20 220 -5 61 -14 160 -20 220
-5 61 -14 158 -20 218 -5 59 -14 161 -20 227 -12 149 -16 167 -41 194 -30 32
-101 30 -128 -5z"/>
</g>
</svg>
