<?xml version="1.0" standalone="no"?>
<!DOCTYPE svg PUBLIC "-//W3C//DTD SVG 20010904//EN"
 "http://www.w3.org/TR/2001/REC-SVG-20010904/DTD/svg10.dtd">
<svg version="1.0" xmlns="http://www.w3.org/2000/svg"
 width="1057.000000pt" height="1280.000000pt" viewBox="0 0 1057.000000 1280.000000"
 preserveAspectRatio="xMidYMid meet">
<metadata>
Created by potrace 1.15, written by Peter Selinger 2001-2017
</metadata>
<g transform="translate(0.000000,1280.000000) scale(0.100000,-0.100000)"
fill="#000000" stroke="none">
<path d="M1405 12782 c-315 -82 -646 -368 -721 -623 -14 -45 -31 -69 -109
-149 -361 -374 -550 -872 -571 -1515 -35 -1019 414 -2269 1141 -3175 133 -166
314 -359 449 -479 83 -75 115 -109 110 -120 -13 -34 -17 -388 -5 -506 53 -528
267 -976 616 -1287 278 -248 621 -406 998 -461 54 -8 100 -16 102 -19 11 -11
46 -170 57 -256 16 -127 1 -231 -49 -332 -48 -98 -189 -242 -323 -330 -150
-99 -424 -226 -845 -393 -555 -220 -678 -278 -898 -424 -107 -71 -254 -205
-324 -295 -53 -70 -125 -203 -153 -284 -48 -137 -55 -190 -55 -394 1 -185 2
-201 32 -317 50 -194 198 -550 311 -745 276 -476 581 -683 977 -665 204 9 404
85 632 240 343 231 601 505 1393 1472 655 800 945 1130 1307 1486 252 248 432
404 651 563 344 251 725 430 1062 498 165 33 490 33 696 0 534 -85 992 -281
1269 -544 179 -170 285 -390 285 -594 0 -59 -18 -191 -29 -211 -4 -8 -22 -1
-59 23 -207 139 -527 239 -927 290 -192 25 -634 25 -820 0 -716 -94 -1172
-351 -1224 -691 -22 -144 28 -275 152 -402 l60 -61 -44 -12 c-24 -7 -107 -37
-184 -67 -298 -117 -530 -269 -675 -441 -195 -232 -217 -505 -60 -744 286
-436 1074 -733 2115 -798 784 -49 1650 97 2193 369 610 306 795 759 474 1163
-99 124 -246 238 -444 343 -99 52 -307 139 -395 165 -24 7 -43 15 -43 17 0 2
32 52 71 111 86 130 197 353 238 482 165 513 53 994 -322 1379 -369 378 -934
619 -1667 713 -61 7 -202 13 -335 13 -249 0 -332 -10 -555 -65 -578 -144
-1159 -511 -1802 -1139 -378 -369 -646 -674 -1450 -1652 -312 -380 -466 -557
-667 -768 -531 -560 -873 -757 -1102 -635 -73 39 -214 181 -282 284 -81 124
-177 313 -252 497 -89 221 -115 321 -122 463 -5 101 -3 123 17 179 63 187 241
347 565 509 161 80 307 143 625 267 337 131 380 149 565 240 262 128 490 288
607 426 113 134 199 299 243 464 43 158 46 384 9 595 l-6 36 69 13 c237 47
522 172 729 321 441 319 736 833 818 1425 8 61 17 137 18 170 l3 60 95 49
c636 324 1197 803 1655 1411 475 632 768 1316 846 1980 15 126 15 418 -1 555
-32 293 -138 610 -285 845 -41 66 -43 74 -44 145 -2 330 -359 787 -664 850
-96 20 -165 -7 -207 -82 -22 -38 -25 -55 -24 -138 0 -76 6 -111 28 -175 94
-274 345 -564 558 -645 64 -25 90 -59 178 -235 297 -588 240 -1368 -160 -2189
-378 -777 -1029 -1491 -1755 -1925 -196 -118 -432 -231 -480 -231 -77 0 -159
-59 -193 -137 -11 -27 -23 -79 -27 -118 -11 -120 -44 -306 -70 -403 -164 -609
-597 -1002 -1192 -1082 -129 -18 -410 -8 -524 19 -284 65 -497 180 -690 371
-224 223 -355 494 -405 840 -11 76 -14 169 -12 340 2 226 2 237 -19 276 -38
72 -129 134 -197 134 -24 0 -196 152 -337 296 -787 809 -1329 2099 -1329 3164
0 607 147 1050 468 1408 l47 54 115 3 c122 3 177 16 309 76 169 77 394 272
478 417 121 205 109 362 -32 434 -56 29 -179 33 -270 10z"/>
</g>
</svg>
