<?xml version="1.0" standalone="no"?>
<!DOCTYPE svg PUBLIC "-//W3C//DTD SVG 20010904//EN"
 "http://www.w3.org/TR/2001/REC-SVG-20010904/DTD/svg10.dtd">
<svg version="1.0" xmlns="http://www.w3.org/2000/svg"
 width="1280.000000pt" height="1280.000000pt" viewBox="0 0 1280.000000 1280.000000"
 preserveAspectRatio="xMidYMid meet">
<metadata>
Created by potrace 1.15, written by Peter Selinger 2001-2017
</metadata>
<g transform="translate(0.000000,1280.000000) scale(0.100000,-0.100000)"
fill="#000000" stroke="none">
<path d="M2479 12009 c-87 -13 -312 -66 -397 -95 -284 -94 -596 -324 -786
-578 -177 -236 -246 -384 -311 -666 -19 -80 -39 -189 -44 -242 -15 -133 -15
-7896 -1 -8022 24 -209 99 -472 179 -630 105 -206 294 -437 466 -571 230 -179
389 -258 654 -325 258 -65 -91 -60 4296 -60 4372 0 4031 -5 4290 59 230 57
372 121 569 259 234 164 428 390 556 647 92 185 158 422 180 647 7 69 10 1412
7 4058 -3 3717 -4 3960 -20 4040 -73 350 -141 521 -304 752 -104 149 -224 273
-364 377 -217 163 -371 237 -609 297 -279 69 80 64 -4320 63 -2192 -1 -4010
-5 -4041 -10z m7354 -1429 c260 -30 537 -213 677 -448 57 -97 107 -225 120
-307 7 -49 10 -1075 8 -3425 l-3 -3355 -29 -75 c-102 -269 -258 -450 -481
-560 -123 -60 -177 -78 -274 -91 -50 -6 -1237 -9 -3401 -7 l-3325 3 -104 37
c-304 109 -510 316 -618 623 l-28 80 0 3390 0 3390 23 70 c57 169 135 295 254
411 91 89 164 140 272 189 101 45 166 65 244 75 103 12 6560 12 6665 0z"/>
<path d="M7295 9344 c-292 -28 -537 -150 -787 -393 l-68 -65 -52 18 c-29 10
-107 44 -173 77 -170 84 -246 103 -420 103 -167 1 -243 -17 -400 -94 -127 -62
-238 -151 -349 -276 -162 -184 -253 -344 -320 -565 -44 -148 -60 -278 -53
-438 13 -308 120 -519 446 -880 104 -116 200 -213 300 -304 l84 -77 -90 0 -89
0 -100 148 c-88 131 -103 148 -139 161 -51 17 -142 1 -183 -34 -15 -12 -57
-74 -92 -136 -36 -62 -66 -107 -67 -99 -2 8 -57 449 -123 980 -166 1326 -188
1495 -202 1525 -20 45 -71 68 -145 66 -71 -1 -115 -19 -139 -55 -19 -30 -28
-124 -54 -561 -11 -187 -40 -673 -65 -1080 -25 -407 -48 -798 -51 -870 -3 -71
-8 -137 -12 -145 -3 -8 -11 53 -18 136 -16 204 -30 228 -142 254 -111 26 -135
7 -267 -209 -44 -72 -84 -131 -88 -131 -4 0 -60 46 -125 103 -183 161 -184
162 -261 162 -65 0 -69 -2 -216 -87 -82 -49 -159 -88 -171 -88 -12 0 -33 -9
-48 -21 -26 -20 -26 -22 -26 -144 0 -122 0 -124 26 -144 53 -42 152 -20 297
65 60 35 112 64 117 64 5 0 87 -69 184 -154 192 -168 204 -175 297 -155 42 9
63 20 92 51 l37 39 0 -38 c0 -38 8 -149 35 -518 8 -110 24 -330 35 -490 11
-159 34 -481 51 -715 17 -234 31 -498 32 -587 l2 -162 29 -30 c39 -41 86 -55
162 -48 71 5 115 30 132 74 6 16 13 123 16 238 2 116 16 392 30 615 24 380 53
853 76 1245 6 94 19 319 30 500 34 567 39 647 45 770 3 66 9 136 12 155 4 22
32 -177 78 -540 40 -316 75 -594 79 -618 16 -87 86 -130 193 -117 75 9 98 36
223 260 58 103 110 195 116 203 9 12 19 3 55 -49 29 -42 60 -73 89 -89 l45
-25 353 -5 352 -5 123 -97 c717 -566 732 -578 774 -578 40 0 75 49 132 186 52
124 179 384 221 452 l20 32 140 0 c187 0 217 8 315 87 l80 64 17 -21 c10 -12
64 -97 121 -187 56 -91 118 -184 138 -207 l37 -41 85 0 c81 0 87 2 116 29 16
15 44 55 61 87 17 32 32 59 34 59 2 0 8 -69 15 -152 7 -84 23 -283 36 -443 13
-159 36 -438 50 -620 71 -911 94 -1165 107 -1191 28 -58 94 -83 183 -70 57 9
110 53 119 99 7 35 20 230 36 522 10 189 22 392 40 705 5 91 14 248 20 350 29
511 51 912 60 1065 6 94 19 327 31 520 11 192 21 350 22 351 1 2 24 -167 51
-374 87 -680 104 -800 121 -832 19 -37 52 -57 117 -69 71 -13 118 0 152 40 14
16 71 120 126 230 l101 199 59 -74 c33 -42 73 -82 89 -91 25 -12 76 -15 289
-15 162 0 271 4 290 11 43 15 55 59 51 182 -6 139 9 131 -262 137 l-222 5 -90
112 c-49 62 -104 127 -121 144 -35 34 -85 46 -158 35 -58 -9 -91 -41 -144
-142 l-40 -78 -6 34 c-6 34 -42 314 -126 965 -22 176 -47 367 -55 425 -8 58
-35 263 -60 455 -65 506 -70 534 -102 567 -67 70 -229 55 -267 -26 -18 -39
-22 -84 -56 -681 -11 -198 -29 -513 -40 -700 -11 -187 -24 -425 -30 -530 -6
-104 -15 -257 -20 -340 -5 -82 -15 -252 -21 -377 -7 -126 -15 -228 -19 -228
-4 0 -12 75 -19 168 -19 260 -31 354 -49 384 -22 37 -68 58 -144 64 -95 8
-109 -4 -205 -187 -45 -85 -92 -175 -104 -201 -13 -27 -25 -48 -28 -48 -4 0
-49 68 -101 152 -111 177 -142 212 -196 221 -106 18 -120 12 -280 -123 -52
-44 -97 -80 -100 -80 -13 0 195 227 444 482 392 403 487 523 566 718 55 135
70 229 71 425 0 239 -34 383 -139 600 -138 281 -399 520 -671 613 -118 40
-298 65 -400 56z"/>
</g>
</svg>
