<?xml version="1.0" standalone="no"?>
<!DOCTYPE svg PUBLIC "-//W3C//DTD SVG 20010904//EN"
 "http://www.w3.org/TR/2001/REC-SVG-20010904/DTD/svg10.dtd">
<svg version="1.0" xmlns="http://www.w3.org/2000/svg"
 width="891.000000pt" height="1280.000000pt" viewBox="0 0 891.000000 1280.000000"
 preserveAspectRatio="xMidYMid meet">
<metadata>
Created by potrace 1.15, written by Peter Selinger 2001-2017
</metadata>
<g transform="translate(0.000000,1280.000000) scale(0.100000,-0.100000)"
fill="#000000" stroke="none">
<path d="M5050 12794 c-61 -6 -443 -70 -555 -92 -88 -18 -91 -18 -131 1 l-41
19 -104 -26 c-140 -35 -318 -103 -453 -174 -164 -86 -200 -142 -199 -312 1
-86 22 -189 50 -245 27 -54 84 -115 125 -136 34 -17 55 -20 117 -17 67 3 89 9
175 51 126 61 293 161 393 236 81 60 154 131 137 131 -11 0 -7 130 5 142 8 9
344 72 527 99 82 12 199 22 260 23 l111 1 69 -46 c299 -200 676 -687 1011
-1304 192 -354 375 -751 562 -1222 l52 -131 -9 -77 c-8 -76 -8 -78 35 -194 49
-128 80 -249 114 -446 19 -109 23 -167 23 -355 0 -241 -10 -323 -59 -494 -122
-423 -432 -731 -891 -889 -655 -226 -1467 -42 -2344 531 -184 119 -434 307
-481 360 -20 23 -58 51 -84 64 -38 19 -74 57 -194 203 -886 1081 -1386 1964
-1358 2400 6 92 21 143 68 221 108 178 286 327 498 415 103 43 112 42 152 -11
19 -25 53 -55 76 -66 40 -20 46 -21 126 -8 174 28 406 97 557 165 102 45 109
58 109 179 1 284 -84 452 -259 510 -41 13 -47 12 -154 -24 -232 -78 -539 -238
-577 -299 -10 -18 -19 -49 -19 -69 l0 -37 -127 -66 c-173 -89 -297 -179 -424
-305 -116 -115 -192 -220 -249 -344 -48 -104 -60 -156 -60 -258 0 -238 105
-560 325 -993 411 -813 1147 -1808 2098 -2839 136 -147 134 -143 106 -213 -13
-31 -12 -32 57 -110 395 -445 956 -905 1401 -1148 282 -154 566 -254 830 -294
153 -23 455 -10 563 24 14 5 59 -71 243 -417 493 -927 803 -1527 891 -1725
230 -519 256 -1090 75 -1638 -64 -195 -198 -466 -271 -551 -172 -200 -429
-338 -756 -406 -154 -33 -449 -32 -601 1 -340 73 -576 225 -1216 781 -104 91
-246 210 -315 265 -477 382 -907 603 -1325 682 -141 27 -447 24 -585 -6 -219
-46 -353 -96 -698 -260 -353 -167 -474 -205 -652 -205 -219 0 -400 92 -621
313 -275 276 -460 679 -535 1163 -20 133 -23 369 -5 478 36 224 149 667 272
1067 77 250 78 254 33 288 -21 16 -34 34 -32 43 3 15 16 17 93 14 283 -11 590
116 784 323 114 122 207 289 252 450 27 101 38 334 19 440 -37 209 -139 403
-289 556 -311 315 -801 395 -1196 197 -147 -74 -311 -219 -398 -351 -274 -415
-220 -961 129 -1311 77 -76 172 -147 247 -182 20 -10 37 -21 37 -25 0 -4 -31
-11 -70 -15 -38 -3 -70 -11 -70 -17 0 -5 -27 -93 -59 -196 -143 -447 -249
-862 -302 -1177 -77 -463 42 -1100 298 -1594 286 -553 746 -935 1211 -1005
126 -19 208 -19 339 0 204 29 369 82 758 245 472 197 569 225 790 224 205 0
369 -38 570 -133 274 -130 502 -295 1014 -736 568 -488 808 -657 1101 -773
516 -204 1160 -167 1680 95 175 88 303 178 425 298 150 148 244 291 369 563
348 762 352 1455 13 2292 -123 306 -217 490 -794 1573 -178 335 -326 614 -329
621 -3 7 31 50 74 95 237 244 408 602 491 1031 49 254 64 439 64 755 -1 335
-23 594 -84 955 -41 249 -34 233 -102 244 -52 8 -57 11 -63 40 -4 17 -49 156
-100 311 -52 154 -94 281 -94 283 0 1 7 2 16 2 11 0 14 6 9 23 -7 21 -207 575
-220 609 -4 9 -19 21 -33 26 -21 7 -32 24 -51 73 -54 144 -200 470 -321 714
-277 562 -587 1046 -909 1420 -155 180 -460 493 -519 532 -69 45 -164 78 -265
92 -90 13 -311 21 -377 15z m2490 -4108 l33 -109 -24 -18 c-13 -10 -27 -19
-30 -19 -3 0 -9 56 -13 125 -3 68 -9 132 -12 142 -4 14 -4 15 4 3 5 -8 24 -64
42 -124z m20 -581 c78 -621 53 -1169 -71 -1548 -108 -330 -308 -575 -548 -672
-434 -177 -1089 102 -1861 794 -122 109 -393 375 -431 423 l-30 37 74 -33
c636 -290 1202 -359 1680 -205 132 42 357 157 462 236 189 141 359 341 469
553 110 213 165 394 202 675 7 49 8 47 25 -65 10 -63 23 -151 29 -195z m-3115
-880 c79 -41 83 -45 58 -51 -15 -3 -33 -7 -39 -9 -6 -2 -35 21 -65 51 -29 30
-50 54 -46 54 3 0 45 -20 92 -45z"/>
</g>
</svg>
