<?xml version="1.0" standalone="no"?>
<!DOCTYPE svg PUBLIC "-//W3C//DTD SVG 20010904//EN"
 "http://www.w3.org/TR/2001/REC-SVG-20010904/DTD/svg10.dtd">
<svg version="1.0" xmlns="http://www.w3.org/2000/svg"
 width="1280.000000pt" height="640.000000pt" viewBox="0 0 1280.000000 640.000000"
 preserveAspectRatio="xMidYMid meet">
<metadata>
Created by potrace 1.15, written by Peter Selinger 2001-2017
</metadata>
<g transform="translate(0.000000,640.000000) scale(0.100000,-0.100000)"
fill="#000000" stroke="none">
<path d="M1411 3947 c-156 -622 -287 -1140 -290 -1150 -4 -10 -26 104 -51 253
-24 148 -46 270 -49 270 -3 0 -42 -85 -87 -188 l-81 -187 -427 -3 c-418 -2
-426 -3 -426 -22 0 -20 6 -20 441 -18 l442 3 39 90 c22 50 49 110 60 135 l21
45 33 -190 c18 -104 38 -221 44 -258 11 -60 14 -68 33 -65 18 3 47 109 303
1128 155 619 285 1118 287 1110 3 -8 10 -132 16 -275 7 -143 21 -426 31 -630
24 -447 71 -1379 105 -2060 31 -621 31 -625 55 -625 10 0 20 9 23 23 3 12 63
428 133 925 70 496 130 899 134 895 4 -4 29 -63 56 -130 l48 -121 91 -7 c49
-4 265 -5 479 -3 l389 3 60 139 c34 76 63 133 66 125 3 -8 23 -122 45 -254 38
-221 43 -240 62 -243 20 -3 36 58 303 1125 155 620 284 1130 287 1132 2 2 4
-12 4 -32 0 -20 11 -254 25 -519 41 -794 44 -851 60 -1158 8 -162 26 -520 40
-795 14 -275 32 -623 40 -774 8 -151 15 -287 15 -303 0 -22 4 -28 23 -28 22 0
24 8 151 913 70 501 130 919 133 927 2 8 27 -41 55 -110 27 -69 54 -130 59
-136 10 -12 740 -20 890 -9 l96 7 58 135 c33 74 61 129 64 121 3 -7 23 -121
45 -253 64 -374 34 -441 335 762 139 554 267 1064 284 1133 l32 125 7 -115 c4
-63 16 -297 28 -520 11 -223 25 -488 30 -590 6 -102 24 -455 40 -785 17 -330
42 -814 55 -1075 14 -261 25 -488 25 -503 0 -21 5 -27 23 -27 22 0 24 7 150
907 71 500 131 917 134 927 4 13 22 -23 58 -110 l52 -129 49 -7 c85 -12 903
-7 912 6 5 6 33 68 63 138 30 70 56 128 59 128 3 0 23 -107 44 -238 47 -286
44 -272 67 -272 12 0 21 11 28 34 5 19 132 526 283 1126 249 994 274 1087 280
1043 4 -26 17 -244 28 -483 12 -239 25 -516 31 -615 11 -213 58 -1129 94
-1865 14 -289 28 -540 31 -558 7 -45 39 -45 48 0 3 18 62 433 131 923 69 489
127 891 129 892 2 2 27 -55 57 -127 l54 -131 1148 1 1148 0 33 -35 c50 -53
109 -46 141 16 29 55 -12 119 -75 119 -35 0 -80 -28 -80 -50 0 -6 -419 -10
-1143 -10 l-1144 0 -68 168 c-37 92 -73 178 -80 191 -12 24 -12 24 -18 -10 -6
-33 -206 -1444 -229 -1619 -14 -105 -28 -125 -28 -40 0 54 -108 2208 -155
3080 -8 157 -15 304 -15 328 0 37 -3 42 -23 42 -21 0 -26 -9 -49 -102 -14 -57
-144 -573 -288 -1148 -144 -575 -263 -1046 -264 -1048 -2 -1 -23 119 -47 268
-24 148 -46 270 -49 270 -3 0 -42 -85 -87 -188 l-82 -187 -451 0 -452 0 -78
190 c-43 105 -81 183 -84 175 -2 -8 -57 -388 -121 -845 -64 -456 -120 -848
-124 -870 -8 -36 -9 -37 -10 -10 -1 17 -30 599 -66 1295 -36 696 -74 1447 -85
1670 -25 520 -26 530 -50 530 -13 0 -22 -11 -28 -32 -5 -18 -134 -533 -288
-1145 -153 -612 -282 -1109 -285 -1105 -3 4 -23 115 -44 247 -21 132 -41 249
-45 259 -5 14 -29 -32 -91 -172 l-84 -192 -463 3 -464 2 -78 190 c-43 104 -81
183 -84 175 -3 -8 -55 -373 -116 -810 -61 -437 -117 -829 -124 -870 l-12 -75
-7 120 c-6 101 -123 2392 -157 3070 -16 316 -18 335 -40 335 -13 0 -22 -11
-29 -37 -6 -21 -136 -536 -288 -1145 -153 -609 -281 -1104 -284 -1100 -3 4
-23 115 -44 247 -21 132 -41 249 -45 259 -5 14 -29 -32 -91 -172 l-84 -192
-450 0 -450 0 -64 158 c-36 86 -71 172 -78 191 -8 18 -16 31 -18 29 -2 -2 -58
-386 -124 -853 -66 -468 -121 -861 -124 -875 -8 -54 -17 83 -47 695 -17 347
-40 797 -50 1000 -11 204 -29 552 -40 775 -11 223 -27 529 -35 681 -8 152 -15
290 -15 308 0 26 -4 31 -22 31 -22 0 -35 -49 -307 -1133z"/>
</g>
</svg>
