<?xml version="1.0" encoding="UTF-8"?>
<svg xmlns="http://www.w3.org/2000/svg" xmlns:xlink="http://www.w3.org/1999/xlink" width="48pt" height="48pt" viewBox="0 0 48 48" version="1.1">
<g id="surface1">
<path style=" stroke:none;fill-rule:nonzero;fill:rgb(0%,0%,0%);fill-opacity:1;" d="M 41.394531 9.125 L 32.523438 0.265625 C 32.355469 0.09375 32.125 0 31.882812 0 L 7.246094 0 C 6.746094 0 6.339844 0.40625 6.339844 0.90625 L 6.339844 47.09375 C 6.339844 47.59375 6.746094 48 7.246094 48 L 40.753906 48 C 41.253906 48 41.660156 47.59375 41.660156 47.09375 L 41.660156 9.765625 C 41.660156 9.523438 41.566406 9.292969 41.394531 9.125 Z M 38.570312 9.054688 L 32.605469 9.054688 L 32.605469 3.09375 Z M 8.152344 46.1875 L 8.152344 1.8125 L 30.792969 1.8125 L 30.792969 9.960938 C 30.792969 10.460938 31.199219 10.867188 31.699219 10.867188 L 39.847656 10.867188 L 39.847656 46.1875 Z M 8.152344 46.1875 "/>
<path style=" stroke:none;fill-rule:nonzero;fill:rgb(0%,0%,0%);fill-opacity:1;" d="M 35.320312 15.394531 L 12.679688 15.394531 C 12.179688 15.394531 11.773438 15.800781 11.773438 16.300781 L 11.773438 41.660156 C 11.773438 42.160156 12.179688 42.566406 12.679688 42.566406 L 35.320312 42.566406 C 35.820312 42.566406 36.226562 42.160156 36.226562 41.660156 L 36.226562 16.300781 C 36.226562 15.800781 35.820312 15.394531 35.320312 15.394531 Z M 34.414062 40.753906 L 13.585938 40.753906 L 13.585938 17.207031 L 34.414062 17.207031 Z M 34.414062 40.753906 "/>
<path style=" stroke:none;fill-rule:nonzero;fill:rgb(0%,0%,0%);fill-opacity:1;" d="M 24 37.132812 C 28.246094 37.132812 31.699219 33.679688 31.699219 29.433594 C 31.699219 25.1875 28.246094 21.734375 24 21.734375 C 19.753906 21.734375 16.300781 25.1875 16.300781 29.433594 C 16.300781 33.679688 19.753906 37.132812 24 37.132812 Z M 29.886719 29.433594 C 29.886719 32.679688 27.246094 35.320312 24 35.320312 C 22.804688 35.320312 21.691406 34.960938 20.761719 34.34375 L 28.578125 25.742188 C 29.394531 26.753906 29.886719 28.039062 29.886719 29.433594 Z M 24 23.546875 C 25.195312 23.546875 26.308594 23.910156 27.238281 24.523438 L 19.421875 33.125 C 18.605469 32.113281 18.113281 30.832031 18.113281 29.433594 C 18.113281 26.1875 20.753906 23.546875 24 23.546875 Z M 24 23.546875 "/>
</g>
</svg>
