<?xml version="1.0" encoding="UTF-8"?>
<svg xmlns="http://www.w3.org/2000/svg" xmlns:xlink="http://www.w3.org/1999/xlink" width="48pt" height="48pt" viewBox="0 0 48 48" version="1.1">
<g id="surface1">
<path style=" stroke:none;fill-rule:nonzero;fill:rgb(0%,0%,0%);fill-opacity:1;" d="M 28.351562 17.324219 C 26.25 13.128906 22.234375 10.050781 17.457031 9.246094 L 21.191406 5.621094 L 19.246094 1.507812 L 10.683594 1.507812 L 8.738281 5.621094 L 12.472656 9.246094 C 5.402344 10.4375 0 16.601562 0 24.003906 C 0 34.15625 9.972656 41.40625 19.640625 38.21875 C 22.15625 43.25 27.308594 46.492188 33.035156 46.492188 C 41.273438 46.492188 48 39.835938 48 31.53125 C 48 21.359375 38.054688 14.144531 28.351562 17.324219 Z M 2.824219 24.003906 C 2.824219 17.308594 8.269531 11.863281 14.964844 11.863281 C 19.660156 11.863281 23.742188 14.542969 25.761719 18.453125 C 19.746094 21.796875 16.742188 28.84375 18.621094 35.582031 C 10.816406 38.054688 2.824219 32.191406 2.824219 24.003906 Z M 21.234375 34.398438 C 19.996094 29.265625 22.1875 23.898438 26.761719 21.136719 C 28.015625 26.296875 25.773438 31.648438 21.234375 34.398438 Z M 41.621094 40.117188 C 35.800781 45.9375 25.988281 44.378906 22.230469 37.082031 C 28.328125 33.679688 31.238281 26.589844 29.375 19.960938 C 33.5625 18.640625 38.316406 19.644531 41.621094 22.949219 C 46.367188 27.691406 46.367188 35.371094 41.621094 40.117188 Z M 41.621094 40.117188 "/>
</g>
</svg>
