<?xml version="1.0" encoding="UTF-8"?>
<svg xmlns="http://www.w3.org/2000/svg" xmlns:xlink="http://www.w3.org/1999/xlink" width="48pt" height="48pt" viewBox="0 0 48 48" version="1.1">
<g id="surface1">
<path style=" stroke:none;fill-rule:nonzero;fill:rgb(0%,0%,0%);fill-opacity:1;" d="M 44.5 2 L 39.5 2 C 37.570312 2 36 3.570312 36 5.5 L 36 28.5 C 36 30.429688 37.570312 32 39.5 32 L 44.5 32 C 46.429688 32 48 30.429688 48 28.5 L 48 5.5 C 48 3.570312 46.429688 2 44.5 2 Z M 44.5 2 "/>
<path style=" stroke:none;fill-rule:nonzero;fill:rgb(0%,0%,0%);fill-opacity:1;" d="M 10.238281 1.5 C 6.339844 1.5 3.019531 4.300781 2.359375 8.140625 L 0.117188 21.140625 C -0.722656 26.039062 3.039062 30.5 7.996094 30.5 L 17.4375 30.5 C 17.4375 30.5 15.9375 33.5 15.9375 38.5 C 15.9375 44.5 20.4375 46.5 22.4375 46.5 C 24.4375 46.5 25.4375 45.5 25.4375 40.5 C 25.4375 35.746094 30.039062 31.925781 33 29.953125 L 33 5.179688 C 29.796875 3.695312 23.386719 1.5 13.4375 1.5 Z M 10.238281 1.5 "/>
</g>
</svg>
