<?xml version="1.0" encoding="UTF-8"?>
<svg xmlns="http://www.w3.org/2000/svg" xmlns:xlink="http://www.w3.org/1999/xlink" width="48pt" height="48pt" viewBox="0 0 48 48" version="1.1">
<g id="surface1">
<path style=" stroke:none;fill-rule:nonzero;fill:rgb(40%,40%,40%);fill-opacity:1;" d="M 38 16 C 40.914062 16.007812 43.402344 18.113281 43.894531 20.984375 C 44.386719 23.859375 42.746094 26.667969 40 27.648438 L 40 31 C 40 38.179688 34.179688 44 27 44 C 19.820312 44 14 38.179688 14 31 L 14 29.828125 C 8.226562 28.855469 4 23.855469 4 18 L 4 8 C 4 5.789062 5.789062 4 8 4 L 10 4 C 11.105469 4 12 4.894531 12 6 C 12 7.105469 11.105469 8 10 8 L 8 8 L 8 18 C 8 22.417969 11.582031 26 16 26 C 20.417969 26 24 22.417969 24 18 L 24 8 L 22 8 C 20.894531 8 20 7.105469 20 6 C 20 4.894531 20.894531 4 22 4 L 24 4 C 26.210938 4 28 5.789062 28 8 L 28 18 C 28 23.855469 23.773438 28.855469 18 29.828125 L 18 31 C 18 35.96875 22.03125 40 27 40 C 31.96875 40 36 35.96875 36 31 L 36 27.648438 C 33.253906 26.667969 31.613281 23.859375 32.105469 20.984375 C 32.597656 18.113281 35.085938 16.007812 38 16 Z M 38 24 C 39.105469 24 40 23.105469 40 22 C 40 20.894531 39.105469 20 38 20 C 36.894531 20 36 20.894531 36 22 C 36 23.105469 36.894531 24 38 24 Z M 38 24 "/>
</g>
</svg>
