<?xml version="1.0" encoding="UTF-8"?>
<svg xmlns="http://www.w3.org/2000/svg" xmlns:xlink="http://www.w3.org/1999/xlink" width="48pt" height="48pt" viewBox="0 0 48 48" version="1.1">
<g id="surface1">
<path style=" stroke:none;fill-rule:nonzero;fill:rgb(0%,0%,0%);fill-opacity:1;" d="M 38.128906 18.039062 L 38.128906 14.820312 L 40.066406 14.820312 L 40.066406 10.75 L 38.128906 10.75 L 38.128906 7.839844 L 33.28125 7.839844 L 33.28125 10.75 L 31.148438 10.75 L 31.148438 14.820312 L 33.28125 14.820312 L 33.28125 18.003906 C 27.660156 19.097656 23.28125 24.125 23.28125 30.144531 C 23.28125 36.960938 28.84375 42.507812 35.660156 42.507812 C 42.476562 42.507812 48 36.960938 48 30.144531 C 48 24.191406 43.75 19.207031 38.128906 18.039062 Z M 35.675781 37.660156 C 31.53125 37.660156 28.160156 34.289062 28.160156 30.144531 C 28.160156 26 31.53125 22.628906 35.675781 22.628906 C 39.820312 22.628906 43.195312 26 43.195312 30.144531 C 43.195312 34.289062 39.820312 37.660156 35.675781 37.660156 Z M 35.675781 37.660156 "/>
<path style=" stroke:none;fill-rule:nonzero;fill:rgb(0%,0%,0%);fill-opacity:1;" d="M 24.734375 17.722656 C 24.734375 10.902344 19.203125 5.359375 12.386719 5.359375 C 5.570312 5.359375 0 10.902344 0 17.722656 C 0 23.746094 4.394531 28.773438 10.015625 29.863281 L 10.015625 35.289062 L 8.429688 33.921875 L 5.820312 37.03125 L 12.46875 42.640625 L 19.316406 37.050781 L 16.710938 33.898438 L 14.863281 35.382812 L 14.863281 29.824219 C 20.484375 28.65625 24.734375 23.671875 24.734375 17.722656 Z M 4.886719 17.722656 C 4.886719 13.578125 8.257812 10.203125 12.402344 10.203125 C 16.546875 10.203125 19.921875 13.578125 19.921875 17.722656 C 19.921875 21.867188 16.546875 25.238281 12.402344 25.238281 C 8.257812 25.238281 4.886719 21.867188 4.886719 17.722656 Z M 4.886719 17.722656 "/>
</g>
</svg>
