<?xml version="1.0" encoding="utf-8"?>
<!-- Svg Vector Icons : http://www.onlinewebfonts.com/icon -->
<!DOCTYPE svg PUBLIC "-//W3C//DTD SVG 1.1//EN" "http://www.w3.org/Graphics/SVG/1.1/DTD/svg11.dtd">
<svg version="1.1" xmlns="http://www.w3.org/2000/svg" xmlns:xlink="http://www.w3.org/1999/xlink" x="0px" y="0px" viewBox="0 0 1000 1000" enable-background="new 0 0 1000 1000" xml:space="preserve">
<metadata> Svg Vector Icons : http://www.onlinewebfonts.com/icon </metadata>
<g><g transform="translate(0.000000,511.000000) scale(0.100000,-0.100000)"><path d="M130.7,3575.9C103.8,3549,100,3339.6,100,1554.4c0-1095.3,7.7-2002.3,15.4-2013.8c7.7-13.4,292.1-171,632.2-351.7c670.6-357.4,649.5-351.6,732.1-238.3l38.4,51.9L1620-1082c57.6-46.1,105.7-86.5,109.5-88.4c3.8-1.9-13.4-42.3-36.5-88.4c-59.6-111.5-61.5-297.9-1.9-411.2c78.8-151.8,238.3-257.5,393.9-257.5h84.6l11.5-126.8c11.5-161.4,82.6-282.5,213.3-363.2c86.5-51.9,109.5-57.6,255.6-57.6c149.9,0,159.5-1.9,159.5-40.4c0-65.3,53.8-199.8,105.7-269c26.9-34.6,96.1-86.5,155.6-115.3c161.4-78.8,303.6-71.1,493.8,26.9c7.7,3.8,13.5-17.3,13.5-48c1.9-217.1,290.2-438.1,522.7-399.7c126.8,23.1,188.3,55.7,378.5,209.5l180.6,147.9l50-34.6c582.2-384.3,701.4-432.4,903.1-361.3c167.2,57.6,284.4,199.9,317.1,378.6c7.7,40.3,15.4,73,19.2,73c3.8,0,38.4-13.4,74.9-28.8c38.4-15.4,109.5-28.8,159.5-28.8c253.7,0,453.5,172.9,482.3,418.9l9.6,90.3l109.5-5.8c92.2-5.8,126.8,1.9,232.5,57.6c167.2,86.5,236.3,194.1,246,382.4l7.7,130.7l101.8,21.1c224.8,46.1,368.9,203.7,388.2,424.7l11.5,117.2l299.8,267.1l297.8,265.2l84.5-144.1c144.1-244,82.6-253.7,776.3,117.2c330.5,176.8,616.8,334.4,636,351.7c30.8,26.9,32.7,148,32.7,2023.4c0,1831.2-1.9,1996.5-32.7,2025.3c-17.3,17.3-50,28.8-73,25c-69.2-13.4-2734.4-2092.6-2749.8-2146.4c-7.7-25-3.8-61.5,7.7-78.8c17.3-30.7-9.6-44.2-240.2-134.5c-217.1-84.6-270.9-98-336.3-88.4c-42.3,7.7-226.7,67.3-407.4,134.5c-382.4,142.2-547.6,186.4-699.4,188.3c-132.6,1.9-221-15.4-317.1-63.4c-65.3-34.6-86.5-36.5-278.6-15.4c-190.2,21.1-247.9,19.2-762.9-38.4c-365.1-38.4-653.3-59.6-834-59.6h-274.8l30.7,48c44.2,67.3,38.4,111.4-21.1,167.2C2767.1,1648.6,224.9,3606.6,196.1,3606.6C176.9,3606.6,146.1,3593.2,130.7,3575.9z M1479.7,2394.1c641.8-499.6,1187.5-926.2,1212.5-949.3l44.2-44.2l-305.5-505.4c-169.1-278.6-466.9-768.6-661-1087.6c-194.1-320.9-370.9-611.1-392-647.6l-40.4-67.3L820.6-632.3L301.8-355.6L296,1471.8c-1.9,1005,0,1827.4,5.8,1827.4C307.5,3299.2,837.9,2891.8,1479.7,2394.1z M9704,1471.8l-5.8-1827.4l-518.8-276.7c-284.4-151.8-518.8-272.9-520.7-270.9c-5.8,7.7-1112.6,1833.2-1252.9,2067.6c-124.9,211.4-138.3,240.2-113.4,267.1c50,48,2384.7,1865.8,2402,1865.8C9702.1,3299.2,9705.9,2476.8,9704,1471.8z M5580.3,1252.7c57.7-15.4,226.7-71.1,370.9-124.9c146-53.8,340.1-119.1,432.4-146l165.2-48l297.8,117.2c161.4,63.4,303.6,115.3,315.1,115.3c15.4,0,980-1568,1079.9-1756.3c21.1-40.4,3.8-59.6-261.3-294L7696-1137.7l-94.1,86.5C7484.6-939.8,5626.4,589.8,5565,628.2c-42.3,26.9-51.9,25-109.5-7.7c-242.1-146-415.1-186.4-791.7-188.3c-411.2-1.9-586.1,46.1-586.1,155.6c0,67.3,65.3,128.8,192.2,182.5c236.3,99.9,392,178.7,603.4,307.5c128.8,78.8,259.4,155.7,290.2,171C5236.3,1289.2,5438.1,1291.2,5580.3,1252.7z M4711.8,1216.2c0-19.2-246-155.6-390.1-215.2c-305.5-126.8-436.2-253.6-436.2-420.8c0-84.6,7.7-99.9,82.6-171c101.8-98,232.5-142.2,497.7-165.3c342-28.8,682.2,17.3,937.7,128.8c103.8,44.2,119.1,46.1,149.9,21.1c17.3-17.3,378.6-313.2,801.3-661c1147.2-941.6,1177.9-966.6,1199.1-1031.9c50-138.4-1.9-292.1-115.3-351.6c-80.7-40.4-215.2-38.4-286.3,3.8c-32.7,21.2-380.5,265.2-772.5,545.7c-392,280.5-732.1,518.8-755.2,532.3c-30.7,17.3-51.9,17.3-88.4,0c-57.6-28.8-67.3-78.8-30.8-136.4c17.3-23,367-282.5,778.2-574.5c576.5-409.3,753.3-545.7,772.5-589.9c59.6-142.2,3.8-313.2-123-372.8c-73-34.6-188.3-40.4-242.1-11.5c-19.2,9.6-338.2,234.4-709.1,499.6c-370.9,263.3-691.8,488.1-714.8,501.5c-63.4,32.7-132.6-5.8-132.6-73c0-30.7,7.7-63.4,15.4-74.9c7.7-11.5,286.3-213.3,618.8-449.6c332.4-234.4,624.5-449.7,647.6-476.6c53.8-63.4,74.9-196,44.2-270.9c-44.2-105.7-123-161.4-244-171c-128.8-7.7-74.9-42.3-870.5,526.5c-257.5,184.5-488.1,334.4-511.1,334.4c-55.7,0-88.4-44.2-80.7-109.5c5.8-46.1,71.1-99.9,466.9-382.4c426.6-303.6,463.1-336.3,497.7-417c32.7-78.8,34.6-98,13.4-171c-48-153.7-194.1-236.3-345.9-190.2c-65.3,19.2-499.6,282.5-553.4,334.3c-17.3,17.3-13.4,50,17.3,138.4c101.8,303.6-84.6,589.9-407.4,618.7l-111.4,11.5l-11.5,103.8c-15.4,134.5-67.3,236.3-159.5,311.3c-74.9,61.5-222.9,117.2-313.2,117.2c-48,0-50,5.8-51.9,105.7c-5.8,201.8-128.7,365.1-320.9,422.8c-155.6,46.1-274.8,30.7-403.5-57.7c-86.5-59.6-88.4-59.6-88.4,0c0,124.9-115.3,284.4-259.4,361.3c-55.7,28.8-111.4,40.4-201.8,40.4c-155.6,0-215.2-30.8-457.3-226.8l-180.6-146L1773.7-959c-59.6,46.1-119.1,98-132.6,113.4C1620-822.6,1716-653.5,2198.4,144l582.2,958.9l451.6,11.5c272.9,5.8,580.3,25,778.2,50c180.6,21.1,357.4,42.3,393.9,46.1C4506.2,1222,4711.8,1225.8,4711.8,1216.2z M2623-878.3c82.6-32.6,163.3-130.7,178.7-213.3c23.1-124.9-19.2-190.2-236.4-370.9c-303.6-251.7-340.1-272.9-459.3-272.9c-86.5,0-113.4,9.6-169.1,57.6c-115.3,101.8-136.4,261.3-48,372.8c51.9,67.3,434.3,376.6,516.9,418.9C2484.7-843.7,2540.4-841.8,2623-878.3z M3455.1-1208.8c140.3-67.3,203.7-261.3,124.9-384.3c-30.7-51.9-641.8-565-787.8-664.9c-69.2-46.1-224.8-46.1-297.8,1.9c-115.3,76.9-161.4,232.5-103.8,359.3c21.1,46.1,618.7,549.6,791.7,668.7C3268.7-1170.4,3359-1162.7,3455.1-1208.8z M3981.6-1771.8c140.3-73,199.8-267.1,119.1-388.1c-28.8-44.2-420.8-374.7-641.8-543.8c-138.3-103.8-342-63.4-422.7,84.6c-50,90.3-38.4,232.5,25,301.7c67.3,71.1,622.6,520.7,684.1,553.4C3818.2-1725.7,3900.9-1727.6,3981.6-1771.8z M4554.2-2311.8c132.6-80.7,184.5-282.5,98-392c-73-92.2-463.1-395.8-540-418.9c-99.9-28.8-205.6,3.8-282.5,90.3c-50,57.7-59.6,84.6-59.6,163.3c0,51.9,9.6,117.2,23.1,144.1c19.2,44.2,411.2,376.6,505.4,428.5C4360.1-2261.8,4485-2269.5,4554.2-2311.8z"/></g></g>
</svg>