<?xml version="1.0" encoding="UTF-8"?>
<svg xmlns="http://www.w3.org/2000/svg" xmlns:xlink="http://www.w3.org/1999/xlink" width="48pt" height="47pt" viewBox="0 0 48 47" version="1.1">
<g id="surface1">
<path style=" stroke:none;fill-rule:evenodd;fill:rgb(0%,0%,0%);fill-opacity:1;" d="M 25.941406 40.585938 L 34.5 40.585938 C 35.1875 39.898438 35.941406 39.1875 36.707031 38.460938 C 38.3125 36.933594 39.988281 35.34375 41.710938 33.351562 C 43.679688 31.074219 43.890625 30.285156 44.488281 28.054688 C 44.601562 27.636719 44.726562 27.164062 44.890625 26.582031 L 45.914062 22.972656 L 45.925781 22.929688 C 46.472656 21.324219 46.515625 20.261719 46.289062 19.648438 C 46.21875 19.460938 46.128906 19.335938 46.023438 19.269531 C 45.941406 19.214844 45.832031 19.195312 45.71875 19.207031 C 45.453125 19.234375 45.152344 19.402344 44.878906 19.703125 L 41.839844 26.96875 C 41.8125 27.035156 41.773438 27.097656 41.730469 27.152344 C 41.550781 27.480469 41.308594 27.796875 40.996094 28.097656 L 35.605469 34.132812 C 35.3125 34.460938 34.808594 34.488281 34.484375 34.195312 C 34.15625 33.902344 34.128906 33.394531 34.421875 33.070312 L 39.816406 27.035156 C 39.839844 27.007812 39.863281 26.980469 39.890625 26.957031 C 40.449219 26.425781 40.625 25.847656 40.527344 25.429688 C 40.496094 25.300781 40.441406 25.191406 40.363281 25.117188 C 40.289062 25.042969 40.191406 25 40.070312 24.988281 C 39.589844 24.9375 38.882812 25.296875 38.019531 26.320312 C 37.996094 26.347656 37.96875 26.375 37.941406 26.402344 L 35.851562 28.25 L 35.839844 28.261719 C 33.578125 30.410156 32.605469 30.921875 30.832031 31.851562 C 30.460938 32.046875 30.054688 32.257812 29.550781 32.53125 C 29.351562 32.644531 29.15625 32.777344 28.964844 32.921875 C 28.761719 33.078125 28.566406 33.238281 28.382812 33.394531 C 27.445312 34.1875 26.953125 34.832031 26.671875 35.539062 C 26.378906 36.277344 26.273438 37.175781 26.128906 38.40625 C 26.070312 38.902344 26.027344 39.394531 25.992188 39.882812 C 25.964844 40.117188 25.953125 40.355469 25.941406 40.585938 Z M 23.839844 4.617188 C 25.957031 2.398438 27.441406 0.484375 30.710938 0.105469 C 36.84375 -0.597656 42.484375 5.699219 39.386719 11.902344 C 38.808594 13.0625 37.835938 14.367188 36.675781 15.707031 L 36.675781 15.542969 L 28.738281 15.542969 L 28.457031 15.832031 L 27.1875 17.144531 L 24.574219 12.105469 L 23.707031 10.433594 L 22.875 12.125 L 20.507812 16.953125 L 18.160156 13.535156 L 17.335938 12.335938 L 16.570312 13.578125 L 15.46875 15.359375 L 10.636719 15.359375 C 8.992188 13.097656 7.839844 10.648438 7.746094 8.007812 C 7.570312 3.171875 11.371094 0.0742188 15.746094 0.132812 C 19.652344 0.183594 21.292969 2.136719 23.839844 4.617188 Z M 35.082031 17.457031 C 34.964844 17.582031 34.84375 17.710938 34.722656 17.835938 C 32.542969 20.097656 30.132812 22.316406 28.445312 23.996094 L 23.839844 28.585938 L 20.035156 24.90625 C 17.714844 22.664062 14.65625 20.132812 12.171875 17.277344 L 16.523438 17.277344 L 16.804688 16.824219 L 17.417969 15.824219 L 19.859375 19.378906 L 20.777344 20.714844 L 21.492188 19.257812 L 23.746094 14.667969 L 26.101562 19.207031 L 26.710938 20.382812 L 27.628906 19.433594 L 29.535156 17.460938 Z M 22.058594 40.585938 L 13.496094 40.585938 C 12.808594 39.898438 12.054688 39.1875 11.289062 38.460938 C 9.683594 36.933594 8.007812 35.34375 6.285156 33.351562 C 4.316406 31.074219 4.105469 30.285156 3.507812 28.054688 C 3.394531 27.636719 3.269531 27.164062 3.105469 26.582031 L 2.082031 22.972656 L 2.070312 22.929688 C 1.523438 21.324219 1.480469 20.261719 1.707031 19.648438 C 1.777344 19.460938 1.867188 19.335938 1.972656 19.269531 C 2.054688 19.214844 2.164062 19.195312 2.277344 19.207031 C 2.542969 19.234375 2.84375 19.402344 3.117188 19.703125 L 6.15625 26.96875 C 6.183594 27.035156 6.222656 27.097656 6.265625 27.152344 C 6.445312 27.480469 6.6875 27.796875 7 28.097656 L 12.390625 34.132812 C 12.683594 34.460938 13.1875 34.488281 13.511719 34.195312 C 13.839844 33.902344 13.867188 33.394531 13.574219 33.070312 L 8.1875 27.027344 C 8.164062 27 8.140625 26.972656 8.113281 26.949219 C 7.554688 26.417969 7.378906 25.839844 7.476562 25.421875 C 7.507812 25.292969 7.5625 25.183594 7.640625 25.105469 C 7.714844 25.035156 7.8125 24.992188 7.933594 24.980469 C 8.414062 24.929688 9.125 25.289062 9.984375 26.3125 C 9.984375 26.3125 10.058594 26.386719 10.066406 26.394531 L 12.15625 28.242188 L 12.167969 28.253906 C 14.429688 30.402344 15.402344 30.914062 17.175781 31.84375 C 17.546875 32.039062 17.953125 32.25 18.457031 32.523438 C 18.65625 32.632812 18.851562 32.769531 19.042969 32.914062 C 19.246094 33.070312 19.441406 33.230469 19.625 33.386719 C 20.5625 34.179688 21.054688 34.824219 21.335938 35.53125 C 21.628906 36.269531 21.734375 37.167969 21.878906 38.398438 C 21.9375 38.894531 21.980469 39.386719 22.015625 39.875 C 22.035156 40.117188 22.046875 40.355469 22.058594 40.585938 Z M 11.503906 40.859375 C 11.382812 41 11.308594 41.183594 11.308594 41.386719 L 11.308594 46.144531 C 11.308594 46.585938 11.667969 46.945312 12.105469 46.945312 L 22.878906 46.945312 C 23.320312 46.945312 23.675781 46.582031 23.675781 46.144531 L 23.675781 41.339844 C 23.675781 40.828125 23.644531 40.28125 23.609375 39.769531 C 23.574219 39.25 23.527344 38.730469 23.46875 38.21875 C 23.3125 36.871094 23.195312 35.890625 22.820312 34.945312 C 22.433594 33.976562 21.8125 33.140625 20.660156 32.164062 C 20.449219 31.984375 20.234375 31.804688 20.007812 31.636719 C 19.769531 31.453125 19.511719 31.28125 19.222656 31.121094 C 18.753906 30.867188 18.316406 30.636719 17.917969 30.421875 C 16.277344 29.5625 15.378906 29.089844 13.265625 27.082031 C 13.25 27.066406 13.230469 27.050781 13.214844 27.039062 L 11.175781 25.234375 C 9.929688 23.769531 8.710938 23.285156 7.777344 23.386719 L 7.773438 23.386719 C 7.316406 23.433594 6.925781 23.613281 6.613281 23.886719 L 4.554688 18.964844 L 4.550781 18.964844 C 4.519531 18.894531 4.480469 18.828125 4.429688 18.765625 C 3.855469 18.085938 3.132812 17.6875 2.4375 17.617188 C 1.964844 17.566406 1.507812 17.671875 1.109375 17.929688 C 0.730469 18.175781 0.417969 18.558594 0.222656 19.089844 C -0.121094 20.011719 -0.113281 21.441406 0.558594 23.421875 L 1.574219 27.007812 C 1.722656 27.527344 1.851562 28.023438 1.972656 28.464844 C 2.636719 30.953125 2.871094 31.835938 5.085938 34.390625 C 6.839844 36.417969 8.554688 38.050781 10.203125 39.609375 C 10.636719 40.027344 11.066406 40.4375 11.503906 40.859375 Z M 13.027344 42.183594 C 13.132812 42.207031 13.242188 42.207031 13.351562 42.183594 L 22.078125 42.183594 L 22.078125 45.34375 L 12.902344 45.34375 L 12.902344 42.183594 Z M 36.496094 40.859375 C 36.617188 41 36.691406 41.183594 36.691406 41.386719 L 36.691406 46.144531 C 36.691406 46.585938 36.335938 46.945312 35.894531 46.945312 L 25.125 46.945312 C 24.683594 46.945312 24.328125 46.582031 24.328125 46.144531 L 24.328125 41.339844 C 24.328125 41.3125 24.328125 41.28125 24.332031 41.253906 C 24.34375 40.738281 24.363281 40.242188 24.394531 39.769531 C 24.429688 39.25 24.476562 38.730469 24.535156 38.21875 C 24.691406 36.871094 24.808594 35.890625 25.183594 34.945312 C 25.570312 33.976562 26.191406 33.140625 27.34375 32.164062 C 27.554688 31.984375 27.769531 31.804688 27.996094 31.636719 C 28.234375 31.453125 28.492188 31.28125 28.78125 31.121094 C 29.25 30.867188 29.6875 30.636719 30.085938 30.421875 C 31.726562 29.5625 32.625 29.089844 34.738281 27.082031 C 34.753906 27.066406 34.773438 27.050781 34.789062 27.039062 L 36.828125 25.234375 C 38.074219 23.769531 39.292969 23.285156 40.226562 23.386719 L 40.230469 23.386719 C 40.6875 23.433594 41.078125 23.613281 41.390625 23.886719 L 43.449219 18.964844 L 43.453125 18.964844 C 43.484375 18.894531 43.523438 18.828125 43.574219 18.765625 C 44.144531 18.078125 44.867188 17.679688 45.558594 17.609375 C 46.03125 17.558594 46.488281 17.664062 46.886719 17.921875 C 47.265625 18.167969 47.578125 18.550781 47.773438 19.082031 C 48.117188 20.003906 48.109375 21.433594 47.4375 23.414062 L 46.421875 27 C 46.273438 27.519531 46.144531 28.015625 46.023438 28.457031 C 45.359375 30.945312 45.125 31.828125 42.910156 34.382812 C 41.15625 36.410156 39.441406 38.042969 37.792969 39.601562 C 37.363281 40.027344 36.933594 40.4375 36.496094 40.859375 Z M 34.972656 42.183594 C 34.867188 42.207031 34.757812 42.207031 34.648438 42.183594 L 25.921875 42.183594 L 25.921875 45.34375 L 35.097656 45.34375 L 35.097656 42.183594 Z M 34.972656 42.183594 "/>
</g>
</svg>
