<?xml version="1.0" encoding="UTF-8"?>
<svg xmlns="http://www.w3.org/2000/svg" xmlns:xlink="http://www.w3.org/1999/xlink" width="48pt" height="48pt" viewBox="0 0 48 48" version="1.1">
<g id="surface1">
<path style=" stroke:none;fill-rule:nonzero;fill:rgb(0%,0%,0%);fill-opacity:1;" d="M 36.71875 9.359375 L 36.71875 9.28125 C 36.640625 9.199219 36.640625 9.121094 36.558594 9.039062 L 27.761719 0.238281 C 27.679688 0.160156 27.601562 0.160156 27.519531 0.078125 L 27.441406 0.078125 C 27.359375 0.078125 27.28125 0 27.199219 0 L 0.800781 0 C 0.320312 0 0 0.320312 0 0.800781 L 0 47.199219 C 0 47.679688 0.320312 48 0.800781 48 L 36 48 C 36.480469 48 36.800781 47.679688 36.800781 47.199219 L 36.800781 9.601562 C 36.800781 9.519531 36.800781 9.441406 36.71875 9.359375 Z M 34.078125 8.800781 L 28 8.800781 L 28 2.71875 Z M 1.601562 46.398438 L 1.601562 1.601562 L 26.398438 1.601562 L 26.398438 9.601562 C 26.398438 10.078125 26.71875 10.398438 27.199219 10.398438 L 35.199219 10.398438 L 35.199219 46.398438 Z M 1.601562 46.398438 "/>
<path style=" stroke:none;fill-rule:nonzero;fill:rgb(0%,0%,0%);fill-opacity:1;" d="M 47.199219 30.398438 L 47.199219 8.800781 C 47.199219 8.558594 47.121094 8.398438 47.039062 8.238281 L 44.71875 2.160156 C 44.640625 1.921875 44.320312 1.679688 44 1.679688 C 43.679688 1.679688 43.359375 1.839844 43.28125 2.160156 L 40.960938 8.238281 C 40.878906 8.398438 40.800781 8.558594 40.800781 8.800781 L 40.800781 30.398438 C 40.320312 30.398438 40 30.71875 40 31.199219 L 40 47.199219 C 40 47.679688 40.320312 48 40.800781 48 L 47.199219 48 C 47.679688 48 48 47.679688 48 47.199219 L 48 31.199219 C 48 30.71875 47.679688 30.398438 47.199219 30.398438 Z M 43.921875 4.640625 L 45.199219 8 L 42.71875 8 Z M 42.398438 9.601562 L 45.601562 9.601562 L 45.601562 30.398438 L 44.800781 30.398438 L 44.800781 17.601562 L 43.199219 17.601562 L 43.199219 30.398438 L 42.398438 30.398438 Z M 41.601562 32 L 43.199219 32 L 43.199219 46.398438 L 41.601562 46.398438 Z M 46.398438 46.398438 L 44.800781 46.398438 L 44.800781 32 L 46.398438 32 Z M 46.398438 46.398438 "/>
<path style=" stroke:none;fill-rule:nonzero;fill:rgb(0%,0%,0%);fill-opacity:1;" d="M 6.398438 10.398438 L 8 10.398438 L 8 8 L 10.398438 8 L 10.398438 6.398438 L 8 6.398438 L 8 4 L 6.398438 4 L 6.398438 6.398438 L 4 6.398438 L 4 8 L 6.398438 8 Z M 6.398438 10.398438 "/>
<path style=" stroke:none;fill-rule:nonzero;fill:rgb(0%,0%,0%);fill-opacity:1;" d="M 12.800781 4.800781 L 17.601562 4.800781 L 17.601562 6.398438 L 12.800781 6.398438 Z M 12.800781 4.800781 "/>
<path style=" stroke:none;fill-rule:nonzero;fill:rgb(0%,0%,0%);fill-opacity:1;" d="M 12.800781 8 L 20.800781 8 L 20.800781 9.601562 L 12.800781 9.601562 Z M 12.800781 8 "/>
<path style=" stroke:none;fill-rule:nonzero;fill:rgb(0%,0%,0%);fill-opacity:1;" d="M 21.601562 39.199219 L 32.800781 39.199219 L 32.800781 40.800781 L 21.601562 40.800781 Z M 21.601562 39.199219 "/>
<path style=" stroke:none;fill-rule:nonzero;fill:rgb(0%,0%,0%);fill-opacity:1;" d="M 21.601562 42.398438 L 23.199219 42.398438 L 23.199219 44 L 21.601562 44 Z M 21.601562 42.398438 "/>
<path style=" stroke:none;fill-rule:nonzero;fill:rgb(0%,0%,0%);fill-opacity:1;" d="M 24.800781 42.398438 L 26.398438 42.398438 L 26.398438 44 L 24.800781 44 Z M 24.800781 42.398438 "/>
<path style=" stroke:none;fill-rule:nonzero;fill:rgb(0%,0%,0%);fill-opacity:1;" d="M 28 42.398438 L 29.601562 42.398438 L 29.601562 44 L 28 44 Z M 28 42.398438 "/>
<path style=" stroke:none;fill-rule:nonzero;fill:rgb(0%,0%,0%);fill-opacity:1;" d="M 31.199219 42.398438 L 32.800781 42.398438 L 32.800781 44 L 31.199219 44 Z M 31.199219 42.398438 "/>
<path style=" stroke:none;fill-rule:nonzero;fill:rgb(0%,0%,0%);fill-opacity:1;" d="M 4 14.398438 L 23.199219 14.398438 L 23.199219 16 L 4 16 Z M 4 14.398438 "/>
<path style=" stroke:none;fill-rule:nonzero;fill:rgb(0%,0%,0%);fill-opacity:1;" d="M 4 19.199219 L 32.800781 19.199219 L 32.800781 20.800781 L 4 20.800781 Z M 4 19.199219 "/>
<path style=" stroke:none;fill-rule:nonzero;fill:rgb(0%,0%,0%);fill-opacity:1;" d="M 4 24 L 32.800781 24 L 32.800781 25.601562 L 4 25.601562 Z M 4 24 "/>
<path style=" stroke:none;fill-rule:nonzero;fill:rgb(0%,0%,0%);fill-opacity:1;" d="M 4 28.800781 L 32.800781 28.800781 L 32.800781 30.398438 L 4 30.398438 Z M 4 28.800781 "/>
<path style=" stroke:none;fill-rule:nonzero;fill:rgb(0%,0%,0%);fill-opacity:1;" d="M 4 33.601562 L 32.800781 33.601562 L 32.800781 35.199219 L 4 35.199219 Z M 4 33.601562 "/>
</g>
</svg>
