<?xml version="1.0" encoding="UTF-8"?>
<svg xmlns="http://www.w3.org/2000/svg" xmlns:xlink="http://www.w3.org/1999/xlink" width="48pt" height="48pt" viewBox="0 0 48 48" version="1.1">
<g id="surface1">
<path style=" stroke:none;fill-rule:nonzero;fill:rgb(0%,0%,0%);fill-opacity:1;" d="M 10.816406 20.390625 C 11.226562 19.703125 11.441406 18.917969 11.441406 18.097656 C 11.441406 15.617188 9.425781 13.601562 6.945312 13.601562 C 4.464844 13.601562 2.449219 15.617188 2.449219 18.097656 C 2.449219 18.925781 2.667969 19.71875 3.085938 20.40625 C 1.085938 21.230469 0 22.71875 0 24.675781 L 0 27.28125 C 0 27.667969 0.316406 27.984375 0.703125 27.984375 C 1.09375 27.984375 1.410156 27.667969 1.410156 27.28125 L 1.410156 24.675781 C 1.410156 23.070312 2.425781 21.980469 4.425781 21.441406 C 4.667969 21.375 4.859375 21.1875 4.925781 20.945312 C 4.988281 20.703125 4.921875 20.445312 4.746094 20.265625 C 4.171875 19.683594 3.855469 18.914062 3.855469 18.097656 C 3.855469 16.394531 5.242188 15.011719 6.945312 15.011719 C 8.648438 15.011719 10.035156 16.394531 10.035156 18.097656 C 10.035156 18.910156 9.722656 19.675781 9.15625 20.257812 C 8.980469 20.433594 8.914062 20.695312 8.980469 20.9375 C 9.046875 21.175781 9.234375 21.367188 9.476562 21.429688 C 11.507812 21.964844 12.535156 23.058594 12.535156 24.675781 L 12.535156 32.789062 C 12.535156 33.238281 12.171875 33.605469 11.722656 33.605469 C 11.269531 33.605469 10.90625 33.238281 10.90625 32.789062 L 10.90625 25.167969 C 10.90625 24.777344 10.589844 24.460938 10.199219 24.460938 C 9.8125 24.460938 9.496094 24.777344 9.496094 25.167969 L 9.496094 41.910156 C 9.496094 42.410156 9.089844 42.820312 8.585938 42.820312 C 8.085938 42.820312 7.675781 42.410156 7.675781 41.910156 L 7.675781 32.917969 C 7.675781 32.527344 7.363281 32.214844 6.972656 32.214844 C 6.582031 32.214844 6.269531 32.527344 6.269531 32.917969 L 6.269531 41.910156 C 6.269531 42.410156 5.859375 42.820312 5.359375 42.820312 C 4.859375 42.820312 4.449219 42.410156 4.449219 41.910156 L 4.449219 25.167969 C 4.449219 24.777344 4.132812 24.460938 3.746094 24.460938 C 3.355469 24.460938 3.039062 24.777344 3.039062 25.167969 L 3.039062 32.789062 C 3.039062 33.238281 2.675781 33.605469 2.226562 33.605469 C 1.773438 33.605469 1.410156 33.238281 1.410156 32.789062 L 1.410156 30.097656 C 1.410156 29.710938 1.09375 29.394531 0.703125 29.394531 C 0.316406 29.394531 0 29.710938 0 30.097656 L 0 32.789062 C 0 34.015625 1 35.011719 2.226562 35.011719 C 2.511719 35.011719 2.789062 34.957031 3.039062 34.859375 L 3.039062 41.910156 C 3.039062 43.1875 4.082031 44.230469 5.359375 44.230469 C 5.984375 44.230469 6.554688 43.980469 6.972656 43.574219 C 7.390625 43.980469 7.960938 44.230469 8.585938 44.230469 C 9.863281 44.230469 10.90625 43.1875 10.90625 41.910156 L 10.90625 34.859375 C 11.15625 34.957031 11.433594 35.011719 11.722656 35.011719 C 12.949219 35.011719 13.945312 34.015625 13.945312 32.789062 L 13.945312 24.675781 C 13.945312 22.703125 12.84375 21.207031 10.816406 20.390625 Z M 10.816406 20.390625 "/>
<path style=" stroke:none;fill-rule:nonzero;fill:rgb(0%,0%,0%);fill-opacity:1;" d="M 27.292969 11.234375 C 27.765625 10.46875 28.019531 9.585938 28.019531 8.667969 C 28.019531 5.96875 25.824219 3.769531 23.125 3.769531 C 20.425781 3.769531 18.230469 5.96875 18.230469 8.667969 C 18.230469 9.59375 18.484375 10.484375 18.96875 11.253906 C 16.738281 12.144531 15.523438 13.777344 15.523438 15.933594 L 15.523438 28.28125 C 15.523438 29.59375 16.59375 30.664062 17.90625 30.664062 C 18.253906 30.664062 18.585938 30.589844 18.882812 30.457031 L 18.882812 41.742188 C 18.882812 43.113281 20 44.230469 21.371094 44.230469 C 22.070312 44.230469 22.703125 43.9375 23.15625 43.472656 C 23.605469 43.9375 24.238281 44.230469 24.9375 44.230469 C 26.308594 44.230469 27.425781 43.113281 27.425781 41.742188 L 27.425781 38.183594 C 27.425781 37.792969 27.109375 37.476562 26.722656 37.476562 C 26.332031 37.476562 26.015625 37.792969 26.015625 38.183594 L 26.015625 41.742188 C 26.015625 42.335938 25.53125 42.820312 24.9375 42.820312 C 24.34375 42.820312 23.859375 42.335938 23.859375 41.742188 L 23.859375 28.421875 C 23.859375 28.035156 23.542969 27.71875 23.15625 27.71875 C 22.765625 27.71875 22.449219 28.035156 22.449219 28.421875 L 22.449219 41.742188 C 22.449219 42.335938 21.964844 42.820312 21.371094 42.820312 C 20.777344 42.820312 20.292969 42.335938 20.292969 41.742188 L 20.292969 16.476562 C 20.292969 16.085938 19.976562 15.773438 19.585938 15.773438 C 19.199219 15.773438 18.882812 16.085938 18.882812 16.476562 L 18.882812 28.28125 C 18.882812 28.816406 18.445312 29.253906 17.90625 29.253906 C 17.371094 29.253906 16.933594 28.816406 16.933594 28.28125 L 16.933594 15.933594 C 16.933594 14.121094 18.074219 12.894531 20.320312 12.289062 C 20.5625 12.222656 20.753906 12.035156 20.820312 11.792969 C 20.882812 11.550781 20.816406 11.292969 20.640625 11.113281 C 19.992188 10.457031 19.636719 9.585938 19.636719 8.667969 C 19.636719 6.746094 21.203125 5.179688 23.125 5.179688 C 25.046875 5.179688 26.609375 6.746094 26.609375 8.667969 C 26.609375 9.582031 26.257812 10.445312 25.617188 11.101562 C 25.441406 11.28125 25.375 11.539062 25.441406 11.78125 C 25.507812 12.023438 25.699219 12.210938 25.941406 12.277344 C 28.21875 12.878906 29.375 14.109375 29.375 15.933594 L 29.375 28.28125 C 29.375 28.816406 28.9375 29.253906 28.402344 29.253906 C 27.863281 29.253906 27.425781 28.816406 27.425781 28.28125 L 27.425781 16.476562 C 27.425781 16.085938 27.109375 15.773438 26.71875 15.773438 C 26.332031 15.773438 26.015625 16.085938 26.015625 16.476562 L 26.015625 35.363281 C 26.015625 35.753906 26.332031 36.066406 26.71875 36.066406 C 27.109375 36.066406 27.425781 35.753906 27.425781 35.363281 L 27.425781 30.457031 C 27.722656 30.589844 28.054688 30.664062 28.402344 30.664062 C 29.714844 30.664062 30.785156 29.59375 30.785156 28.28125 L 30.785156 15.933594 C 30.785156 13.761719 29.554688 12.117188 27.292969 11.234375 Z M 27.292969 11.234375 "/>
<path style=" stroke:none;fill-rule:nonzero;fill:rgb(0%,0%,0%);fill-opacity:1;" d="M 44.507812 15.460938 C 44.980469 14.695312 45.234375 13.8125 45.234375 12.894531 C 45.234375 10.195312 43.039062 8 40.339844 8 C 37.640625 8 35.441406 10.195312 35.441406 12.894531 C 35.441406 13.820312 35.699219 14.710938 36.179688 15.480469 C 33.949219 16.371094 32.738281 18.003906 32.738281 20.164062 L 32.738281 22.757812 C 32.738281 23.144531 33.054688 23.460938 33.441406 23.460938 C 33.832031 23.460938 34.148438 23.144531 34.148438 22.757812 L 34.148438 20.164062 C 34.148438 18.347656 35.289062 17.121094 37.535156 16.515625 C 37.777344 16.449219 37.96875 16.261719 38.035156 16.019531 C 38.097656 15.777344 38.03125 15.519531 37.855469 15.339844 C 37.207031 14.683594 36.851562 13.816406 36.851562 12.894531 C 36.851562 10.972656 38.417969 9.40625 40.339844 9.40625 C 42.261719 9.40625 43.824219 10.972656 43.824219 12.894531 C 43.824219 13.808594 43.472656 14.671875 42.832031 15.328125 C 42.65625 15.507812 42.589844 15.765625 42.65625 16.007812 C 42.722656 16.25 42.914062 16.4375 43.15625 16.503906 C 45.433594 17.105469 46.589844 18.335938 46.589844 20.164062 L 46.589844 25.742188 C 46.589844 26.28125 46.152344 26.71875 45.617188 26.71875 C 45.078125 26.71875 44.640625 26.28125 44.640625 25.742188 L 44.640625 20.703125 C 44.640625 20.3125 44.324219 20 43.9375 20 C 43.546875 20 43.230469 20.3125 43.230469 20.703125 L 43.230469 41.742188 C 43.230469 42.335938 42.746094 42.820312 42.152344 42.820312 C 41.558594 42.820312 41.074219 42.335938 41.074219 41.742188 L 41.074219 31.804688 C 41.074219 31.414062 40.757812 31.101562 40.367188 31.101562 C 39.980469 31.101562 39.664062 31.414062 39.664062 31.804688 L 39.664062 41.742188 C 39.664062 42.335938 39.179688 42.820312 38.585938 42.820312 C 37.992188 42.820312 37.507812 42.335938 37.507812 41.742188 L 37.507812 20.703125 C 37.507812 20.3125 37.191406 20 36.800781 20 C 36.414062 20 36.097656 20.3125 36.097656 20.703125 L 36.097656 29.125 C 36.097656 29.664062 35.660156 30.101562 35.121094 30.101562 C 34.585938 30.101562 34.148438 29.664062 34.148438 29.125 L 34.148438 25.574219 C 34.148438 25.1875 33.832031 24.871094 33.441406 24.871094 C 33.054688 24.871094 32.738281 25.1875 32.738281 25.574219 L 32.738281 29.125 C 32.738281 30.441406 33.808594 31.507812 35.121094 31.507812 C 35.46875 31.507812 35.800781 31.433594 36.097656 31.300781 L 36.097656 41.742188 C 36.097656 43.113281 37.214844 44.230469 38.585938 44.230469 C 39.285156 44.230469 39.917969 43.9375 40.367188 43.472656 C 40.820312 43.9375 41.453125 44.230469 42.152344 44.230469 C 43.523438 44.230469 44.640625 43.113281 44.640625 41.742188 L 44.640625 27.917969 C 44.9375 28.054688 45.269531 28.128906 45.617188 28.128906 C 45.625 28.128906 45.636719 28.128906 45.644531 28.128906 L 45.644531 43.523438 C 45.644531 43.914062 45.960938 44.230469 46.347656 44.230469 C 46.738281 44.230469 47.054688 43.914062 47.054688 43.523438 L 47.054688 27.644531 C 47.628906 27.207031 48 26.519531 48 25.742188 L 48 20.164062 C 48 17.988281 46.769531 16.347656 44.507812 15.460938 Z M 44.507812 15.460938 "/>
</g>
</svg>
