<?xml version="1.0" encoding="UTF-8"?>
<svg xmlns="http://www.w3.org/2000/svg" xmlns:xlink="http://www.w3.org/1999/xlink" width="48pt" height="48pt" viewBox="0 0 48 48" version="1.1">
<g id="surface1">
<path style=" stroke:none;fill-rule:nonzero;fill:rgb(100%,72.941176%,30.196078%);fill-opacity:1;" d="M 38.316406 8.082031 L 9.683594 8.082031 C 7.8125 8.082031 6.300781 9.597656 6.300781 11.464844 L 6.300781 43.914062 C 6.300781 45.78125 7.8125 47.296875 9.683594 47.296875 L 38.316406 47.296875 C 40.1875 47.296875 41.699219 45.78125 41.699219 43.914062 L 41.699219 11.464844 C 41.699219 9.597656 40.1875 8.082031 38.316406 8.082031 Z M 38.316406 8.082031 "/>
<path style=" stroke:none;fill-rule:nonzero;fill:rgb(98.039216%,63.921569%,18.823529%);fill-opacity:1;" d="M 10.578125 8.082031 L 10.578125 12.167969 C 10.578125 14.496094 12.472656 16.390625 14.800781 16.390625 L 33.199219 16.390625 C 35.527344 16.390625 37.421875 14.496094 37.421875 12.167969 L 37.421875 8.082031 Z M 10.578125 8.082031 "/>
<path style=" stroke:none;fill-rule:nonzero;fill:rgb(94.117647%,94.117647%,94.117647%);fill-opacity:1;" d="M 9.683594 44.066406 C 9.597656 44.066406 9.527344 44 9.527344 43.914062 L 9.527344 11.464844 C 9.527344 11.382812 9.597656 11.3125 9.683594 11.3125 L 38.316406 11.3125 C 38.402344 11.3125 38.472656 11.382812 38.472656 11.464844 L 38.472656 43.914062 C 38.472656 44 38.402344 44.066406 38.316406 44.066406 Z M 9.683594 44.066406 "/>
<path style=" stroke:none;fill-rule:nonzero;fill:rgb(85.098039%,85.098039%,85.098039%);fill-opacity:1;" d="M 10.578125 11.3125 L 10.578125 12.167969 C 10.578125 14.496094 12.472656 16.390625 14.800781 16.390625 L 33.199219 16.390625 C 35.527344 16.390625 37.421875 14.496094 37.421875 12.167969 L 37.421875 11.3125 C 37.421875 11.3125 10.578125 11.3125 10.578125 11.3125 Z M 10.578125 11.3125 "/>
<path style=" stroke:none;fill-rule:nonzero;fill:rgb(73.72549%,73.72549%,73.72549%);fill-opacity:1;" d="M 33.199219 4.863281 L 28.160156 4.863281 C 28.160156 2.566406 26.296875 0.703125 24 0.703125 C 21.703125 0.703125 19.839844 2.566406 19.839844 4.863281 L 14.800781 4.863281 C 14.019531 4.863281 13.390625 5.496094 13.390625 6.273438 L 13.390625 12.167969 C 13.390625 12.945312 14.019531 13.578125 14.800781 13.578125 L 33.199219 13.578125 C 33.980469 13.578125 34.609375 12.945312 34.609375 12.167969 L 34.609375 6.273438 C 34.609375 5.496094 33.980469 4.863281 33.199219 4.863281 Z M 33.199219 4.863281 "/>
<path style=" stroke:none;fill-rule:nonzero;fill:rgb(89.019608%,89.019608%,89.019608%);fill-opacity:1;" d="M 25.484375 4.621094 C 25.484375 5.4375 24.820312 6.101562 24 6.101562 C 23.179688 6.101562 22.515625 5.4375 22.515625 4.621094 C 22.515625 3.800781 23.179688 3.136719 24 3.136719 C 24.820312 3.136719 25.484375 3.800781 25.484375 4.621094 Z M 25.484375 4.621094 "/>
<path style=" stroke:none;fill-rule:nonzero;fill:rgb(98.823529%,48.627451%,50.588235%);fill-opacity:1;" d="M 27.976562 19.621094 L 25.484375 19.621094 L 25.484375 17.125 L 22.515625 17.125 L 22.515625 19.621094 L 20.023438 19.621094 L 20.023438 22.585938 L 22.515625 22.585938 L 22.515625 25.078125 L 25.484375 25.078125 L 25.484375 22.585938 L 27.976562 22.585938 Z M 27.976562 19.621094 "/>
<path style=" stroke:none;fill-rule:nonzero;fill:rgb(0%,0%,0%);fill-opacity:1;" d="M 24 6.804688 C 25.207031 6.804688 26.1875 5.824219 26.1875 4.621094 C 26.1875 3.414062 25.207031 2.433594 24 2.433594 C 22.792969 2.433594 21.8125 3.414062 21.8125 4.621094 C 21.8125 5.824219 22.792969 6.804688 24 6.804688 Z M 24 3.839844 C 24.429688 3.839844 24.78125 4.191406 24.78125 4.621094 C 24.78125 5.050781 24.429688 5.398438 24 5.398438 C 23.570312 5.398438 23.21875 5.050781 23.21875 4.621094 C 23.21875 4.191406 23.570312 3.839844 24 3.839844 Z M 24 3.839844 "/>
<path style=" stroke:none;fill-rule:nonzero;fill:rgb(0%,0%,0%);fill-opacity:1;" d="M 17.519531 7.679688 C 17.128906 7.679688 16.816406 7.996094 16.816406 8.382812 L 16.816406 9.558594 C 16.816406 9.945312 17.128906 10.261719 17.519531 10.261719 C 17.90625 10.261719 18.222656 9.945312 18.222656 9.558594 L 18.222656 8.382812 C 18.222656 7.996094 17.90625 7.679688 17.519531 7.679688 Z M 17.519531 7.679688 "/>
<path style=" stroke:none;fill-rule:nonzero;fill:rgb(0%,0%,0%);fill-opacity:1;" d="M 30.480469 10.261719 C 30.871094 10.261719 31.183594 9.945312 31.183594 9.558594 L 31.183594 8.382812 C 31.183594 7.996094 30.871094 7.679688 30.480469 7.679688 C 30.09375 7.679688 29.777344 7.996094 29.777344 8.382812 L 29.777344 9.558594 C 29.777344 9.945312 30.09375 10.261719 30.480469 10.261719 Z M 30.480469 10.261719 "/>
<path style=" stroke:none;fill-rule:nonzero;fill:rgb(0%,0%,0%);fill-opacity:1;" d="M 26.0625 8.945312 C 25.769531 8.691406 25.324219 8.71875 25.070312 9.011719 C 24.8125 9.308594 24.421875 9.480469 24 9.480469 C 23.578125 9.480469 23.1875 9.308594 22.929688 9.011719 C 22.675781 8.71875 22.230469 8.691406 21.9375 8.945312 C 21.644531 9.203125 21.613281 9.644531 21.871094 9.9375 C 22.398438 10.539062 23.171875 10.886719 24 10.886719 C 24.828125 10.886719 25.601562 10.539062 26.128906 9.9375 C 26.386719 9.644531 26.355469 9.203125 26.0625 8.945312 Z M 26.0625 8.945312 "/>
<path style=" stroke:none;fill-rule:nonzero;fill:rgb(0%,0%,0%);fill-opacity:1;" d="M 31.75 28.261719 L 16.25 28.261719 C 15.859375 28.261719 15.546875 28.578125 15.546875 28.964844 C 15.546875 29.355469 15.859375 29.667969 16.25 29.667969 L 31.75 29.667969 C 32.140625 29.667969 32.453125 29.355469 32.453125 28.964844 C 32.453125 28.578125 32.140625 28.261719 31.75 28.261719 Z M 31.75 28.261719 "/>
<path style=" stroke:none;fill-rule:nonzero;fill:rgb(0%,0%,0%);fill-opacity:1;" d="M 31.75 32.507812 L 16.25 32.507812 C 15.859375 32.507812 15.546875 32.824219 15.546875 33.210938 C 15.546875 33.597656 15.859375 33.914062 16.25 33.914062 L 31.75 33.914062 C 32.140625 33.914062 32.453125 33.597656 32.453125 33.210938 C 32.453125 32.824219 32.140625 32.507812 31.75 32.507812 Z M 31.75 32.507812 "/>
<path style=" stroke:none;fill-rule:nonzero;fill:rgb(0%,0%,0%);fill-opacity:1;" d="M 31.75 36.753906 L 16.25 36.753906 C 15.859375 36.753906 15.546875 37.066406 15.546875 37.457031 C 15.546875 37.84375 15.859375 38.160156 16.25 38.160156 L 31.75 38.160156 C 32.140625 38.160156 32.453125 37.84375 32.453125 37.457031 C 32.453125 37.066406 32.140625 36.753906 31.75 36.753906 Z M 31.75 36.753906 "/>
<path style=" stroke:none;fill-rule:nonzero;fill:rgb(0%,0%,0%);fill-opacity:1;" d="M 20.023438 23.289062 L 21.8125 23.289062 L 21.8125 25.078125 C 21.8125 25.46875 22.128906 25.78125 22.515625 25.78125 L 25.484375 25.78125 C 25.871094 25.78125 26.1875 25.46875 26.1875 25.078125 L 26.1875 23.289062 L 27.976562 23.289062 C 28.367188 23.289062 28.679688 22.972656 28.679688 22.585938 L 28.679688 19.621094 C 28.679688 19.230469 28.367188 18.917969 27.976562 18.917969 L 26.1875 18.917969 L 26.1875 17.125 C 26.1875 16.738281 25.871094 16.421875 25.484375 16.421875 L 22.515625 16.421875 C 22.128906 16.421875 21.8125 16.738281 21.8125 17.125 L 21.8125 18.917969 L 20.023438 18.917969 C 19.632812 18.917969 19.320312 19.230469 19.320312 19.621094 L 19.320312 22.585938 C 19.320312 22.972656 19.632812 23.289062 20.023438 23.289062 Z M 20.726562 20.324219 L 22.515625 20.324219 C 22.90625 20.324219 23.21875 20.007812 23.21875 19.621094 L 23.21875 17.828125 L 24.78125 17.828125 L 24.78125 19.621094 C 24.78125 20.007812 25.09375 20.324219 25.484375 20.324219 L 27.273438 20.324219 L 27.273438 21.882812 L 25.484375 21.882812 C 25.09375 21.882812 24.78125 22.195312 24.78125 22.585938 L 24.78125 24.375 L 23.21875 24.375 L 23.21875 22.585938 C 23.21875 22.195312 22.90625 21.882812 22.515625 21.882812 L 20.726562 21.882812 Z M 20.726562 20.324219 "/>
<path style=" stroke:none;fill-rule:nonzero;fill:rgb(0%,0%,0%);fill-opacity:1;" d="M 33.199219 4.160156 L 28.8125 4.160156 C 28.472656 1.8125 26.441406 0 24 0 C 21.558594 0 19.527344 1.8125 19.1875 4.160156 L 14.800781 4.160156 C 13.636719 4.160156 12.6875 5.109375 12.6875 6.273438 L 12.6875 7.378906 L 9.683594 7.378906 C 7.429688 7.378906 5.597656 9.214844 5.597656 11.464844 L 5.597656 43.914062 C 5.597656 46.167969 7.429688 48 9.683594 48 L 13.058594 48 C 13.445312 48 13.761719 47.683594 13.761719 47.296875 C 13.761719 46.910156 13.445312 46.59375 13.058594 46.59375 L 9.683594 46.59375 C 8.203125 46.59375 7.003906 45.390625 7.003906 43.914062 L 7.003906 11.464844 C 7.003906 9.988281 8.203125 8.785156 9.683594 8.785156 L 12.6875 8.785156 L 12.6875 10.609375 L 9.683594 10.609375 C 9.210938 10.609375 8.824219 10.992188 8.824219 11.464844 L 8.824219 43.914062 C 8.824219 44.386719 9.210938 44.769531 9.683594 44.769531 L 38.316406 44.769531 C 38.789062 44.769531 39.175781 44.386719 39.175781 43.914062 L 39.175781 11.464844 C 39.175781 10.992188 38.789062 10.609375 38.316406 10.609375 L 35.3125 10.609375 L 35.3125 8.785156 L 38.316406 8.785156 C 39.796875 8.785156 40.996094 9.988281 40.996094 11.464844 L 40.996094 43.914062 C 40.996094 45.390625 39.796875 46.59375 38.316406 46.59375 L 15.871094 46.59375 C 15.480469 46.59375 15.167969 46.910156 15.167969 47.296875 C 15.167969 47.683594 15.480469 48 15.871094 48 L 38.316406 48 C 40.570312 48 42.402344 46.167969 42.402344 43.914062 L 42.402344 11.464844 C 42.402344 9.214844 40.570312 7.378906 38.316406 7.378906 L 35.3125 7.378906 L 35.3125 6.273438 C 35.3125 5.109375 34.363281 4.160156 33.199219 4.160156 Z M 37.769531 12.015625 L 37.769531 43.363281 L 10.230469 43.363281 L 10.230469 12.015625 L 12.6875 12.015625 L 12.6875 12.167969 C 12.6875 13.332031 13.636719 14.28125 14.800781 14.28125 L 28.433594 14.28125 C 28.820312 14.28125 29.136719 13.964844 29.136719 13.578125 C 29.136719 13.191406 28.820312 12.875 28.433594 12.875 L 14.800781 12.875 C 14.410156 12.875 14.09375 12.558594 14.09375 12.167969 L 14.09375 6.273438 C 14.09375 5.882812 14.410156 5.566406 14.800781 5.566406 L 19.839844 5.566406 C 20.226562 5.566406 20.542969 5.25 20.542969 4.863281 C 20.542969 2.957031 22.09375 1.40625 24 1.40625 C 25.90625 1.40625 27.457031 2.957031 27.457031 4.863281 C 27.457031 5.25 27.773438 5.566406 28.160156 5.566406 L 33.199219 5.566406 C 33.589844 5.566406 33.90625 5.882812 33.90625 6.273438 L 33.90625 12.167969 C 33.90625 12.558594 33.589844 12.875 33.199219 12.875 L 31.246094 12.875 C 30.855469 12.875 30.542969 13.191406 30.542969 13.578125 C 30.542969 13.964844 30.855469 14.28125 31.246094 14.28125 L 33.199219 14.28125 C 34.363281 14.28125 35.3125 13.332031 35.3125 12.167969 L 35.3125 12.015625 Z M 37.769531 12.015625 "/>
</g>
</svg>
