<?xml version="1.0"?>
<svg xmlns:rdf="http://www.w3.org/1999/02/22-rdf-syntax-ns#" xmlns="http://www.w3.org/2000/svg" xmlns:cc="http://web.resource.org/cc/" xmlns:xlink="http://www.w3.org/1999/xlink" xmlns:dc="http://purl.org/dc/elements/1.1/" xmlns:svg="http://www.w3.org/2000/svg" fill-rule="evenodd" viewBox="0 0 841.89 595.276">
  <path d="m334.5 282.43l423.54-21.98c87.88 0 98.91 63.32 30.8 143.01l-52.69 66.05c-49.56 79.69-97.83 114.8-245.49 107.27l-339.78 14c-99.218 3.77-196.25-37.81-120.92-126.91l56.299-81.97c94.221-66.5 176.36-86.28 248.24-99.47z" fill="#fff"/>
  <path d="m331.42 282.71l426.33-21.25c85.36 0 96.09 62.02 29.97 139.43l-55.23 69.3c-48.19 77.4-95.75 111.81-238.89 104.53l-344.68 13.47c-96.602 3.64-190.97-37.03-117.9-123.68 37.558-55.48 20.96-30.78 59.167-84.97 91.373-64.66 171.34-84.09 241.23-96.83z" fill="#fafafa"/>
  <path d="m328.34 282.98l429.12-20.51c82.83 0 93.28 60.72 29.13 135.84l-57.75 72.55c-46.83 75.12-93.67 108.82-232.29 101.8l-349.6 12.94c-93.977 3.51-185.68-36.25-114.87-120.46 37.585-56.3 23.156-34.22 62.035-87.97 88.515-62.81 166.32-81.88 234.22-94.19z" fill="#f6f6f6"/>
  <path d="m325.25 283.26l431.91-19.78c80.31 0 90.47 59.42 28.31 132.25l-60.28 75.81c-45.47 72.83-91.59 105.83-225.7 99.06l-354.51 12.4c-91.351 3.39-180.39-35.45-111.84-117.22 37.611-57.14 25.351-37.68 64.903-90.98 85.667-60.96 161.31-79.67 227.21-91.54z" fill="#f2f2f2"/>
  <path d="m322.17 283.54l434.7-19.05c77.79 0 87.66 58.12 27.47 128.66l-62.8 79.06c-44.11 70.55-89.51 102.85-219.1 96.33l-359.43 11.87c-88.726 3.26-175.1-34.67-108.81-113.99 37.638-57.97 27.547-41.13 67.77-93.98 82.82-59.12 156.28-77.47 220.2-88.9z" fill="#ededed"/>
  <path d="m319.08 283.82l437.5-18.32c75.26 0 84.84 56.82 26.64 125.08l-65.34 82.31c-42.74 68.25-87.42 99.86-212.5 93.59l-364.33 11.33c-86.11 3.14-169.82-33.88-105.79-110.75 37.664-58.8 29.743-44.59 70.64-96.99 79.96-57.27 151.26-75.26 213.18-86.25z" fill="#e9e9e9"/>
  <path d="m316 284.1l440.29-17.59c72.73 0 82.03 55.52 25.8 121.49l-67.86 85.56c-41.38 65.97-85.35 96.88-205.9 90.86l-369.25 10.8c-83.485 3.01-164.54-33.1-102.76-107.52 37.691-59.64 31.938-48.04 73.51-100 77.11-55.42 146.24-73.05 206.17-83.6z" fill="#e5e5e5"/>
  <path d="m312.92 284.38l443.08-16.86c70.21 0 79.21 54.22 24.97 117.9l-70.39 88.82c-40.02 63.68-83.27 93.89-199.31 88.12l-374.16 10.26c-80.859 2.89-159.25-32.3-99.731-104.28 37.719-60.47 34.135-51.5 76.381-103 74.26-53.58 141.21-70.85 199.16-80.96z" fill="#e1e1e1"/>
  <path d="m309.83 284.65l445.87-16.11c67.69 0 76.4 52.91 24.14 114.3l-72.92 92.08c-38.65 61.39-81.18 90.9-192.7 85.38l-379.07 9.73c-78.244 2.76-153.97-31.52-96.711-101.05 37.745-61.31 36.331-54.95 79.241-106.01 71.41-51.72 136.2-68.65 192.15-78.32z" fill="#ddd"/>
  <path d="m306.75 284.93l448.66-15.38c65.16 0 73.59 51.61 23.31 110.71l-75.45 95.33c-37.29 59.11-79.1 87.92-186.11 82.65l-383.98 9.2c-75.618 2.63-148.68-30.74-93.681-97.83 37.772-62.13 38.526-58.4 82.111-109.01 68.56-49.87 131.18-66.44 185.14-75.67z" fill="#d8d8d8"/>
  <path d="m303.67 285.21l451.45-14.65c62.64 0 70.77 50.31 22.47 107.13l-77.97 98.58c-35.94 56.82-77.02 84.93-179.51 79.91l-388.9 8.66c-72.992 2.51-143.39-29.94-90.65-94.59 37.797-62.96 40.721-61.85 84.98-112.01 65.71-48.03 126.16-64.24 178.13-73.03z" fill="#d4d4d4"/>
  <path d="m300.58 285.49l454.24-13.92c60.12 0 67.97 49.01 21.64 103.54l-80.49 101.83c-34.57 54.53-74.94 81.95-172.92 77.18l-393.81 8.13c-70.367 2.38-138.1-29.16-87.62-91.36 37.824-63.8 42.916-65.31 87.85-115.02 62.85-46.18 121.13-62.03 171.11-70.38z" fill="#d0d0d0"/>
  <path d="m297.5 285.77l457.03-13.19c57.59 0 65.15 47.71 20.81 99.95l-83.02 105.09c-33.22 52.24-72.87 78.96-166.32 74.44l-398.72 7.59c-67.751 2.26-132.82-28.37-84.6-88.12 37.85-64.63 45.112-68.76 90.72-118.03 60-44.33 116.11-59.82 164.1-67.73z" fill="#ccc"/>
  <path d="m294.42 286.04l459.82-12.45c55.07 0 62.33 46.41 19.97 96.37l-85.55 108.33c-31.84 49.96-70.78 75.98-159.72 71.71l-403.63 7.06c-65.126 2.13-127.54-27.58-81.57-84.89 37.877-65.47 47.308-72.22 93.58-121.03 57.16-42.49 111.1-57.62 157.1-65.1z" fill="#c7c7c7"/>
  <path d="m291.33 286.32l462.62-11.72c52.54 0 59.52 45.11 19.14 92.78l-88.08 111.59c-30.49 47.67-68.7 72.99-153.12 68.97l-408.55 6.52c-62.5 2.01-122.25-26.79-78.539-81.65 37.902-66.3 49.502-75.67 96.449-124.04 54.31-40.64 106.07-55.41 150.08-62.45z" fill="#c3c3c3"/>
  <path d="m288.25 286.6l465.41-10.99c50.01 0 56.7 43.81 18.3 89.19l-90.6 114.84c-29.13 45.39-66.62 70-146.53 66.24l-413.45 5.99c-59.884 1.88-116.97-26.01-75.519-78.43 37.929-67.12 51.698-79.12 99.319-127.04 51.45-38.78 101.05-53.2 143.07-59.8z" fill="#bfbfbf"/>
  <path d="m285.16 286.88l468.2-10.26c47.5 0 53.9 42.51 17.48 85.6l-93.14 118.1c-27.76 43.09-64.53 67.01-139.92 63.5l-418.37 5.46c-57.259 1.75-111.68-25.22-72.489-75.2 37.955-67.96 53.899-82.57 102.19-130.04 48.6-36.94 96.03-51 136.05-57.16z" fill="#bababa"/>
  <path d="m282.08 287.16l470.99-9.52c44.97 0 51.08 41.2 16.64 82l-95.66 121.36c-26.4 40.8-62.45 64.02-133.33 60.76l-423.28 4.92c-54.633 1.63-106.39-24.43-69.459-71.96 37.982-68.79 56.089-86.02 105.06-133.05 45.75-35.09 91.01-48.8 129.04-54.51z" fill="#b6b6b6"/>
  <path d="m279 287.44l473.78-8.79c42.44 0 48.26 39.9 15.81 78.42l-98.19 124.6c-25.04 38.52-60.38 61.04-126.73 58.03l-428.19 4.39c-52.018 1.5-101.11-23.65-66.438-68.73 38.008-69.62 58.288-89.48 107.92-136.06 42.9-33.24 85.99-46.59 122.04-51.86z" fill="#b2b2b2"/>
  <path d="m275.91 287.72l476.58-8.06c39.92 0 45.45 38.6 14.97 74.83l-100.71 127.86c-23.68 36.23-58.3 58.05-120.14 55.29l-433.1 3.85c-49.392 1.38-95.824-22.86-63.408-65.49 38.034-70.46 60.478-92.93 110.79-139.06 40.05-31.4 80.97-44.39 115.02-49.22z" fill="#aeaeae"/>
  <path d="m272.83 287.99l479.36-7.32c37.4 0 42.64 37.3 14.15 71.24l-103.25 131.11c-22.31 33.95-56.21 55.07-113.53 52.56l-438.02 3.32c-46.767 1.25-90.536-22.07-60.378-62.26 38.061-71.29 62.678-96.39 113.66-142.07 37.2-29.55 75.95-42.18 108.01-46.58z" fill="#aaa"/>
  <path d="m269.74 288.27l482.16-6.59c34.87 0 39.83 36 13.31 67.65l-105.77 134.37c-20.95 31.66-54.13 52.08-106.94 49.82l-442.93 2.78c-44.141 1.13-85.247-21.28-57.348-59.02 38.087-72.13 64.868-99.84 116.53-145.08 34.35-27.7 70.92-39.97 100.99-43.93z" fill="#a5a5a5"/>
  <path d="m266.66 288.55l484.95-5.86c32.35 0 37.01 34.7 12.48 64.07l-108.3 137.61c-19.59 29.37-52.05 49.1-100.34 47.09l-447.84 2.25c-41.526 1-79.968-20.5-54.327-55.8 38.113-72.95 67.067-103.29 119.4-148.07 31.49-25.86 65.9-37.77 93.98-41.29z" fill="#a1a1a1"/>
  <path d="m263.58 288.83l487.74-5.13c29.82 0 34.2 33.4 11.64 60.48l-110.82 140.87c-18.23 27.08-49.98 46.11-93.75 44.35l-452.75 1.71c-38.9 0.88-74.68-19.7-51.297-52.56 38.139-73.78 69.257-106.74 122.26-151.08 28.65-24 60.89-35.56 86.98-38.64z" fill="#9d9d9d"/>
  <path d="m260.49 289.11l490.53-4.4c27.3 0 31.39 32.1 10.82 56.89l-113.36 144.12c-16.86 24.8-47.89 43.13-87.14 41.62l-457.67 1.18c-36.274 0.75-69.392-18.92-48.267-49.33 38.166-74.62 71.457-110.2 125.13-154.09 25.8-22.15 55.87-33.36 79.96-35.99z" fill="#999"/>
  <path d="m257.41 289.38l493.32-3.66c24.77 0 28.57 30.8 9.98 53.3l-115.88 147.38c-15.5 22.51-45.81 40.14-80.55 38.88l-462.57 0.64c-33.659 0.63-64.113-18.13-45.247-46.09 38.192-75.45 73.657-113.65 128-157.09 22.94-20.31 50.84-31.16 72.95-33.36z" fill="#949494"/>
  <path d="m254.33 289.66l496.11-2.93c22.25 0 25.76 29.49 9.15 49.71l-118.41 150.64c-14.14 20.22-43.73 37.15-73.95 36.14l-467.49 0.11c-31.033 0.5-58.824-17.34-42.216-42.86 38.218-76.29 75.846-117.11 130.87-160.1 20.09-18.46 45.82-28.95 65.94-30.71z" fill="#909090"/>
  <path d="m251.24 289.94l498.91-2.2c19.72 0 22.94 28.2 8.31 46.13l-120.93 153.88c-12.78 17.93-41.65 34.17-67.36 33.41l-472.4-0.42c-28.408 0.37-53.536-16.56-39.186-39.63 38.244-77.12 78.046-120.56 133.74-163.11 17.24-16.61 40.8-26.74 58.92-28.06z" fill="#8c8c8c"/>
  <path d="m248.16 290.22l501.69-1.46c17.21 0 20.14 26.88 7.49 42.53l-123.47 157.14c-11.41 15.64-39.57 31.17-60.75 30.67l-477.32-0.96c-25.782 0.25-48.247-15.77-36.156-36.4 38.271-77.94 80.236-124.01 136.6-166.1 14.39-14.77 35.78-24.54 51.92-25.42z" fill="#878787"/>
  <path d="m245.08 290.5l504.48-0.73c14.68 0 17.32 25.58 6.65 38.94l-125.99 160.39c-10.05 13.36-37.49 28.19-54.16 27.94l-482.22-1.49c-23.167 0.12-42.969-14.99-33.136-33.17 38.298-78.78 82.436-127.46 139.47-169.11 11.54-12.92 30.76-22.33 44.91-22.77z" fill="#838383"/>
  <path d="m241.99 290.78h507.28c12.15 0 14.51 24.28 5.82 35.36l-128.52 163.64c-8.69 11.07-35.41 25.2-47.56 25.2l-487.14-2.03c-20.541 0-37.68-14.19-30.105-29.93 38.325-79.61 84.625-130.92 142.34-172.11 8.69-11.07 25.74-20.13 37.89-20.13z" fill="#7f7f7f"/>
  <path d="m242.85 267.63h519.36c11.99 0 14.79 8.61 6.21 19.13l-157.86 193.68c-8.58 10.53-25.41 19.14-37.41 19.14h-519.35c-11.998 0-14.796-8.61-6.219-19.14l157.86-193.68c8.58-10.52 25.42-19.13 37.41-19.13z" fill="#7f7f7f"/>
  <path d="m48.202 220.34l157.38-193.22c8.92-10.956 16.22-8.771 16.22 4.85v209.97c0 13.62-7.3 33.72-16.22 44.67l-157.38 193.23c-8.918 10.95-16.214 8.76-16.214-4.86v-209.96c0-13.62 7.296-33.73 16.216-44.68z" fill="none"/>
  <path d="m242.7 267.11h519.83c12.01 0 14.81 8.62 6.22 19.16-52.67 64.62-105.34 129.23-158.01 193.85-8.58 10.53-25.43 19.15-37.44 19.15h-519.83c-12.006 0-14.807-8.62-6.222-19.15 52.67-64.62 105.34-129.23 158.01-193.85 8.58-10.54 25.43-19.16 37.44-19.16z" fill="#818181"/>
  <path d="m242.55 266.59h520.3c12.02 0 14.82 8.62 6.23 19.17-52.72 64.67-105.44 129.35-158.16 194.03-8.59 10.54-25.45 19.17-37.47 19.17h-520.3c-12.024 0-14.827-8.63-6.234-19.17 52.718-64.68 105.43-129.36 158.15-194.03 8.59-10.55 25.46-19.17 37.48-19.17z" fill="#838383"/>
  <path d="m242.39 266.05h520.78c12.03 0 14.84 8.64 6.23 19.19-52.76 64.74-105.53 129.47-158.29 194.21-8.6 10.55-25.48 19.18-37.51 19.18h-520.78c-12.033 0-14.838-8.63-6.238-19.18 52.767-64.74 105.54-129.47 158.3-194.21 8.6-10.55 25.48-19.19 37.51-19.19z" fill="#858585"/>
  <path d="m242.24 265.51h521.25c12.04 0 14.85 8.64 6.24 19.2-52.81 64.79-105.63 129.59-158.44 194.39-8.61 10.56-25.51 19.2-37.55 19.2h-521.25c-12.041 0-14.849-8.64-6.24-19.2 52.815-64.8 105.63-129.6 158.44-194.39 8.61-10.56 25.51-19.2 37.55-19.2z" fill="#878787"/>
  <path d="m242.08 264.95h521.73c12.05 0 14.86 8.65 6.25 19.22-52.86 64.86-105.73 129.71-158.59 194.56-8.62 10.57-25.53 19.22-37.58 19.22h-521.73c-12.049 0-14.861-8.65-6.244-19.22 52.863-64.85 105.72-129.7 158.58-194.56 8.62-10.57 25.53-19.22 37.58-19.22z" fill="#8a8a8a"/>
  <path d="m241.93 264.38h522.2c12.06 0 14.88 8.66 6.25 19.24-52.91 64.91-105.82 129.83-158.73 194.74-8.62 10.58-25.55 19.24-37.61 19.24h-522.2c-12.068 0-14.881-8.66-6.256-19.24 52.91-64.91 105.82-129.83 158.73-194.74 8.63-10.58 25.55-19.24 37.62-19.24z" fill="#8d8d8d"/>
  <path d="m241.77 263.8h522.68c12.08 0 14.89 8.67 6.26 19.26-52.96 64.97-105.92 129.94-158.88 194.92-8.63 10.58-25.57 19.25-37.64 19.25h-522.68c-12.077 0-14.893-8.67-6.26-19.25 52.958-64.98 105.92-129.95 158.87-194.92 8.64-10.59 25.58-19.26 37.65-19.26z" fill="#909090"/>
  <path d="m241.62 263.21h523.15c12.09 0 14.91 8.67 6.27 19.27-53.01 65.04-106.02 130.06-159.02 195.1-8.64 10.6-25.6 19.27-37.68 19.27h-523.16c-12.085 0-14.904-8.67-6.263-19.27 53.007-65.04 106.01-130.06 159.02-195.1 8.64-10.6 25.59-19.27 37.68-19.27z" fill="#929292"/>
  <path d="m241.46 262.6h523.63c12.1 0 14.92 8.69 6.27 19.3-53.05 65.09-106.11 130.18-159.16 195.27-8.65 10.61-25.62 19.29-37.72 19.29h-523.63c-12.094 0-14.915-8.68-6.268-19.29 53.056-65.09 106.11-130.18 159.17-195.27 8.65-10.61 25.62-19.3 37.71-19.3z" fill="#949494"/>
  <path d="m241.31 261.99h524.1c12.11 0 14.93 8.68 6.28 19.3-53.11 65.15-106.21 130.31-159.31 195.45-8.66 10.62-25.64 19.31-37.75 19.31h-524.11c-12.103 0-14.926-8.69-6.27-19.31 53.102-65.14 106.21-130.3 159.31-195.45 8.65-10.62 25.64-19.3 37.75-19.3z" fill="#969696"/>
  <path d="m241.15 261.35h524.58c12.12 0 14.95 8.7 6.28 19.33l-159.45 195.63c-8.66 10.63-25.67 19.32-37.78 19.32h-524.58c-12.122 0-14.948-8.69-6.285-19.32 53.152-65.21 106.3-130.42 159.46-195.63 8.65-10.63 25.66-19.33 37.77-19.33z" fill="#9a9a9a"/>
  <path d="m241 260.71h525.05c12.13 0 14.96 8.7 6.29 19.34-53.2 65.27-106.4 130.54-159.6 195.8-8.67 10.64-25.69 19.35-37.82 19.35h-525.05c-12.132 0-14.96-8.71-6.289-19.35 53.2-65.26 106.4-130.53 159.6-195.8 8.67-10.64 25.69-19.34 37.82-19.34z" fill="#9c9c9c"/>
  <path d="m240.84 260.04h525.53c12.14 0 14.97 8.72 6.29 19.36-53.24 65.33-106.49 130.66-159.74 195.99-8.68 10.64-25.71 19.35-37.85 19.35h-525.53c-12.14 0-14.972-8.71-6.292-19.35 53.247-65.33 106.49-130.66 159.74-195.99 8.68-10.64 25.71-19.36 37.85-19.36z" fill="#9f9f9f"/>
  <path d="m240.69 259.36h526c12.15 0 14.99 8.72 6.3 19.38-53.3 65.39-106.59 130.77-159.89 196.16-8.68 10.66-25.73 19.38-37.88 19.38h-526.01c-12.15 0-14.984-8.72-6.296-19.38 53.295-65.39 106.59-130.77 159.89-196.16 8.69-10.66 25.74-19.38 37.89-19.38z" fill="#a0a0a0"/>
  <path d="m240.53 258.66h526.48c12.16 0 15 8.73 6.3 19.4-53.34 65.44-106.68 130.89-160.03 196.33-8.69 10.67-25.76 19.4-37.92 19.4h-526.48c-12.159 0-14.996-8.73-6.301-19.4 53.344-65.44 106.69-130.89 160.03-196.33 8.69-10.67 25.76-19.4 37.92-19.4z" fill="#a3a3a3"/>
  <path d="m240.38 257.94h526.95c12.17 0 15.01 8.74 6.31 19.42-53.39 65.5-106.78 131.01-160.18 196.51-8.7 10.68-25.78 19.41-37.95 19.41h-526.96c-12.17 0-15.008-8.73-6.306-19.41 53.393-65.5 106.79-131.01 160.18-196.51 8.7-10.68 25.78-19.42 37.96-19.42z" fill="#a6a6a6"/>
  <path d="m240.22 257.2h527.43c12.18 0 15.03 8.75 6.31 19.43-53.44 65.57-106.88 131.13-160.32 196.69-8.71 10.69-25.8 19.43-37.98 19.43h-527.44c-12.179 0-15.021-8.74-6.311-19.43 53.441-65.56 106.88-131.12 160.32-196.69 8.71-10.68 25.81-19.43 37.99-19.43z" fill="#a9a9a9"/>
  <path d="m240.06 256.44h527.91c12.19 0 15.04 8.75 6.32 19.45-53.49 65.62-106.98 131.25-160.47 196.87-8.71 10.7-25.82 19.45-38.02 19.45h-527.9c-12.199 0-15.044-8.75-6.324-19.45 53.488-65.62 106.97-131.25 160.46-196.87 8.72-10.7 25.83-19.45 38.02-19.45z" fill="#ababab"/>
  <path d="m239.91 255.66h528.38c12.2 0 15.05 8.76 6.32 19.46-53.53 65.68-107.07 131.37-160.61 197.05-8.72 10.7-25.85 19.46-38.05 19.46h-528.38c-12.21 0-15.056-8.76-6.33-19.46 53.537-65.68 107.07-131.37 160.61-197.05 8.73-10.7 25.85-19.46 38.06-19.46z" fill="#adadad"/>
  <path d="m239.75 254.85h528.86c12.21 0 15.06 8.76 6.33 19.48-53.59 65.74-107.17 131.48-160.76 197.22-8.73 10.72-25.87 19.48-38.09 19.48h-528.85c-12.22 0-15.069-8.76-6.335-19.48 53.586-65.74 107.18-131.48 160.76-197.22 8.73-10.72 25.87-19.48 38.09-19.48z" fill="#afafaf"/>
  <path d="m239.59 254.01h529.33c12.23 0 15.08 8.77 6.34 19.5-53.63 65.8-107.26 131.6-160.9 197.4-8.74 10.72-25.89 19.5-38.12 19.5h-529.33c-12.231 0-15.082-8.78-6.34-19.5 53.633-65.8 107.27-131.6 160.9-197.4 8.74-10.73 25.9-19.5 38.12-19.5z" fill="#b3b3b3"/>
  <path d="m239.44 253.14h529.8c12.24 0 15.1 8.78 6.35 19.52-53.68 65.86-107.37 131.72-161.05 197.57-8.75 10.74-25.92 19.52-38.16 19.52h-529.8c-12.241 0-15.096-8.78-6.346-19.52 53.681-65.85 107.37-131.71 161.05-197.57 8.75-10.74 25.92-19.52 38.16-19.52z" fill="#b5b5b5"/>
  <path d="m239.28 252.24h530.28c12.25 0 15.11 8.79 6.35 19.54-53.73 65.91-107.46 131.83-161.19 197.75-8.76 10.75-25.94 19.53-38.19 19.53h-530.28c-12.253 0-15.11-8.78-6.352-19.53l161.18-197.75c8.76-10.75 25.95-19.54 38.2-19.54z" fill="#b8b8b8"/>
  <path d="m239.12 251.3h530.76c12.26 0 15.12 8.8 6.35 19.56l-161.33 197.93c-8.76 10.75-25.97 19.55-38.23 19.55h-530.75c-12.264 0-15.123-8.8-6.358-19.55 53.778-65.98 107.56-131.96 161.33-197.93 8.77-10.76 25.97-19.56 38.23-19.56z" fill="#b9b9b9"/>
  <path d="m238.96 250.33h531.24c12.27 0 15.13 8.81 6.36 19.57-53.83 66.04-107.65 132.07-161.48 198.11-8.77 10.77-25.99 19.57-38.26 19.57h-531.23c-12.276 0-15.137-8.8-6.364-19.57 53.826-66.04 107.65-132.07 161.47-198.11 8.78-10.76 25.99-19.57 38.26-19.57z" fill="#bcbcbc"/>
  <path d="m238.81 249.31h531.7c12.29 0 15.15 8.82 6.37 19.59-53.87 66.1-107.75 132.19-161.62 198.29-8.78 10.77-26.02 19.58-38.3 19.58h-531.71c-12.277 0-15.142-8.81-6.361-19.58 53.874-66.1 107.75-132.19 161.62-198.29 8.78-10.77 26.01-19.59 38.3-19.59z" fill="#bebebe"/>
  <path d="m238.65 248.25h532.18c12.29 0 15.16 8.82 6.37 19.61-53.92 66.15-107.84 132.31-161.76 198.46-8.79 10.78-26.04 19.61-38.33 19.61h-532.19c-12.29 0-15.157-8.83-6.368-19.61 53.923-66.15 107.85-132.31 161.77-198.46 8.79-10.79 26.04-19.61 38.33-19.61z" fill="#c2c2c2"/>
  <path d="m238.49 247.14h532.66c12.3 0 15.17 8.83 6.37 19.62-53.96 66.22-107.94 132.43-161.9 198.64-8.8 10.79-26.06 19.62-38.37 19.62h-532.66c-12.303 0-15.172-8.83-6.375-19.62 53.97-66.21 107.94-132.42 161.9-198.64 8.8-10.79 26.06-19.62 38.37-19.62z" fill="#c4c4c4"/>
  <path d="m238.33 245.97h533.13c12.32 0 15.19 8.84 6.39 19.64-54.02 66.27-108.04 132.54-162.06 198.82-8.8 10.8-26.08 19.63-38.4 19.63h-533.13c-12.316 0-15.188-8.83-6.383-19.63 54.018-66.28 108.03-132.55 162.05-198.82 8.81-10.8 26.09-19.64 38.4-19.64z" fill="#c6c6c6"/>
  <path d="m238.17 244.73h533.61c12.32 0 15.2 8.85 6.39 19.66-54.07 66.33-108.14 132.67-162.2 198.99-8.81 10.82-26.11 19.66-38.43 19.66h-533.61c-12.33 0-15.204-8.84-6.392-19.66 54.067-66.32 108.13-132.66 162.2-198.99 8.81-10.81 26.1-19.66 38.43-19.66z" fill="#c8c8c8"/>
  <path d="m238.01 243.43h534.08c12.34 0 15.22 8.85 6.4 19.67l-162.35 199.17c-8.82 10.83-26.13 19.68-38.46 19.68h-534.09c-12.335 0-15.212-8.85-6.392-19.68l162.34-199.17c8.82-10.82 26.13-19.67 38.47-19.67z" fill="#ccc"/>
  <path d="m238.01 34.641h534.08c12.34 0 15.22 8.853 6.4 19.674l-162.35 199.18c-8.82 10.81-26.13 19.66-38.46 19.66h-534.09c-12.335 0-15.212-8.85-6.392-19.67l162.34-199.18c8.82-10.816 26.13-19.669 38.47-19.669z" fill="#ccc"/>
  <path d="m238.17 32.304h533.61c12.33 0 15.2 8.846 6.39 19.657-54.07 66.329-108.13 132.66-162.2 199-8.81 10.81-26.11 19.65-38.43 19.65h-533.61c-12.325 0-15.2-8.84-6.388-19.65 54.068-66.34 108.14-132.67 162.2-199 8.81-10.81 26.11-19.656 38.43-19.656z" fill="#ccc"/>
  <path d="m238.34 30.277h533.13c12.32 0 15.19 8.838 6.38 19.641-54.02 66.272-108.03 132.54-162.05 198.82-8.81 10.8-26.08 19.63-38.4 19.63h-533.13c-12.319 0-15.191-8.83-6.386-19.63 54.019-66.28 108.04-132.55 162.06-198.82 8.8-10.805 26.08-19.643 38.4-19.643z" fill="#cdcdcd"/>
  <path d="m238.5 28.494h532.66c12.3 0 15.17 8.83 6.37 19.622-53.97 66.214-107.94 132.42-161.91 198.64-8.79 10.79-26.06 19.62-38.36 19.62h-532.66c-12.304 0-15.173-8.83-6.377-19.62 53.972-66.22 107.94-132.43 161.91-198.64 8.8-10.796 26.06-19.626 38.37-19.626z" fill="#cecece"/>
  <path d="m238.66 26.902h532.18c12.29 0 15.16 8.822 6.37 19.604l-161.76 198.46c-8.79 10.78-26.04 19.6-38.33 19.6h-532.19c-12.289 0-15.156-8.82-6.367-19.6 53.922-66.15 107.85-132.31 161.77-198.46 8.79-10.786 26.03-19.608 38.33-19.608z" fill="#cfcfcf"/>
  <path d="m238.82 25.466h531.7c12.29 0 15.15 8.812 6.37 19.586-53.87 66.098-107.75 132.19-161.62 198.29-8.78 10.77-26.01 19.58-38.3 19.58h-531.7c-12.286 0-15.15-8.81-6.37-19.58 53.875-66.1 107.75-132.19 161.62-198.29 8.78-10.772 26.02-19.584 38.3-19.584z" fill="#d0d0d0"/>
  <path d="m238.98 24.16h531.23c12.27 0 15.13 8.805 6.36 19.571l-161.48 198.11c-8.77 10.76-25.99 19.57-38.26 19.57h-531.23c-12.274 0-15.135-8.81-6.362-19.57 53.826-66.04 107.65-132.07 161.47-198.11 8.78-10.765 25.99-19.57 38.27-19.57z" fill="#d0d0d0"/>
  <path d="m239.13 22.965h530.76c12.26 0 15.12 8.798 6.36 19.552-53.78 65.983-107.56 131.95-161.33 197.93-8.77 10.75-25.97 19.55-38.23 19.55h-530.76c-12.261 0-15.12-8.8-6.355-19.55 53.778-65.98 107.56-131.95 161.34-197.93 8.75-10.757 25.95-19.555 38.21-19.555z" fill="#d1d1d1"/>
  <path d="m239.29 21.862h530.28c12.25 0 15.11 8.792 6.35 19.535-53.73 65.923-107.46 131.83-161.18 197.75-8.76 10.75-25.95 19.54-38.2 19.54h-530.28c-12.25 0-15.107-8.79-6.349-19.54 53.729-65.92 107.46-131.83 161.19-197.75 8.76-10.746 25.94-19.538 38.19-19.538z" fill="#d2d2d2"/>
  <path d="m239.45 20.843h529.81c12.24 0 15.09 8.783 6.34 19.517l-161.04 197.58c-8.75 10.73-25.92 19.51-38.16 19.51h-529.81c-12.239 0-15.093-8.78-6.343-19.51 53.681-65.86 107.36-131.72 161.04-197.58 8.75-10.734 25.92-19.517 38.16-19.517z" fill="#d2d2d2"/>
  <path d="m239.6 19.893h529.34c12.22 0 15.08 8.776 6.34 19.5-53.64 65.797-107.27 131.6-160.9 197.41-8.74 10.72-25.9 19.49-38.13 19.49h-529.33c-12.229 0-15.08-8.77-6.338-19.49 53.633-65.81 107.27-131.61 160.9-197.41 8.74-10.721 25.9-19.497 38.12-19.497z" fill="#d3d3d3"/>
  <path d="m239.76 19.009h528.86c12.22 0 15.06 8.765 6.33 19.481-53.58 65.74-107.17 131.48-160.75 197.22-8.74 10.72-25.88 19.48-38.09 19.48h-528.86c-12.218 0-15.067-8.76-6.334-19.48 53.587-65.74 107.17-131.48 160.75-197.22 8.73-10.716 25.88-19.481 38.09-19.481z" fill="#d3d3d3"/>
  <path d="m239.92 18.176h528.38c12.21 0 15.05 8.759 6.33 19.465-53.54 65.679-107.08 131.37-160.61 197.05-8.73 10.7-25.86 19.46-38.06 19.46h-528.38c-12.207 0-15.054-8.76-6.328-19.46 53.537-65.68 107.08-131.37 160.61-197.05 8.73-10.705 25.85-19.464 38.06-19.464z" fill="#d4d4d4"/>
  <path d="m240.07 17.394h527.91c12.2 0 15.04 8.752 6.32 19.449l-160.46 196.87c-8.72 10.7-25.83 19.45-38.03 19.45h-527.9c-12.198 0-15.042-8.75-6.324-19.45 53.49-65.62 106.97-131.24 160.46-196.87 8.72-10.694 25.83-19.446 38.02-19.446z" fill="#d5d5d5"/>
  <path d="m240.23 16.658h527.43c12.18 0 15.03 8.744 6.32 19.431-53.44 65.561-106.88 131.13-160.32 196.69-8.72 10.69-25.81 19.43-37.99 19.43h-527.43c-12.189 0-15.03-8.74-6.319-19.43 53.441-65.56 106.88-131.13 160.32-196.69 8.71-10.688 25.81-19.432 37.99-19.432z" fill="#d6d6d6"/>
  <path d="m240.38 15.962h526.96c12.17 0 15.01 8.735 6.31 19.411-53.39 65.507-106.78 131.01-160.17 196.52-8.71 10.68-25.79 19.41-37.96 19.41h-526.96c-12.169 0-15.008-8.73-6.305-19.41 53.393-65.51 106.78-131.01 160.18-196.52 8.69-10.673 25.77-19.408 37.94-19.408z" fill="#d7d7d7"/>
  <path d="m240.54 15.304h526.48c12.16 0 15 8.726 6.31 19.395-53.35 65.441-106.69 130.89-160.04 196.34-8.69 10.66-25.75 19.39-37.92 19.39h-526.48c-12.16 0-14.996-8.73-6.3-19.39 53.344-65.45 106.69-130.9 160.03-196.34 8.7-10.67 25.76-19.396 37.92-19.396z" fill="#d7d7d7"/>
  <path d="m240.7 14.677h526c12.15 0 14.99 8.719 6.3 19.377-53.3 65.387-106.59 130.78-159.89 196.17-8.69 10.65-25.73 19.37-37.88 19.37h-526.01c-12.151 0-14.984-8.72-6.298-19.37 53.298-65.39 106.6-130.78 159.89-196.17 8.69-10.654 25.74-19.373 37.89-19.373z" fill="#d9d9d9"/>
  <path d="m240.85 14.084h525.53c12.14 0 14.97 8.71 6.29 19.358-53.24 65.326-106.49 130.66-159.74 195.99-8.68 10.64-25.71 19.35-37.85 19.35h-525.53c-12.142 0-14.972-8.71-6.293-19.35 53.248-65.33 106.49-130.66 159.74-195.99 8.68-10.646 25.71-19.356 37.85-19.356z" fill="#dadada"/>
  <path d="m241 13.516h525.06c12.13 0 14.96 8.702 6.29 19.342-53.2 65.267-106.4 130.54-159.6 195.81-8.67 10.63-25.69 19.33-37.82 19.33h-525.06c-12.124 0-14.952-8.7-6.28-19.33 53.2-65.27 106.4-130.54 159.6-195.81 8.67-10.642 25.69-19.344 37.81-19.344z" fill="#dbdbdb"/>
  <path d="m241.16 12.974h524.58c12.12 0 14.94 8.694 6.28 19.324-53.15 65.211-106.3 130.42-159.45 195.63-8.67 10.63-25.67 19.32-37.79 19.32h-524.58c-12.115 0-14.94-8.69-6.277-19.32 53.151-65.21 106.31-130.42 159.46-195.63 8.66-10.632 25.66-19.326 37.78-19.326z" fill="#dcdcdc"/>
  <path d="m241.31 12.457h524.11c12.11 0 14.93 8.687 6.28 19.306-53.11 65.152-106.21 130.3-159.32 195.46-8.65 10.62-25.64 19.3-37.74 19.3h-524.11c-12.106 0-14.929-8.68-6.274-19.3 53.104-65.16 106.2-130.3 159.3-195.46 8.66-10.616 25.65-19.303 37.75-19.303z" fill="#dcdcdc"/>
  <path d="m241.47 11.964h523.63c12.1 0 14.92 8.68 6.27 19.288-53.06 65.092-106.11 130.19-159.17 195.28-8.64 10.61-25.62 19.29-37.71 19.29h-523.63c-12.098 0-14.918-8.68-6.271-19.29 53.055-65.09 106.11-130.19 159.17-195.28 8.64-10.606 25.61-19.286 37.71-19.286z" fill="#ddd"/>
  <path d="m241.62 11.49h523.16c12.08 0 14.9 8.671 6.26 19.272-53 65.032-106.01 130.07-159.02 195.1-8.64 10.6-25.59 19.27-37.68 19.27h-523.16c-12.08 0-14.898-8.67-6.258-19.27 53.007-65.03 106.02-130.07 159.02-195.1 8.64-10.599 25.6-19.27 37.68-19.27z" fill="#dedede"/>
  <path d="m241.78 11.034h522.68c12.07 0 14.89 8.665 6.26 19.256-52.96 64.974-105.92 129.95-158.88 194.92-8.63 10.59-25.57 19.26-37.65 19.26h-522.68c-12.072 0-14.888-8.67-6.256-19.26 52.96-64.97 105.92-129.95 158.88-194.92 8.63-10.591 25.57-19.256 37.65-19.256z" fill="#dfdfdf"/>
  <path d="m241.93 10.599h522.21c12.06 0 14.87 8.657 6.25 19.237l-158.73 194.74c-8.63 10.58-25.55 19.24-37.62 19.24h-522.2c-12.064 0-14.877-8.66-6.253-19.24 52.911-64.91 105.82-129.83 158.73-194.74 8.62-10.584 25.55-19.241 37.61-19.241z" fill="#dfdfdf"/>
  <path d="m242.08 10.181h521.74c12.05 0 14.86 8.648 6.24 19.218-52.86 64.855-105.72 129.71-158.59 194.57-8.61 10.57-25.52 19.21-37.57 19.21h-521.73c-12.057 0-14.867-8.64-6.25-19.21 52.862-64.86 105.72-129.72 158.59-194.57 8.61-10.571 25.52-19.219 37.57-19.219z" fill="#dfdfdf"/>
  <path d="m242.24 9.777h521.25c12.04 0 14.85 8.64 6.24 19.201-52.81 64.797-105.63 129.59-158.44 194.39-8.61 10.56-25.5 19.2-37.54 19.2h-521.26c-12.039 0-14.846-8.64-6.238-19.2 52.815-64.8 105.63-129.6 158.45-194.39 8.6-10.563 25.5-19.203 37.54-19.203z" fill="#e0e0e0"/>
  <path d="m242.39 9.3893h520.78c12.03 0 14.84 8.6337 6.24 19.185-52.77 64.738-105.53 129.48-158.3 194.22-8.6 10.55-25.48 19.18-37.51 19.18h-520.78c-12.032 0-14.836-8.63-6.236-19.18 52.767-64.74 105.54-129.48 158.3-194.22 8.6-10.547 25.48-19.181 37.51-19.181z" fill="#e1e1e1"/>
  <path d="m242.55 9.0162h520.3c12.02 0 14.82 8.6238 6.23 19.167-52.72 64.677-105.44 129.36-158.15 194.04-8.6 10.54-25.46 19.16-37.48 19.16h-520.3c-12.023 0-14.826-8.62-6.233-19.16 52.719-64.68 105.43-129.36 158.15-194.04 8.59-10.54 25.46-19.164 37.48-19.164z" fill="#e2e2e2"/>
  <path d="m242.7 8.6555h519.83c12.01 0 14.81 8.6175 6.22 19.15-52.67 64.617-105.34 129.23-158.01 193.85-8.58 10.54-25.43 19.15-37.44 19.15h-519.83c-12.006 0-14.806-8.61-6.22-19.15 52.67-64.62 105.34-129.24 158.01-193.86 8.58-10.527 25.43-19.144 37.44-19.144z" fill="#e3e3e3"/>
  <path d="m242.85 8.3071h519.36c11.99 0 14.79 8.6089 6.22 19.131l-157.87 193.68c-8.58 10.52-25.41 19.13-37.41 19.13h-519.35c-11.999 0-14.796-8.61-6.219-19.13l157.86-193.68c8.58-10.524 25.42-19.133 37.41-19.133z" fill="#e5e5e5"/>
  <path d="m37.284 262.17h552.39c2.91 0 5.3 3.53 5.3 7.85v201.24c0 4.32-2.39 7.85-5.3 7.85h-552.39c-2.91 0-5.294-3.53-5.294-7.85v-201.24c0-4.32 2.384-7.85 5.298-7.85z" fill="#ccc"/>
  <path d="m38.611 263.05h549.7c3.22 0 5.86 3.81 5.86 8.47v198.18c0 4.66-2.64 8.48-5.86 8.48h-549.7c-3.218 0-5.852-3.82-5.852-8.48v-198.18c0-4.66 2.634-8.47 5.853-8.47z" fill="#cacaca"/>
  <path d="m39.938 263.94h547.02c3.52 0 6.41 4.09 6.41 9.09v195.12c0 5-2.89 9.09-6.41 9.09h-547.02c-3.526 0-6.409-4.09-6.409-9.09v-195.12c0-5 2.883-9.09 6.407-9.09z" fill="#c8c8c8"/>
  <path d="m41.264 264.82h544.35c3.83 0 6.96 4.37 6.96 9.71v192.06c0 5.34-3.13 9.71-6.96 9.71h-544.35c-3.825 0-6.957-4.37-6.957-9.71v-192.06c0-5.34 3.132-9.71 6.961-9.71z" fill="#c6c6c6"/>
  <path d="m42.591 265.71h541.66c4.14 0 7.52 4.65 7.52 10.32v189.01c0 5.68-3.38 10.32-7.52 10.32h-541.66c-4.133 0-7.514-4.64-7.514-10.32v-189.01c0-5.67 3.381-10.32 7.515-10.32z" fill="#c5c5c5"/>
  <path d="m43.917 266.6h538.98c4.44 0 8.07 4.92 8.07 10.94v185.94c0 6.02-3.63 10.94-8.07 10.94h-538.98c-4.441 0-8.072-4.92-8.072-10.94v-185.94c0-6.02 3.631-10.94 8.069-10.94z" fill="#c3c3c3"/>
  <path d="m45.244 267.48h536.31c4.74 0 8.62 5.2 8.62 11.56v182.89c0 6.35-3.88 11.55-8.62 11.55h-536.31c-4.74 0-8.619-5.2-8.619-11.55v-182.89c0-6.36 3.879-11.56 8.623-11.56z" fill="#c1c1c1"/>
  <path d="m46.57 268.37h533.62c5.05 0 9.18 5.48 9.18 12.17v179.84c0 6.69-4.13 12.16-9.18 12.16h-533.62c-5.048 0-9.177-5.47-9.177-12.16v-179.84c0-6.69 4.129-12.17 9.177-12.17z" fill="#c0c0c0"/>
  <path d="m47.897 269.26h530.94c5.35 0 9.73 5.75 9.73 12.78v176.78c0 7.03-4.38 12.79-9.73 12.79h-530.94c-5.356 0-9.735-5.76-9.735-12.79v-176.78c0-7.03 4.379-12.78 9.732-12.78z" fill="#bebebe"/>
  <path d="m49.223 270.14h528.27c5.65 0 10.28 6.03 10.28 13.41v173.71c0 7.38-4.63 13.41-10.28 13.41h-528.27c-5.654 0-10.282-6.03-10.282-13.41v-173.71c0-7.38 4.628-13.41 10.285-13.41z" fill="#bcbcbc"/>
  <path d="m50.55 271.03h525.58c5.97 0 10.84 6.31 10.84 14.02v170.66c0 7.71-4.87 14.02-10.84 14.02h-525.58c-5.962 0-10.84-6.31-10.84-14.02v-170.66c0-7.71 4.878-14.02 10.84-14.02z" fill="#bababa"/>
  <path d="m51.876 271.92h522.9c6.27 0 11.39 6.58 11.39 14.63v167.61c0 8.05-5.12 14.63-11.39 14.63h-522.9c-6.271 0-11.397-6.58-11.397-14.63v-167.61c0-8.05 5.126-14.63 11.393-14.63z" fill="#b9b9b9"/>
  <path d="m53.203 272.8h520.23c6.57 0 11.95 6.87 11.95 15.26v164.54c0 8.39-5.38 15.25-11.95 15.25h-520.23c-6.569 0-11.945-6.86-11.945-15.25v-164.54c0-8.39 5.376-15.26 11.948-15.26z" fill="#b7b7b7"/>
  <path d="m54.53 273.69h517.54c6.88 0 12.51 7.14 12.51 15.87v161.49c0 8.73-5.63 15.86-12.51 15.86h-517.54c-6.877 0-12.503-7.13-12.503-15.86v-161.49c0-8.73 5.626-15.87 12.503-15.87z" fill="#b5b5b5"/>
  <path d="m55.856 274.58h514.86c7.18 0 13.06 7.41 13.06 16.48v158.43c0 9.07-5.88 16.49-13.06 16.49h-514.86c-7.186 0-13.06-7.42-13.06-16.49v-158.43c0-9.07 5.874-16.48 13.056-16.48z" fill="#b4b4b4"/>
  <path d="m57.183 275.46h512.19c7.48 0 13.61 7.7 13.61 17.1v155.38c0 9.4-6.13 17.1-13.61 17.1h-512.19c-7.484 0-13.608-7.7-13.608-17.1v-155.38c0-9.4 6.124-17.1 13.611-17.1z" fill="#b2b2b2"/>
  <path d="m58.509 276.35h509.5c7.79 0 14.17 7.97 14.17 17.72v152.31c0 9.75-6.38 17.72-14.17 17.72h-509.5c-7.792 0-14.165-7.97-14.165-17.72v-152.31c0-9.75 6.373-17.72 14.164-17.72z" fill="#b0b0b0"/>
  <path d="m59.836 277.24h506.82c8.1 0 14.72 8.24 14.72 18.33v149.26c0 10.08-6.62 18.33-14.72 18.33h-506.82c-8.1 0-14.723-8.25-14.723-18.33v-149.26c0-10.09 6.623-18.33 14.719-18.33z" fill="#afafaf"/>
  <path d="m61.162 278.12h504.15c8.4 0 15.27 8.53 15.27 18.95v146.2c0 10.43-6.87 18.95-15.27 18.95h-504.15c-8.398 0-15.271-8.52-15.271-18.95v-146.2c0-10.42 6.873-18.95 15.273-18.95z" fill="#adadad"/>
  <path d="m62.489 279.01h501.46c8.71 0 15.83 8.8 15.83 19.57v143.14c0 10.76-7.12 19.56-15.83 19.56h-501.46c-8.707 0-15.828-8.8-15.828-19.56v-143.14c0-10.77 7.121-19.57 15.827-19.57z" fill="#ababab"/>
  <path d="m63.815 279.89h498.78c9.01 0 16.38 9.09 16.38 20.19v140.08c0 11.1-7.37 20.18-16.38 20.18h-498.78c-9.015 0-16.386-9.08-16.386-20.18v-140.08c0-11.1 7.371-20.19 16.381-20.19z" fill="#aaa"/>
  <path d="m65.142 280.78h496.11c9.31 0 16.93 9.36 16.93 20.8v137.03c0 11.44-7.62 20.8-16.93 20.8h-496.11c-9.313 0-16.933-9.36-16.933-20.8v-137.03c0-11.44 7.62-20.8 16.935-20.8z" fill="#a8a8a8"/>
  <path d="m66.468 281.67h493.42c9.62 0 17.49 9.63 17.49 21.41v133.97c0 11.78-7.87 21.42-17.49 21.42h-493.42c-9.622 0-17.491-9.64-17.491-21.42v-133.97c0-11.78 7.869-21.41 17.489-21.41z" fill="#a6a6a6"/>
  <path d="m67.795 282.55h490.74c9.92 0 18.04 9.92 18.04 22.04v130.91c0 12.12-8.12 22.03-18.04 22.03h-490.74c-9.93 0-18.049-9.91-18.049-22.03v-130.91c0-12.12 8.119-22.04 18.044-22.04z" fill="#a4a4a4"/>
  <path d="m69.122 283.44h488.07c10.23 0 18.59 10.19 18.59 22.65v127.85c0 12.46-8.36 22.65-18.59 22.65h-488.07c-10.228 0-18.596-10.19-18.596-22.65v-127.85c0-12.46 8.368-22.65 18.598-22.65z" fill="#a3a3a3"/>
  <path d="m70.448 284.33h485.38c10.54 0 19.15 10.47 19.15 23.26v124.8c0 12.79-8.61 23.26-19.15 23.26h-485.38c-10.536 0-19.154-10.47-19.154-23.26v-124.8c0-12.79 8.618-23.26 19.152-23.26z" fill="#a1a1a1"/>
  <path d="m71.775 285.21h482.7c10.84 0 19.71 10.75 19.71 23.89v121.73c0 13.14-8.87 23.88-19.71 23.88h-482.7c-10.844 0-19.711-10.74-19.711-23.88v-121.73c0-13.14 8.867-23.89 19.706-23.89z" fill="#9f9f9f"/>
  <path d="m73.101 286.1h480.03c11.14 0 20.26 11.02 20.26 24.5v118.68c0 13.47-9.12 24.5-20.26 24.5h-480.03c-11.143 0-20.259-11.03-20.259-24.5v-118.68c0-13.48 9.116-24.5 20.26-24.5z" fill="#9e9e9e"/>
  <path d="m74.428 286.99h477.34c11.45 0 20.82 11.3 20.82 25.11v115.62c0 13.82-9.37 25.12-20.82 25.12h-477.34c-11.451 0-20.817-11.3-20.817-25.12v-115.62c0-13.81 9.366-25.11 20.815-25.11z" fill="#9c9c9c"/>
  <path d="m75.754 287.87h474.67c11.75 0 21.37 11.58 21.37 25.73v112.57c0 14.15-9.62 25.73-21.37 25.73h-474.67c-11.749 0-21.364-11.58-21.364-25.73v-112.57c0-14.15 9.615-25.73 21.368-25.73z" fill="#9a9a9a"/>
  <path d="m77.081 288.76h471.99c12.05 0 21.92 11.85 21.92 26.35v109.5c0 14.5-9.87 26.35-21.92 26.35h-471.99c-12.058 0-21.922-11.85-21.922-26.35v-109.5c0-14.5 9.864-26.35 21.923-26.35z" fill="#999"/>
  <path d="m242.85 8.3071h519.36c11.99 0 14.79 8.6089 6.22 19.131l-157.87 193.68c-8.58 10.52-25.41 19.13-37.41 19.13h-519.35c-11.999 0-14.796-8.61-6.219-19.13l157.86-193.68c8.58-10.524 25.42-19.133 37.41-19.133z" fill="#e5e5e5"/>
  <path d="m239.64 20.697h495.72c4.71 0 5.81 3.315 2.44 7.368l-159.97 192.42c-3.37 4.07-9.98 7.38-14.69 7.38h-495.73c-4.707 0-5.807-3.31-2.438-7.37l159.98-192.42c3.36-4.058 9.97-7.373 14.69-7.373z" fill="#e5e5e5"/>
  <path d="m243.37 23.183c316.33-1.485 166.26-1.576 479.67 0 6.28 0.598 8.8 5.276 4.82 11.423-99.88 120.67-50.71 61.387-150.8 181.62-5.4 5.85-15.05 10.33-25.2 10.31-312.14-0.02-160.28-0.49-472.42-0.62-4.627 0-8.198-3.81-5.274-10.09 99.404-121.25 49.934-62.37 150.22-182.86 4.83-5.449 12.25-9.348 18.98-9.787z" fill="#e7e7e7"/>
  <path d="m247.11 25.668c302.17-2.969 167.27-3.151 463.61 0 7.84 1.197 11.79 7.238 7.19 15.479-93.1 113.05-48.09 58.631-141.63 170.83-7.43 7.62-20.1 13.27-35.7 13.23-293.8-0.03-155.32-0.97-449.11-1.23-4.547-0.01-10.59-4.31-8.111-12.82 92.161-114.22 46.531-60.6 140.47-173.28 6.29-6.849 14.53-11.332 23.28-12.212z" fill="#e8e8e8"/>
  <path d="m250.84 28.154c288.02-4.454 168.28-4.727 447.55 0 9.42 1.794 14.79 9.2 9.57 19.533-86.33 105.44-45.46 55.873-132.45 160.03-9.47 9.41-25.17 16.22-46.21 16.16-275.46-0.04-150.35-1.45-425.8-1.84-4.467-0.02-12.982-4.8-10.948-15.55 84.918-107.18 43.138-58.83 130.73-163.7 7.75-8.25 16.79-13.317 27.56-14.636z" fill="#eaeaea"/>
  <path d="m254.57 30.639c273.87-5.937 169.3-6.302 431.5 0 10.99 2.393 17.78 11.162 11.94 23.589-79.55 97.832-42.84 53.122-123.28 149.23-11.49 11.2-30.23 19.18-56.71 19.1-257.11-0.06-145.39-1.94-402.49-2.45-4.39-0.04-15.37-5.31-13.79-18.29 77.68-100.14 39.75-57.05 120.98-154.12 9.21-9.651 19.07-15.302 31.85-17.061z" fill="#ececec"/>
  <path d="m258.31 33.125c259.7-7.423 170.31-7.878 415.43 0 12.56 2.991 20.78 13.123 14.32 27.644-72.77 90.221-40.22 50.361-114.1 138.43-13.53 12.99-35.3 22.13-67.22 22.03-238.77-0.07-140.42-2.42-379.19-3.06-4.3-0.04-17.75-5.8-16.61-21.01 70.43-93.11 36.35-55.29 111.22-144.55 10.68-11.051 21.34-17.286 36.15-19.485z" fill="#ededed"/>
  <path d="m262.04 35.61c245.55-8.906 171.33-9.453 399.38 0 14.13 3.59 23.77 15.085 16.69 31.7-66 82.6-37.6 47.61-104.93 127.63-15.55 14.78-40.36 25.09-77.72 24.96-220.43-0.08-135.46-2.9-355.88-3.67-4.22-0.05-20.15-6.3-19.45-23.74 63.19-86.07 32.95-53.51 101.48-134.98 12.13-12.442 23.61-19.261 40.43-21.9z" fill="#efefef"/>
  <path d="m265.78 38.096c231.39-10.391 172.34-11.029 383.32 0 15.7 4.188 26.76 17.047 19.06 35.754-59.22 74.99-34.98 44.85-95.75 116.83-17.59 16.56-45.42 28.04-88.23 27.9-202.08-0.1-130.5-3.39-332.57-4.29-4.14-0.06-22.54-6.8-22.29-26.47 55.95-79.04 29.56-51.74 91.73-125.4 13.59-13.843 25.88-21.246 44.73-24.324z" fill="#f1f1f1"/>
  <path d="m269.51 40.582c217.24-11.876 173.36-12.605 367.27 0 17.26 4.786 29.75 19.008 21.43 39.809-52.44 67.379-32.35 42.099-86.58 106.03-19.62 18.35-50.48 31-98.73 30.83-183.74-0.11-125.53-3.87-309.26-4.9-4.06-0.06-24.93-7.29-25.12-29.2 48.7-72 26.16-49.96 81.98-115.82 15.05-15.243 28.15-23.23 49.01-26.748z" fill="#f3f3f3"/>
  <path d="m273.24 43.067c203.09-13.36 174.38-14.18 351.21 0 18.84 5.384 32.75 20.97 23.81 43.865-45.67 59.768-29.73 39.338-77.4 95.228-21.65 20.14-55.55 33.95-109.25 33.76-165.39-0.12-120.56-4.36-285.94-5.51-3.98-0.07-27.32-7.79-27.96-31.92 41.46-64.97 22.77-48.2 72.23-106.25 16.51-16.644 30.42-25.215 53.3-29.173z" fill="#f4f4f4"/>
  <path d="m276.98 45.553c188.93-14.845 175.38-15.756 335.15 0 20.4 5.982 35.74 22.931 26.19 47.92-38.9 52.147-27.12 36.587-68.24 84.427-23.68 21.93-60.6 36.9-119.75 36.7-147.04-0.14-115.59-4.85-262.63-6.13-3.9-0.08-29.71-8.29-30.8-34.65 34.22-57.93 19.37-46.42 62.48-96.673 17.98-18.042 32.7-27.196 57.6-31.594z" fill="#f6f6f6"/>
  <path d="m280.71 48.038c174.77-16.329 176.4-17.331 319.1 0 21.97 6.581 38.73 24.893 28.56 51.972-32.13 44.54-24.49 33.83-59.06 73.63-25.71 23.72-65.67 39.86-130.26 39.63-128.7-0.15-110.63-5.33-239.33-6.73-3.81-0.09-32.09-8.79-33.62-37.39 26.96-50.89 15.97-44.65 52.73-87.095 19.43-19.44 34.96-29.179 61.88-34.017z" fill="#f8f8f8"/>
  <path d="m284.45 50.524c160.61-17.814 177.41-18.907 303.03 0 23.54 7.179 41.73 26.855 30.94 56.036-25.35 36.92-21.87 31.07-49.89 62.82-27.74 25.5-70.73 42.81-140.76 42.56-110.36-0.16-105.67-5.81-216.02-7.34-3.73-0.1-34.49-9.29-36.46-40.12 19.72-43.86 12.58-42.88 42.98-77.517 20.89-20.839 37.24-31.162 66.18-36.439z" fill="#f9f9f9"/>
  <path d="m288.18 53.009c146.46-19.298 178.43-20.482 286.98 0 25.11 7.778 44.72 28.817 33.31 60.091-18.57 29.3-19.25 28.31-40.71 52.02-29.78 27.29-75.8 45.77-151.27 45.5-92.01-0.18-100.7-6.3-192.71-7.96-3.65-0.11-36.88-9.78-39.3-42.84 12.48-36.83 9.19-41.11 33.23-67.949 22.36-22.238 39.51-33.144 70.47-38.862z" fill="#fbfbfb"/>
  <path d="m291.92 55.495c132.3-20.783 179.44-22.058 270.92 0 26.68 8.376 47.71 30.778 35.68 64.145-11.8 21.69-16.63 25.56-31.54 41.22-31.8 29.08-80.86 48.72-161.77 48.43-73.67-0.19-95.74-6.78-169.4-8.57-3.57-0.11-39.27-10.28-42.13-45.57 5.23-29.79 5.78-39.33 23.48-58.37 23.81-23.637 41.78-35.128 74.76-41.285z" fill="#fdfdfd"/>
  <path d="m295.65 57.98c118.15-22.266 180.46-23.633 254.86 0 28.25 8.974 50.71 32.74 38.06 68.2-5.02 14.08-14.01 22.8-22.36 30.42-33.84 30.87-85.92 51.68-172.28 51.36-55.33-0.2-90.78-7.26-146.09-9.18-3.49-0.12-41.66-10.78-44.97-48.3-2.01-22.75 2.39-37.56 13.73-48.79 25.28-25.038 44.05-37.112 79.05-43.71z" fill="#fff"/>
  <path d="m601.06 259.48c58.81-70.18 117.63-140.37 176.44-210.56 3.2-3.824 5.82-3.614 5.82 0.468v200.22c0 4.09-2.62 10.55-5.82 14.38-58.81 70.19-117.63 140.37-176.44 210.56-3.2 3.83-5.82 3.61-5.82-0.47v-200.22c0-4.08 2.62-10.55 5.82-14.38z" fill="#ccc"/>
  <path d="m601.42 259.42c58.57-69.93 117.14-139.87 175.71-209.81 1.63-1.944 4.19-9.43 5.59-7.954 1.39 1.476 0.56 5.784 0.34 8.389v198.78c0 4.13-2.67 10.7-5.93 14.6-58.57 69.93-117.14 139.87-175.71 209.81-3.26 3.9-5.92 3.7-5.92-0.43v-198.78c0-4.13 2.66-10.7 5.92-14.6z" fill="#ccc"/>
  <path d="m601.79 259.36c58.33-69.68 116.65-139.37 174.98-209.05 3.31-3.971 6.03-3.794 6.03 0.392v197.32c0 4.19-2.72 10.86-6.03 14.83-58.33 69.68-116.65 139.37-174.98 209.05-3.32 3.97-6.03 3.8-6.03-0.39v-197.32c0-4.19 2.71-10.86 6.03-14.83z" fill="#ccc"/>
  <path d="m602.16 259.3c58.08-69.43 116.16-138.87 174.24-208.3 3.37-4.04 6.13-3.879 6.13 0.359v195.86c0 4.24-2.76 11.02-6.13 15.06-58.08 69.43-116.16 138.87-174.24 208.3-3.38 4.04-6.14 3.88-6.14-0.36v-195.86c0-4.24 2.76-11.01 6.14-15.06z" fill="#cdcdcd"/>
  <path d="m602.52 259.24c57.84-69.18 115.67-138.36 173.51-207.54 3.43-4.118 6.24-3.974 6.24 0.316v194.41c0 4.29-2.81 11.16-6.24 15.28-57.84 69.18-115.67 138.37-173.51 207.55-3.43 4.11-6.24 3.97-6.24-0.32v-194.42c0-4.29 2.81-11.16 6.24-15.28z" fill="#cdcdcd"/>
  <path d="m602.89 259.18c57.59-68.93 115.18-137.86 172.77-206.79 3.49-4.187 6.35-4.059 6.35 0.284v192.96c0 4.34-2.86 11.32-6.35 15.51-57.59 68.93-115.18 137.86-172.77 206.79-3.49 4.19-6.35 4.06-6.35-0.28v-192.96c0-4.34 2.86-11.32 6.35-15.51z" fill="#cecece"/>
  <path d="m603.25 259.12c57.35-68.68 114.7-137.36 172.04-206.04 3.55-4.255 6.45-4.144 6.45 0.251v191.51c0 4.39-2.9 11.47-6.45 15.73-57.34 68.68-114.69 137.36-172.04 206.04-3.55 4.26-6.45 4.15-6.45-0.25v-191.5c0-4.4 2.9-11.48 6.45-15.74z" fill="#cecece"/>
  <path d="m603.62 259.06c57.1-68.42 114.2-136.86 171.31-205.28 3.6-4.333 6.55-4.239 6.55 0.208v190.05c0 4.44-2.95 11.63-6.55 15.96-57.11 68.43-114.21 136.86-171.31 205.28-3.61 4.34-6.56 4.24-6.56-0.21v-190.05c0-4.44 2.95-11.62 6.56-15.96z" fill="#cecece"/>
  <path d="m603.98 259c56.86-68.17 113.72-136.35 170.58-204.53 3.66-4.402 6.66-4.324 6.66 0.175v188.6c0 4.5-3 11.78-6.66 16.19-56.86 68.18-113.72 136.35-170.58 204.53-3.66 4.41-6.66 4.33-6.66-0.17v-188.6c0-4.5 3-11.78 6.66-16.19z" fill="#cfcfcf"/>
  <path d="m604.35 258.94c56.61-67.92 113.23-135.85 169.84-203.77 3.72-4.48 6.76-4.419 6.76 0.132v187.14c0 4.56-3.04 11.94-6.76 16.42-56.61 67.92-113.23 135.85-169.84 203.78-3.72 4.48-6.77 4.41-6.77-0.14v-187.14c0-4.55 3.05-11.94 6.77-16.42z" fill="#cfcfcf"/>
  <path d="m604.71 258.88c56.37-67.67 112.74-135.35 169.11-203.02 3.78-4.549 6.87-4.504 6.87 0.1v185.69c0 4.6-3.09 12.09-6.87 16.64-56.37 67.67-112.74 135.35-169.11 203.02-3.77 4.55-6.86 4.51-6.86-0.1v-185.69c0-4.6 3.09-12.09 6.86-16.64z" fill="#d0d0d0"/>
  <path d="m605.08 258.82c56.12-67.42 112.25-134.84 168.38-202.27 3.83-4.617 6.97-4.589 6.97 0.066v184.23c0 4.66-3.14 12.25-6.97 16.87-56.13 67.42-112.26 134.85-168.38 202.27-3.84 4.62-6.97 4.59-6.97-0.06v-184.24c0-4.65 3.13-12.24 6.97-16.87z" fill="#d0d0d0"/>
  <path d="m605.44 258.76c55.88-67.17 111.77-134.34 167.65-201.51 3.89-4.696 7.07-4.684 7.07 0.024v182.79c0 4.7-3.18 12.4-7.07 17.09-55.88 67.17-111.77 134.34-167.65 201.51-3.89 4.7-7.07 4.69-7.07-0.02v-182.78c0-4.71 3.18-12.4 7.07-17.1z" fill="#d0d0d0"/>
  <path d="m605.81 258.7c55.64-66.92 111.27-133.84 166.91-200.76 3.95-4.764 7.18-4.769 7.18-0.009v181.33c0 4.76-3.23 12.55-7.18 17.32-55.64 66.92-111.27 133.84-166.91 200.76-3.95 4.77-7.18 4.77-7.18 0.01v-181.33c0-4.76 3.23-12.55 7.18-17.32z" fill="#d1d1d1"/>
  <path d="m606.18 258.64c55.39-66.67 110.78-133.34 166.17-200 4.01-4.842 7.29-4.864 7.29-0.052v179.87c0 4.82-3.28 12.71-7.29 17.55-55.39 66.67-110.78 133.34-166.17 200.01-4.01 4.84-7.29 4.86-7.29 0.04v-179.87c0-4.81 3.28-12.71 7.29-17.55z" fill="#d1d1d1"/>
  <path d="m606.54 258.58c55.15-66.41 110.3-132.83 165.44-199.25 4.07-4.911 7.39-4.949 7.39-0.085v178.42c0 4.87-3.32 12.87-7.39 17.78-55.14 66.42-110.29 132.84-165.44 199.25-4.06 4.92-7.39 4.95-7.39 0.09v-178.42c0-4.87 3.33-12.86 7.39-17.78z" fill="#d2d2d2"/>
  <path d="m606.91 258.52c54.9-66.16 109.8-132.33 164.71-198.5 4.12-4.979 7.49-5.034 7.49-0.118v176.97c0 4.92-3.37 13.02-7.49 18-54.91 66.17-109.81 132.33-164.71 198.5-4.13 4.99-7.5 5.04-7.5 0.12v-176.97c0-4.91 3.37-13.01 7.5-18z" fill="#d2d2d2"/>
  <path d="m607.27 258.46c54.66-65.91 109.32-131.83 163.98-197.74 4.18-5.058 7.6-5.129 7.6-0.16v175.51c0 4.97-3.42 13.17-7.6 18.23-54.66 65.92-109.32 131.83-163.98 197.75-4.18 5.05-7.6 5.12-7.6 0.15v-175.51c0-4.97 3.42-13.17 7.6-18.23z" fill="#d2d2d2"/>
  <path d="m607.64 258.4c54.41-65.66 108.83-131.32 163.24-196.99 4.24-5.126 7.7-5.214 7.7-0.193v174.06c0 5.02-3.46 13.32-7.7 18.45-54.41 65.66-108.83 131.33-163.24 196.99-4.24 5.13-7.71 5.22-7.71 0.2v-174.06c0-5.02 3.47-13.33 7.71-18.46z" fill="#d3d3d3"/>
  <path d="m608 258.34l162.51-196.23c4.3-5.205 7.81-5.309 7.81-0.236v172.61c0 5.07-3.51 13.48-7.81 18.68-54.17 65.41-108.34 130.83-162.51 196.24-4.29 5.2-7.81 5.3-7.81 0.23v-172.61c0-5.07 3.52-13.47 7.81-18.68z" fill="#d3d3d3"/>
  <path d="m608.37 258.28c53.92-65.16 107.85-130.32 161.77-195.48 4.36-5.273 7.92-5.394 7.92-0.269v171.15c0 5.13-3.56 13.64-7.92 18.91-53.92 65.16-107.85 130.32-161.77 195.49-4.35 5.27-7.91 5.39-7.91 0.26v-171.15c0-5.13 3.56-13.63 7.91-18.91z" fill="#d3d3d3"/>
  <path d="m608.73 258.22c53.69-64.91 107.37-129.82 161.05-194.72 4.41-5.352 8.02-5.489 8.02-0.312v169.7c0 5.17-3.61 13.79-8.02 19.13-53.68 64.91-107.36 129.82-161.05 194.73-4.41 5.35-8.01 5.49-8.01 0.31v-169.7c0-5.18 3.6-13.79 8.01-19.14z" fill="#d4d4d4"/>
  <path d="m609.1 258.16c53.44-64.66 106.87-129.31 160.31-193.97 4.47-5.42 8.12-5.574 8.12-0.345v168.24c0 5.24-3.65 13.95-8.12 19.37-53.44 64.66-106.87 129.32-160.31 193.98-4.47 5.42-8.12 5.57-8.12 0.34v-168.25c0-5.23 3.65-13.94 8.12-19.36z" fill="#d4d4d4"/>
  <path d="m609.46 258.1c53.2-64.4 106.39-128.81 159.58-193.22 4.53-5.488 8.23-5.659 8.23-0.378v166.8c0 5.28-3.7 14.09-8.23 19.58-53.19 64.41-106.38 128.82-159.58 193.22-4.52 5.5-8.22 5.67-8.22 0.38v-166.79c0-5.28 3.7-14.09 8.22-19.59z" fill="#d5d5d5"/>
  <path d="m609.83 258.04c52.95-64.15 105.9-128.31 158.84-192.46 4.59-5.567 8.33-5.754 8.33-0.42v165.34c0 5.33-3.74 14.25-8.33 19.81-52.94 64.16-105.89 128.31-158.84 192.47-4.58 5.56-8.33 5.75-8.33 0.42v-165.34c0-5.34 3.75-14.25 8.33-19.82z" fill="#d5d5d5"/>
  <path d="m610.2 257.98c52.7-63.9 105.4-127.8 158.11-191.71 4.64-5.635 8.43-5.839 8.43-0.453v163.88c0 5.39-3.79 14.41-8.43 20.04-52.71 63.91-105.41 127.81-158.11 191.72-4.65 5.63-8.44 5.84-8.44 0.45v-163.89c0-5.38 3.79-14.4 8.44-20.04z" fill="#d5d5d5"/>
  <path d="m610.56 257.92c52.46-63.65 104.92-127.3 157.38-190.96 4.7-5.704 8.54-5.924 8.54-0.486v162.44c0 5.43-3.84 14.55-8.54 20.26-52.46 63.66-104.92 127.31-157.38 190.96-4.7 5.71-8.54 5.93-8.54 0.49v-162.43c0-5.44 3.84-14.56 8.54-20.27z" fill="#d6d6d6"/>
  <path d="m610.93 257.86c52.21-63.4 104.43-126.8 156.64-190.2 4.76-5.782 8.65-6.019 8.65-0.529v160.98c0 5.49-3.89 14.71-8.65 20.49-52.21 63.4-104.43 126.81-156.64 190.21-4.76 5.78-8.65 6.02-8.65 0.53v-160.98c0-5.49 3.89-14.71 8.65-20.5z" fill="#d6d6d6"/>
  <path d="m611.29 257.8c51.97-63.15 103.94-126.3 155.91-189.45 4.82-5.85 8.75-6.104 8.75-0.562v159.52c0 5.55-3.93 14.87-8.75 20.72-51.97 63.15-103.94 126.3-155.91 189.45-4.81 5.86-8.75 6.11-8.75 0.57v-159.53c0-5.54 3.94-14.86 8.75-20.72z" fill="#d7d7d7"/>
  <path d="m611.66 257.74c51.72-62.9 103.45-125.79 155.18-188.69 4.86-5.929 8.85-6.199 8.85-0.604v158.07c0 5.59-3.99 15.02-8.85 20.94-51.73 62.9-103.46 125.8-155.18 188.7-4.87 5.93-8.86 6.2-8.86 0.6v-158.07c0-5.59 3.99-15.02 8.86-20.95z" fill="#d7d7d7"/>
  <path d="m612.02 257.68c51.48-62.64 102.97-125.29 154.45-187.94 4.93-5.997 8.96-6.284 8.96-0.638v156.62c0 5.65-4.03 15.18-8.96 21.17-51.48 62.65-102.97 125.3-154.45 187.95-4.93 6-8.96 6.28-8.96 0.63v-156.61c0-5.65 4.03-15.18 8.96-21.18z" fill="#d7d7d7"/>
  <path d="m332.29 151.11h-109.83c-2.92 0-3.62-2.1-1.52-4.58l44.49-52.367c2.11-2.482 6.21-4.583 9.14-4.583h108.87l29.14-35.046c2.1-2.52 6.2-4.583 9.14-4.583h68.5c2.93 0 3.61 2.065 1.52 4.583l-29.14 35.046h120.22c2.93 0 3.63 2.101 1.52 4.583l-44.49 52.367c-2.1 2.48-6.2 4.58-9.13 4.58h-119.27l-19.19 23.08c-2.09 2.52-6.21 4.58-9.13 4.58h-68.51c-2.93 0-3.61-2.06-1.52-4.58l19.19-23.08z" fill="#f00"/>
  <path d="m467.63 89.58l-5.08-0.249 0.05 6.306h120.22c0.09 0 0.18 0.002 0.28 0.006l1.24-1.48c2.11-2.482 1.41-4.583-1.52-4.583h-115.19zm-245.4 61.48l43.19-50.84c2.11-2.484 6.21-4.583 9.14-4.583h108.88l29.13-35.047c2.1-2.521 6.21-4.583 9.14-4.583h68.5c0.11 0 0.21 0.003 0.31 0.009l1.22-1.482c2.09-2.518 1.41-4.583-1.52-4.583h-68.5c-2.94 0-7.04 2.063-9.14 4.583l-29.14 35.046h-108.87c-2.93 0-7.03 2.101-9.14 4.583l-44.49 52.367c-2.04 2.4-1.4 4.4 1.29 4.53z" fill="#b20000"/>
  <path d="m313.11 178.46l19.18-23.07 0.03-4.15-3.59 4.15-15.63 18.8c-1.64 1.98-1.52 3.64 0.01 4.27z" fill="#ff7f7f"/>
  <path d="m117.56 306.91c74.74-15.39 247.94-4.72 335.55 52.61-170.05-23.12-277.77 37.24-338.59 70.16-60.82 32.91-71.689-107.38 3.04-122.77z" fill="#999"/>
  <path d="m118.73 307.69c74.56-15.22 241.61-4.66 329.59 51.13-168.2-22.08-272.52 36.72-333.01 69.47-60.478 32.75-71.135-105.38 3.42-120.6z" fill="#999"/>
  <path d="m119.9 308.48c74.38-15.06 235.27-4.61 323.64 49.65-166.37-21.05-267.28 36.2-327.43 68.78-60.147 32.58-70.592-103.38 3.79-118.43z" fill="#9a9a9a"/>
  <path d="m121.07 309.26c74.2-14.88 228.94-4.56 317.68 48.17-164.52-20.01-262.04 35.68-321.85 68.09-59.806 32.42-70.038-101.38 4.17-116.26z" fill="#9b9b9b"/>
  <path d="m122.24 310.04c74.03-14.71 222.6-4.5 311.72 46.69-162.68-18.97-256.79 35.16-316.26 67.41-59.474 32.25-69.495-99.38 4.54-114.1z" fill="#9c9c9c"/>
  <path d="m123.4 310.83c73.86-14.54 216.28-4.45 305.77 45.2-160.83-17.93-251.54 34.64-310.68 66.73-59.133 32.08-68.942-97.39 4.91-111.93z" fill="#9d9d9d"/>
  <path d="m124.57 311.61c73.68-14.37 209.94-4.4 299.82 43.73-159-16.9-246.3 34.11-305.1 66.03-58.801 31.93-68.398-95.39 5.28-109.76z" fill="#9e9e9e"/>
  <path d="m125.74 312.4c73.5-14.2 203.61-4.35 293.86 42.24-157.16-15.87-241.06 33.59-299.52 65.35s-67.845-93.39 5.66-107.59z" fill="#9e9e9e"/>
  <path d="m126.91 313.18c73.33-14.03 197.27-4.3 287.9 40.76-155.31-14.83-235.81 33.07-293.93 64.66-58.128 31.6-67.301-91.39 6.03-105.42z" fill="#9f9f9f"/>
  <path d="m128.08 313.96c73.15-13.86 190.94-4.24 281.94 39.28-153.47-13.79-230.56 32.55-288.35 63.98-57.787 31.43-66.748-89.4 6.41-103.26z" fill="#a0a0a0"/>
  <path d="m129.24 314.75c72.98-13.69 184.61-4.19 276 37.8-151.63-12.76-225.32 32.02-282.77 63.29-57.456 31.26-66.204-87.4 6.77-101.09z" fill="#a1a1a1"/>
  <path d="m130.41 315.53c72.8-13.52 178.27-4.14 270.04 36.32-149.79-11.72-220.07 31.51-277.19 62.6-57.114 31.1-65.651-85.4 7.15-98.92z" fill="#a2a2a2"/>
  <path d="m131.58 316.32c72.63-13.35 171.94-4.09 264.08 34.83-147.94-10.68-214.82 30.99-271.6 61.92-56.783 30.93-65.108-83.41 7.52-96.75z" fill="#a3a3a3"/>
  <path d="m132.75 317.1c72.45-13.18 165.61-4.04 258.12 33.35-146.1-9.64-209.58 30.47-266.02 61.24-56.441 30.77-64.554-81.41 7.9-94.59z" fill="#a3a3a3"/>
  <path d="m133.92 317.88c72.27-13 159.27-3.98 252.17 31.88-144.27-8.61-204.34 29.94-260.44 60.54-56.11 30.61-64.011-79.41 8.27-92.42z" fill="#a4a4a4"/>
  <path d="m135.08 318.67c72.1-12.84 152.94-3.93 246.22 30.39-142.42-7.57-199.09 29.42-254.86 59.86-55.769 30.44-63.457-77.41 8.64-90.25z" fill="#a5a5a5"/>
  <path d="m136.25 319.45c71.93-12.67 146.61-3.88 240.26 28.91-140.58-6.53-193.84 28.9-249.27 59.17-55.437 30.28-62.914-75.41 9.01-88.08z" fill="#a6a6a6"/>
  <path d="m137.42 320.24c71.75-12.5 140.27-3.83 234.3 27.42-138.73-5.49-188.59 28.38-243.69 58.49-55.096 30.11-62.361-73.42 9.39-85.91z" fill="#a7a7a7"/>
  <path d="m138.59 321.02c71.57-12.33 133.94-3.77 228.35 25.94-136.9-4.45-183.36 27.86-238.12 57.81-54.754 29.94-61.807-71.42 9.77-83.75z" fill="#a8a8a8"/>
  <path d="m139.76 321.8c71.4-12.15 127.6-3.72 222.39 24.47-135.05-3.42-178.11 27.33-232.53 57.11-54.423 29.78-61.264-69.42 10.14-81.58z" fill="#a9a9a9"/>
  <path d="m140.92 322.59c71.23-11.99 121.28-3.67 216.44 22.98-133.21-2.38-172.86 26.81-226.95 56.43-54.082 29.61-60.71-67.42 10.51-79.41z" fill="#aaa"/>
  <path d="m142.09 323.37c71.05-11.81 114.94-3.61 210.48 21.5-131.37-1.35-167.61 26.3-221.36 55.74-53.75 29.45-60.167-65.42 10.88-77.24z" fill="#aaa"/>
  <path d="m143.26 324.16c70.87-11.65 108.61-3.57 204.53 20.02-129.53-0.32-162.37 25.77-215.79 55.05-53.409 29.29-59.614-63.43 11.26-75.07z" fill="#ababab"/>
  <path d="m144.43 324.94c70.7-11.48 102.27-3.51 198.57 18.54-127.69 0.72-157.13 25.25-210.2 54.37-53.077 29.12-59.07-61.43 11.63-72.91z" fill="#acacac"/>
  <path d="m145.6 325.72c70.52-11.3 95.94-3.46 192.61 17.06-125.84 1.76-151.88 24.73-204.62 53.68-52.736 28.96-58.517-59.43 12.01-70.74z" fill="#adadad"/>
  <path d="m146.76 326.51c70.35-11.14 89.61-3.41 186.66 15.57-124 2.8-146.63 24.21-199.03 53-52.404 28.79-57.973-57.44 12.37-68.57z" fill="#aeaeae"/>
  <path d="m147.93 327.29c70.17-10.96 83.28-3.35 180.71 14.09-122.16 3.84-141.39 23.69-193.46 52.32-52.063 28.62-57.42-55.44 12.75-66.41z" fill="#afafaf"/>
  <path d="m149.1 328.08c70-10.8 76.94-3.31 174.75 12.61-120.32 4.87-136.14 23.16-187.87 51.62-51.732 28.46-56.876-53.44 13.12-64.23z" fill="#afafaf"/>
  <path d="m150.27 328.86c69.82-10.62 70.61-3.25 168.79 11.13-118.48 5.91-130.9 22.64-182.29 50.94-51.39 28.29-56.323-51.45 13.5-62.07z" fill="#b0b0b0"/>
  <path d="m151.44 329.64c69.64-10.45 64.27-3.2 162.83 9.65-116.63 6.95-125.65 22.13-176.7 50.25-51.059 28.13-55.78-49.44 13.87-59.9z" fill="#b1b1b1"/>
  <path d="m152.6 330.43c69.47-10.28 57.95-3.15 156.88 8.17-114.79 7.98-120.4 21.6-171.12 49.56-50.717 27.96-55.226-47.45 14.24-57.73z" fill="#b2b2b2"/>
  <path d="m783.22 152.78c-0.38 1.37-0.76 2.6-1.14 3.03l-197.95 225.56c-4.25 3.58-10.84 5.35-18.42 5.89h-511.6c-9.825 0-18.23-3.96-21.619-9.54l0.047 3.26c0 8.3 10.325 15.03 23.046 15.03h507.83c10.74-0.4 17.62-2.78 20.63-5.65 0.76-0.72 181.2-211.2 197.91-227.85 0.81-0.81 1.23-2.9 1.23-2.75 0.01-2.33 0.03-4.65 0.04-6.98z" fill="#ccc"/>
  <path d="m783.22 149.05c-0.38 1.37-0.76 2.6-1.14 3.03l-197.95 225.56c-4.25 3.58-10.84 5.36-18.42 5.89h-511.6c-9.825 0-18.23-3.96-21.619-9.54l0.047 3.27c0 8.29 10.325 15.03 23.046 15.03h507.83c10.74-0.41 17.62-2.79 20.63-5.66 0.76-0.72 181.2-211.2 197.91-227.85 0.81-0.81 1.23-2.9 1.23-2.75 0.01-2.33 0.03-4.65 0.04-6.98z" fill="#4c4c4c"/>
  <path d="m268.79 359.8h69.95c6.76 0 12.25 3.85 12.25 8.59v4.99c0 4.74-5.49 8.59-12.25 8.59h-69.95c-6.76 0-12.25-3.85-12.25-8.59v-4.99c0-4.74 5.49-8.59 12.25-8.59z" fill="#999"/>
  <path d="m268.71 359.8h69.5c6.72 0 12.17 3.8 12.17 8.48v4.92c0 4.68-5.45 8.48-12.17 8.48h-69.5c-6.72 0-12.17-3.8-12.17-8.48v-4.92c0-4.68 5.45-8.48 12.17-8.48z" fill="#969696"/>
  <path d="m268.63 359.8h69.05c6.68 0 12.09 3.74 12.09 8.36v4.86c0 4.62-5.41 8.37-12.09 8.37h-69.05c-6.67 0-12.09-3.75-12.09-8.37v-4.86c0-4.62 5.42-8.36 12.09-8.36z" fill="#939393"/>
  <path d="m268.55 359.8h68.6c6.63 0 12.01 3.69 12.01 8.25v4.79c0 4.56-5.38 8.26-12.01 8.26h-68.6c-6.63 0-12.01-3.7-12.01-8.26v-4.79c0-4.56 5.38-8.25 12.01-8.25z" fill="#919191"/>
  <path d="m268.47 359.8h68.15c6.59 0 11.94 3.64 11.94 8.14v4.72c0 4.5-5.35 8.15-11.94 8.15h-68.15c-6.58 0-11.93-3.65-11.93-8.15v-4.72c0-4.5 5.35-8.14 11.93-8.14z" fill="#8e8e8e"/>
  <path d="m268.4 359.8h67.69c6.55 0 11.86 3.59 11.86 8.02v4.67c0 4.43-5.31 8.03-11.86 8.03h-67.69c-6.55 0-11.86-3.6-11.86-8.03v-4.67c0-4.43 5.31-8.02 11.86-8.02z" fill="#8c8c8c"/>
  <path d="m268.32 359.8h67.24c6.5 0 11.78 3.54 11.78 7.91v4.6c0 4.37-5.28 7.91-11.78 7.91h-67.24c-6.5 0-11.78-3.54-11.78-7.91v-4.6c0-4.37 5.28-7.91 11.78-7.91z" fill="#898989"/>
  <path d="m268.24 359.8h66.79c6.46 0 11.7 3.49 11.7 7.8v4.53c0 4.31-5.24 7.8-11.7 7.8h-66.79c-6.46 0-11.7-3.49-11.7-7.8v-4.53c0-4.31 5.24-7.8 11.7-7.8z" fill="#878787"/>
  <path d="m268.16 359.8h66.34c6.42 0 11.62 3.44 11.62 7.68v4.47c0 4.24-5.2 7.69-11.62 7.69h-66.34c-6.42 0-11.62-3.45-11.62-7.69v-4.47c0-4.24 5.2-7.68 11.62-7.68z" fill="#848484"/>
  <path d="m268.08 359.8h65.9c6.36 0 11.54 3.39 11.54 7.57v4.4c0 4.18-5.18 7.58-11.54 7.58h-65.9c-6.37 0-11.54-3.4-11.54-7.58v-4.4c0-4.18 5.17-7.57 11.54-7.57z" fill="#828282"/>
  <path d="m268 359.8h65.44c6.33 0 11.47 3.34 11.47 7.46v4.33c0 4.12-5.14 7.47-11.47 7.47h-65.44c-6.33 0-11.46-3.35-11.46-7.47v-4.33c0-4.12 5.13-7.46 11.46-7.46z" fill="#7f7f7f"/>
  <path d="m268 398.44h70.58c6.83 0 12.36 5.17 12.36 11.54v6.71c0 6.37-5.53 11.54-12.36 11.54h-70.58c-6.83 0-12.37-5.17-12.37-11.54v-6.71c0-6.37 5.54-11.54 12.37-11.54z" fill="#999"/>
  <path d="m267.92 398.44h70.13c6.78 0 12.28 5.1 12.28 11.39v6.62c0 6.28-5.5 11.39-12.28 11.39h-70.13c-6.78 0-12.29-5.11-12.29-11.39v-6.62c0-6.29 5.51-11.39 12.29-11.39z" fill="#969696"/>
  <path d="m267.84 398.44h69.67c6.74 0 12.21 5.04 12.21 11.24v6.53c0 6.2-5.47 11.23-12.21 11.23h-69.67c-6.74 0-12.21-5.03-12.21-11.23v-6.53c0-6.2 5.47-11.24 12.21-11.24z" fill="#939393"/>
  <path d="m267.76 398.44h69.22c6.69 0 12.12 4.97 12.12 11.09v6.44c0 6.12-5.43 11.08-12.12 11.08h-69.22c-6.69 0-12.13-4.96-12.13-11.08v-6.44c0-6.12 5.44-11.09 12.13-11.09z" fill="#919191"/>
  <path d="m267.68 398.44h68.76c6.65 0 12.05 4.9 12.05 10.94v6.35c0 6.03-5.4 10.93-12.05 10.93h-68.76c-6.65 0-12.05-4.9-12.05-10.93v-6.35c0-6.04 5.4-10.94 12.05-10.94z" fill="#8e8e8e"/>
  <path d="m267.6 398.44h68.31c6.61 0 11.97 4.83 11.97 10.78v6.26c0 5.96-5.36 10.79-11.97 10.79h-68.31c-6.6 0-11.97-4.83-11.97-10.79v-6.26c0-5.95 5.37-10.78 11.97-10.78z" fill="#8c8c8c"/>
  <path d="m267.52 398.44h67.86c6.56 0 11.88 4.76 11.88 10.63v6.17c0 5.87-5.32 10.64-11.88 10.64h-67.86c-6.56 0-11.89-4.77-11.89-10.64v-6.17c0-5.87 5.33-10.63 11.89-10.63z" fill="#898989"/>
  <path d="m267.44 398.44h67.4c6.52 0 11.81 4.7 11.81 10.48v6.08c0 5.79-5.29 10.48-11.81 10.48h-67.4c-6.52 0-11.81-4.69-11.81-10.48v-6.08c0-5.78 5.29-10.48 11.81-10.48z" fill="#878787"/>
  <path d="m267.36 398.44h66.95c6.47 0 11.72 4.63 11.72 10.33v5.99c0 5.71-5.25 10.33-11.72 10.33h-66.95c-6.47 0-11.73-4.62-11.73-10.33v-5.99c0-5.7 5.26-10.33 11.73-10.33z" fill="#848484"/>
  <path d="m267.28 398.44h66.49c6.43 0 11.65 4.56 11.65 10.18v5.9c0 5.62-5.22 10.18-11.65 10.18h-66.49c-6.43 0-11.65-4.56-11.65-10.18v-5.9c0-5.62 5.22-10.18 11.65-10.18z" fill="#828282"/>
  <path d="m267.2 398.44h66.04c6.38 0 11.57 4.49 11.57 10.02v5.82c0 5.54-5.19 10.03-11.57 10.03h-66.04c-6.38 0-11.57-4.49-11.57-10.03v-5.82c0-5.53 5.19-10.02 11.57-10.02z" fill="#7f7f7f"/>
  <path d="m256.03 364.58h86.2c3.01 0 5.45 4.33 5.45 9.66v29.68c0 5.33-2.44 9.66-5.45 9.66h-86.2c-3.01 0-5.45-4.33-5.45-9.66v-29.68c0-5.33 2.44-9.66 5.45-9.66zm0.98 5.18h84.64c1.72 0 3.11 2.55 3.11 5.69v27.26c0 3.14-1.39 5.69-3.11 5.69h-84.64c-1.71 0-3.11-2.55-3.11-5.69v-27.26c0-3.14 1.4-5.69 3.11-5.69z" fill="#7f7f7f"/>
  <path d="m256.1 364.9h86.06c2.94 0 5.32 4.24 5.32 9.46v29.41c0 5.23-2.38 9.46-5.32 9.46h-86.06c-2.94 0-5.33-4.23-5.33-9.46v-29.41c0-5.22 2.39-9.46 5.33-9.46zm0.82 4.48h84.76c1.8 0 3.26 2.67 3.26 5.97v27.42c0 3.29-1.46 5.97-3.26 5.97h-84.76c-1.8 0-3.25-2.68-3.25-5.97v-27.42c0-3.3 1.45-5.97 3.25-5.97z" fill="#8c8c8c"/>
  <path d="m256.17 365.2h85.92c2.87 0 5.2 4.16 5.2 9.27v29.16c0 5.11-2.33 9.26-5.2 9.26h-85.92c-2.87 0-5.2-4.15-5.2-9.26v-29.16c0-5.11 2.33-9.27 5.2-9.27zm0.66 3.8h84.89c1.87 0 3.39 2.8 3.39 6.25v27.58c0 3.44-1.52 6.24-3.39 6.24h-84.89c-1.87 0-3.39-2.8-3.39-6.24v-27.58c0-3.45 1.52-6.25 3.39-6.25z" fill="#999"/>
  <path d="m256.24 365.52h85.78c2.8 0 5.07 4.06 5.07 9.06v28.9c0 5-2.27 9.06-5.07 9.06h-85.78c-2.8 0-5.07-4.06-5.07-9.06v-28.9c0-5 2.27-9.06 5.07-9.06zm0.5 3.1h85.01c1.95 0 3.53 2.92 3.53 6.53v27.73c0 3.61-1.58 6.53-3.53 6.53h-85.01c-1.96 0-3.54-2.92-3.54-6.53v-27.73c0-3.61 1.58-6.53 3.54-6.53z" fill="#a5a5a5"/>
  <path d="m256.31 365.83h85.65c2.72 0 4.94 3.97 4.94 8.86v28.64c0 4.9-2.22 8.87-4.94 8.87h-85.65c-2.73 0-4.95-3.97-4.95-8.87v-28.64c0-4.89 2.22-8.86 4.95-8.86zm0.33 2.41h85.14c2.03 0 3.68 3.05 3.68 6.8v27.9c0 3.76-1.65 6.8-3.68 6.8h-85.14c-2.02 0-3.67-3.04-3.67-6.8v-27.9c0-3.75 1.65-6.8 3.67-6.8z" fill="#b2b2b2"/>
  <path d="m256.38 366.14h85.51c2.66 0 4.82 3.88 4.82 8.66v28.39c0 4.78-2.16 8.66-4.82 8.66h-85.51c-2.66 0-4.82-3.88-4.82-8.66v-28.39c0-4.78 2.16-8.66 4.82-8.66zm0.17 1.72h85.27c2.1 0 3.82 3.18 3.82 7.08v28.06c0 3.9-1.72 7.08-3.82 7.08h-85.27c-2.1 0-3.82-3.18-3.82-7.08v-28.06c0-3.9 1.72-7.08 3.82-7.08z" fill="#bfbfbf"/>
  <path d="m256.45 366.45h85.37c2.59 0 4.69 3.79 4.69 8.47v28.12c0 4.68-2.1 8.47-4.69 8.47h-85.37c-2.59 0-4.69-3.79-4.69-8.47v-28.12c0-4.68 2.1-8.47 4.69-8.47zm0.01 1.03h85.39c2.19 0 3.96 3.3 3.96 7.36v28.22c0 4.06-1.77 7.35-3.96 7.35h-85.39c-2.18 0-3.96-3.29-3.96-7.35v-28.22c0-4.06 1.78-7.36 3.96-7.36z" fill="#ccc"/>
  <path d="m256.52 366.76h85.23c2.52 0 4.57 3.7 4.57 8.27v27.87c0 4.56-2.05 8.26-4.57 8.26h-85.23c-2.52 0-4.57-3.7-4.57-8.26v-27.87c0-4.57 2.05-8.27 4.57-8.27zm-0.15 0.34h85.51c2.27 0 4.11 3.42 4.11 7.64v28.37c0 4.22-1.84 7.64-4.11 7.64h-85.51c-2.26 0-4.1-3.42-4.1-7.64v-28.37c0-4.22 1.84-7.64 4.1-7.64z" fill="#d8d8d8"/>
  <path d="m256.59 367.07h85.09c2.45 0 4.44 3.61 4.44 8.07v27.61c0 4.45-1.99 8.07-4.44 8.07h-85.09c-2.45 0-4.44-3.62-4.44-8.07v-27.61c0-4.46 1.99-8.07 4.44-8.07zm-0.31-0.35h85.64c2.34 0 4.24 3.55 4.24 7.92v28.53c0 4.37-1.9 7.91-4.24 7.91h-85.64c-2.34 0-4.25-3.54-4.25-7.91v-28.53c0-4.37 1.91-7.92 4.25-7.92z" fill="#e5e5e5"/>
  <path d="m256.66 367.38h84.95c2.38 0 4.32 3.53 4.32 7.87v27.35c0 4.35-1.94 7.87-4.32 7.87h-84.95c-2.38 0-4.32-3.52-4.32-7.87v-27.35c0-4.34 1.94-7.87 4.32-7.87zm-0.47-1.04h85.76c2.42 0 4.39 3.68 4.39 8.2v28.69c0 4.52-1.97 8.19-4.39 8.19h-85.76c-2.42 0-4.39-3.67-4.39-8.19v-28.69c0-4.52 1.97-8.2 4.39-8.2z" fill="#ccc"/>
  <path d="m266.96 398.44h64.65c6.25 0 11.32 4.26 11.32 9.51v5.53c0 5.25-5.07 9.51-11.32 9.51h-64.65c-6.25 0-11.33-4.26-11.33-9.51v-5.53c0-5.25 5.08-9.51 11.33-9.51z" fill="#7f7f7f"/>
  <path d="m266.84 399.36h64.8c5.83 0 10.56 3.8 10.56 8.49v5.7c0 4.68-4.73 8.49-10.56 8.49h-64.8c-5.82 0-10.55-3.81-10.55-8.49v-5.7c0-4.69 4.73-8.49 10.55-8.49z" fill="#8c8c8c"/>
  <path d="m266.75 400.28h64.91c5.42 0 9.81 3.37 9.81 7.51v5.79c0 4.14-4.39 7.5-9.81 7.5h-64.91c-5.42 0-9.81-3.36-9.81-7.5v-5.79c0-4.14 4.39-7.51 9.81-7.51z" fill="#999"/>
  <path d="m266.67 401.2h64.99c5.01 0 9.08 2.95 9.08 6.58v5.77c0 3.63-4.07 6.58-9.08 6.58h-64.99c-5.01 0-9.08-2.95-9.08-6.58v-5.77c0-3.63 4.07-6.58 9.08-6.58z" fill="#a5a5a5"/>
  <path d="m266.61 402.12h65.03c4.62 0 8.37 2.56 8.37 5.71v5.65c0 3.15-3.75 5.7-8.37 5.7h-65.03c-4.62 0-8.37-2.55-8.37-5.7v-5.65c0-3.15 3.75-5.71 8.37-5.71z" fill="#b2b2b2"/>
  <path d="m266.57 403.04h65.03c4.24 0 7.68 2.19 7.68 4.88v5.43c0 2.69-3.44 4.88-7.68 4.88h-65.03c-4.24 0-7.68-2.19-7.68-4.88v-5.43c0-2.69 3.44-4.88 7.68-4.88z" fill="#bfbfbf"/>
  <path d="m266.55 403.96h64.99c3.87 0 7.01 1.84 7.01 4.1v5.12c0 2.26-3.14 4.1-7.01 4.1h-64.99c-3.87 0-7-1.84-7-4.1v-5.12c0-2.26 3.13-4.1 7-4.1z" fill="#ccc"/>
  <path d="m266.55 404.88h64.92c3.5 0 6.35 1.51 6.35 3.38v4.7c0 1.86-2.85 3.37-6.35 3.37h-64.92c-3.51 0-6.35-1.51-6.35-3.37v-4.7c0-1.87 2.84-3.38 6.35-3.38z" fill="#d8d8d8"/>
  <path d="m266.56 405.8h64.81c3.16 0 5.72 1.21 5.72 2.7v4.18c0 1.49-2.56 2.7-5.72 2.7h-64.81c-3.15 0-5.71-1.21-5.71-2.7v-4.18c0-1.49 2.56-2.7 5.71-2.7z" fill="#e5e5e5"/>
  <path d="m266.6 406.72h64.66c2.81 0 5.1 0.93 5.1 2.07v3.57c0 1.14-2.29 2.07-5.1 2.07h-64.66c-2.81 0-5.1-0.93-5.1-2.07v-3.57c0-1.14 2.29-2.07 5.1-2.07z" fill="#f2f2f2"/>
  <path d="m266.66 407.64h64.46c2.49 0 4.51 0.67 4.51 1.49v2.86c0 0.82-2.02 1.49-4.51 1.49h-64.46c-2.49 0-4.5-0.67-4.5-1.49v-2.86c0-0.82 2.01-1.49 4.5-1.49z" fill="#fff"/>
  <path d="m266.96 355.48h64.65c6.25 0 11.32 4.03 11.32 8.98v5.22c0 4.96-5.07 8.98-11.32 8.98h-64.65c-6.25 0-11.33-4.02-11.33-8.98v-5.22c0-4.95 5.08-8.98 11.33-8.98z" fill="#7f7f7f"/>
  <path d="m266.84 356.23h64.8c5.83 0 10.56 3.61 10.56 8.06v5.42c0 4.45-4.73 8.06-10.56 8.06h-64.8c-5.82 0-10.55-3.61-10.55-8.06v-5.42c0-4.45 4.73-8.06 10.55-8.06z" fill="#8c8c8c"/>
  <path d="m266.75 356.99h64.91c5.42 0 9.81 3.21 9.81 7.17v5.53c0 3.96-4.39 7.18-9.81 7.18h-64.91c-5.42 0-9.81-3.22-9.81-7.18v-5.53c0-3.96 4.39-7.17 9.81-7.17z" fill="#999"/>
  <path d="m266.67 357.74h64.99c5.01 0 9.08 2.84 9.08 6.34v5.55c0 3.5-4.07 6.34-9.08 6.34h-64.99c-5.01 0-9.08-2.84-9.08-6.34v-5.55c0-3.5 4.07-6.34 9.08-6.34z" fill="#a5a5a5"/>
  <path d="m266.61 358.5h65.03c4.62 0 8.37 2.48 8.37 5.54v5.49c0 3.06-3.75 5.54-8.37 5.54h-65.03c-4.62 0-8.37-2.48-8.37-5.54v-5.49c0-3.06 3.75-5.54 8.37-5.54z" fill="#b2b2b2"/>
  <path d="m266.57 359.25h65.03c4.24 0 7.68 2.15 7.68 4.79v5.34c0 2.64-3.44 4.79-7.68 4.79h-65.03c-4.24 0-7.68-2.15-7.68-4.79v-5.34c0-2.64 3.44-4.79 7.68-4.79z" fill="#bfbfbf"/>
  <path d="m266.55 360h64.99c3.87 0 7.01 1.83 7.01 4.09v5.1c0 2.25-3.14 4.09-7.01 4.09h-64.99c-3.87 0-7-1.84-7-4.09v-5.1c0-2.26 3.13-4.09 7-4.09z" fill="#ccc"/>
  <path d="m266.55 360.76h64.92c3.5 0 6.35 1.53 6.35 3.42v4.77c0 1.89-2.85 3.43-6.35 3.43h-64.92c-3.51 0-6.35-1.54-6.35-3.43v-4.77c0-1.89 2.84-3.42 6.35-3.42z" fill="#d8d8d8"/>
  <path d="m266.56 361.51h64.81c3.16 0 5.72 1.26 5.72 2.8v4.36c0 1.55-2.56 2.81-5.72 2.81h-64.81c-3.15 0-5.71-1.26-5.71-2.81v-4.35c0-1.55 2.56-2.81 5.71-2.81z" fill="#e5e5e5"/>
  <path d="m266.6 362.26h64.66c2.81 0 5.1 1 5.1 2.23v3.86c0 1.23-2.29 2.23-5.1 2.23h-64.66c-2.81 0-5.1-1-5.1-2.23v-3.86c0-1.23 2.29-2.23 5.1-2.23z" fill="#f2f2f2"/>
  <path d="m266.66 363.02h64.46c2.49 0 4.51 0.76 4.51 1.7v3.26c0 0.94-2.02 1.7-4.51 1.7h-64.46c-2.49 0-4.5-0.76-4.5-1.7v-3.26c0-0.94 2.01-1.7 4.5-1.7z" fill="#fff"/>
  <metadata>
    <rdf:RDF>
      <cc:Work>
        <dc:format>image/svg+xml</dc:format>
        <dc:type rdf:resource="http://purl.org/dc/dcmitype/StillImage"/>
        <cc:license rdf:resource="http://creativecommons.org/licenses/publicdomain/"/>
        <dc:publisher>
          <cc:Agent rdf:about="http://openclipart.org/">
            <dc:title>Openclipart</dc:title>
          </cc:Agent>
        </dc:publisher>
        <dc:title>medical kit</dc:title>
        <dc:date>2010-03-19T20:57:53</dc:date>
        <dc:description>clip art, clipart, kit, medical, medicine, sk1, </dc:description>
        <dc:source>http://openclipart.org/detail/32611/medical-kit-by-maxim2</dc:source>
        <dc:creator>
          <cc:Agent>
            <dc:title>maxim2</dc:title>
          </cc:Agent>
        </dc:creator>
        <dc:subject>
          <rdf:Bag>
            <rdf:li>clip art</rdf:li>
            <rdf:li>clipart</rdf:li>
            <rdf:li>kit</rdf:li>
            <rdf:li>medical</rdf:li>
            <rdf:li>medicine</rdf:li>
            <rdf:li>sk1</rdf:li>
          </rdf:Bag>
        </dc:subject>
      </cc:Work>
      <cc:License rdf:about="http://creativecommons.org/licenses/publicdomain/">
        <cc:permits rdf:resource="http://creativecommons.org/ns#Reproduction"/>
        <cc:permits rdf:resource="http://creativecommons.org/ns#Distribution"/>
        <cc:permits rdf:resource="http://creativecommons.org/ns#DerivativeWorks"/>
      </cc:License>
    </rdf:RDF>
  </metadata>
</svg>
