<?xml version="1.0" encoding="iso-8859-1"?>
<!-- Generator: Adobe Illustrator 19.0.0, SVG Export Plug-In . SVG Version: 6.00 Build 0)  -->
<svg version="1.1" id="Capa_1" xmlns="http://www.w3.org/2000/svg" xmlns:xlink="http://www.w3.org/1999/xlink" x="0px" y="0px"
	 viewBox="0 0 512 512" style="enable-background:new 0 0 512 512;" xml:space="preserve">
<path style="fill:#FFBA4D;" d="M408.724,86.223H103.277c-19.928,0-36.082,16.155-36.082,36.082v346.113
	c0,19.928,16.155,36.082,36.082,36.082h305.446c19.928,0,36.082-16.155,36.082-36.082V122.305
	C444.806,102.377,428.651,86.223,408.724,86.223z"/>
<path style="fill:#FAA330;" d="M112.819,86.223v43.551c0,24.846,20.214,45.061,45.061,45.061h196.241
	c24.847,0,45.061-20.214,45.061-45.061V86.223H112.819z"/>
<path style="fill:#F0F0F0;" d="M103.277,470.054c-0.902,0-1.636-0.734-1.636-1.636V122.305c0-0.902,0.734-1.636,1.636-1.636h305.446
	c0.902,0,1.636,0.734,1.636,1.636v346.113c0,0.902-0.734,1.636-1.636,1.636H103.277z"/>
<path style="fill:#D9D9D9;" d="M112.819,120.669v9.104c0,24.846,20.214,45.061,45.061,45.061h196.241
	c24.847,0,45.061-20.214,45.061-45.061v-9.104C399.182,120.669,112.819,120.669,112.819,120.669z"/>
<path style="fill:#BCBCBC;" d="M354.121,51.875h-53.745c0-24.508-19.867-44.375-44.375-44.375s-44.375,19.867-44.375,44.375H157.88
	c-8.318,0-15.061,6.743-15.061,15.061v62.838c0,8.318,6.743,15.061,15.061,15.061h196.241c8.318,0,15.061-6.743,15.061-15.061
	V66.936C369.181,58.618,362.439,51.875,354.121,51.875z"/>
<circle style="fill:#E3E3E3;" cx="256" cy="49.28" r="15.817"/>
<polygon style="fill:#FC7C81;" points="298.422,209.276 271.818,209.276 271.818,182.673 240.183,182.673 240.183,209.276 
	213.579,209.276 213.579,240.911 240.183,240.911 240.183,267.515 271.818,267.515 271.818,240.911 298.422,240.911 "/>
<path d="M256,72.595c12.857,0,23.317-10.46,23.317-23.317S268.857,25.961,256,25.961c-12.857,0-23.317,10.46-23.317,23.317
	C232.683,62.135,243.143,72.595,256,72.595z M256,40.96c4.586,0,8.317,3.731,8.317,8.317s-3.731,8.317-8.317,8.317
	c-4.586,0-8.317-3.731-8.317-8.317C247.683,44.691,251.414,40.96,256,40.96z"/>
<path d="M186.857,81.926c-4.142,0-7.5,3.358-7.5,7.5v12.514c0,4.142,3.358,7.5,7.5,7.5s7.5-3.358,7.5-7.5V89.426
	C194.357,85.284,190.999,81.926,186.857,81.926z"/>
<path d="M325.143,109.44c4.142,0,7.5-3.358,7.5-7.5V89.426c0-4.142-3.358-7.5-7.5-7.5c-4.142,0-7.5,3.358-7.5,7.5v12.514
	C317.643,106.082,321.001,109.44,325.143,109.44z"/>
<path d="M278.001,95.423c-3.118-2.727-7.856-2.408-10.583,0.71c-2.77,3.168-6.931,4.986-11.418,4.986
	c-4.487,0-8.649-1.817-11.418-4.986c-2.726-3.118-7.464-3.437-10.583-0.71s-3.437,7.464-0.711,10.583
	c5.619,6.428,13.897,10.114,22.712,10.114c8.815,0,17.093-3.687,22.712-10.114C281.438,102.887,281.12,98.148,278.001,95.423z"/>
<path d="M338.671,301.476H173.329c-4.142,0-7.5,3.358-7.5,7.5c0,4.143,3.358,7.5,7.5,7.5h165.342c4.142,0,7.5-3.357,7.5-7.5
	C346.171,304.834,342.813,301.476,338.671,301.476z"/>
<path d="M338.671,346.748H173.329c-4.142,0-7.5,3.358-7.5,7.5c0,4.143,3.358,7.5,7.5,7.5h165.342c4.142,0,7.5-3.357,7.5-7.5
	C346.171,350.106,342.813,346.748,338.671,346.748z"/>
<path d="M338.671,392.021H173.329c-4.142,0-7.5,3.358-7.5,7.5s3.358,7.5,7.5,7.5h165.342c4.142,0,7.5-3.358,7.5-7.5
	S342.813,392.021,338.671,392.021z"/>
<path d="M213.579,248.411h19.104v19.104c0,4.142,3.358,7.5,7.5,7.5h31.634c4.142,0,7.5-3.358,7.5-7.5v-19.104h19.104
	c4.142,0,7.5-3.358,7.5-7.5v-31.635c0-4.142-3.358-7.5-7.5-7.5h-19.104v-19.104c0-4.143-3.358-7.5-7.5-7.5h-31.634
	c-4.142,0-7.5,3.357-7.5,7.5v19.104h-19.104c-4.142,0-7.5,3.358-7.5,7.5v31.635C206.079,245.053,209.437,248.411,213.579,248.411z
	 M221.079,216.776h19.104c4.142,0,7.5-3.358,7.5-7.5v-19.104h16.634v19.104c0,4.142,3.358,7.5,7.5,7.5h19.104v16.635h-19.104
	c-4.142,0-7.5,3.357-7.5,7.5v19.104h-16.634v-19.104c0-4.143-3.358-7.5-7.5-7.5h-19.104L221.079,216.776L221.079,216.776z"/>
<path d="M354.12,44.375h-46.786C303.689,19.313,282.057,0,256,0s-47.688,19.313-51.334,44.375H157.88
	c-12.44,0-22.561,10.121-22.561,22.561v11.787h-32.042c-24.031,0-43.583,19.551-43.583,43.582v346.113
	c0,24.031,19.551,43.582,43.583,43.582h36.01c4.142,0,7.5-3.358,7.5-7.5s-3.358-7.5-7.5-7.5h-36.01
	c-15.76,0-28.583-12.822-28.583-28.582V122.305c0-15.76,12.822-28.582,28.583-28.582h32.042v19.446h-32.042
	c-5.038,0-9.136,4.098-9.136,9.136v346.113c0,5.038,4.098,9.136,9.136,9.136h305.446c5.038,0,9.136-4.098,9.136-9.136V122.305
	c0-5.038-4.099-9.136-9.136-9.136h-32.042V93.723h32.042c15.76,0,28.583,12.822,28.583,28.582v346.113
	c0,15.76-12.822,28.582-28.583,28.582H169.287c-4.142,0-7.5,3.358-7.5,7.5s3.358,7.5,7.5,7.5h239.436
	c24.031,0,43.583-19.551,43.583-43.582V122.305c0-24.031-19.551-43.582-43.583-43.582h-32.042V66.936
	C376.681,54.496,366.56,44.375,354.12,44.375z M402.859,128.169v334.385H109.141V128.169h26.178v1.604
	c0,12.44,10.121,22.561,22.561,22.561h145.407c4.142,0,7.5-3.358,7.5-7.5s-3.358-7.5-7.5-7.5H157.88
	c-4.169,0-7.561-3.392-7.561-7.561V66.936c0-4.169,3.392-7.561,7.561-7.561h53.746c4.142,0,7.5-3.358,7.5-7.5
	C219.125,31.542,235.667,15,256,15c20.333,0,36.875,16.542,36.875,36.875c0,4.142,3.358,7.5,7.5,7.5h53.745
	c4.169,0,7.561,3.392,7.561,7.561v62.838c0,4.169-3.392,7.561-7.561,7.561h-20.833c-4.142,0-7.5,3.358-7.5,7.5s3.358,7.5,7.5,7.5
	h20.833c12.44,0,22.561-10.121,22.561-22.561v-1.604L402.859,128.169L402.859,128.169z"/>
<g>
</g>
<g>
</g>
<g>
</g>
<g>
</g>
<g>
</g>
<g>
</g>
<g>
</g>
<g>
</g>
<g>
</g>
<g>
</g>
<g>
</g>
<g>
</g>
<g>
</g>
<g>
</g>
<g>
</g>
</svg>
