<?xml version="1.0" encoding="UTF-8"?>
<svg xmlns="http://www.w3.org/2000/svg" xmlns:xlink="http://www.w3.org/1999/xlink" width="48pt" height="50pt" viewBox="0 0 48 50" version="1.1">
<g id="surface1">
<path style=" stroke:none;fill-rule:nonzero;fill:rgb(0%,0%,0%);fill-opacity:1;" d="M 28.550781 0.078125 C 28.242188 0.160156 28.027344 0.292969 27.941406 0.460938 C 27.910156 0.523438 27.871094 0.824219 27.84375 1.191406 C 27.53125 5.523438 26.851562 8.507812 25.757812 10.34375 C 25.207031 11.273438 24.664062 11.855469 23.460938 12.804688 C 22.128906 13.863281 21.390625 14.644531 20.992188 15.421875 C 20.933594 15.539062 20.710938 16.066406 20.488281 16.59375 C 19.3125 19.476562 18.269531 21.601562 17.207031 23.308594 C 16.167969 24.96875 15.054688 26.195312 14.132812 26.695312 C 13.675781 26.941406 13.425781 26.992188 12.699219 26.992188 L 12.054688 26.992188 L 12.054688 37.246094 C 12.054688 42.886719 12.0625 47.5 12.074219 47.5 C 12.085938 47.5 12.316406 47.542969 12.59375 47.59375 C 12.871094 47.648438 13.578125 47.78125 14.164062 47.886719 C 14.753906 47.996094 15.707031 48.171875 16.285156 48.28125 C 23.132812 49.546875 22.519531 49.445312 23.8125 49.550781 C 25.714844 49.703125 27.847656 49.835938 29.960938 49.929688 C 31.410156 49.992188 35.449219 49.992188 36.441406 49.929688 C 38.460938 49.796875 39.683594 49.578125 40.40625 49.21875 C 41.679688 48.582031 43.320312 47.050781 43.832031 46.023438 L 44 45.691406 L 44.023438 44.378906 C 44.039062 43.417969 44.058594 43.03125 44.097656 42.929688 C 44.210938 42.632812 44.464844 42.328125 45.292969 41.5 C 46.222656 40.578125 46.496094 40.253906 46.707031 39.824219 C 47.023438 39.1875 46.976562 38.824219 46.375 37.34375 C 45.976562 36.359375 45.824219 35.859375 45.824219 35.53125 C 45.824219 35.128906 46.074219 34.71875 46.886719 33.808594 C 47.785156 32.792969 48.03125 32.367188 47.96875 31.929688 C 47.929688 31.636719 47.726562 31.210938 47.265625 30.460938 C 46.472656 29.160156 46.261719 28.671875 46.3125 28.285156 C 46.351562 28 46.53125 27.683594 47.027344 27.03125 C 47.902344 25.878906 48.015625 25.652344 47.96875 25.132812 C 47.894531 24.300781 47.226562 22.960938 46.363281 21.894531 C 46.035156 21.492188 45.402344 20.878906 45.097656 20.679688 C 44.433594 20.234375 43.445312 20.058594 40.738281 19.917969 C 39.789062 19.867188 35.5 19.847656 32.691406 19.882812 L 31.078125 19.902344 L 30.984375 19.628906 C 30.796875 19.089844 30.871094 18.214844 31.195312 17.199219 C 31.511719 16.199219 31.898438 15.324219 32.960938 13.210938 C 33.382812 12.371094 33.800781 11.515625 33.886719 11.304688 C 34.222656 10.503906 34.46875 9.59375 34.621094 8.578125 C 34.707031 8.03125 34.71875 6.089844 34.640625 5.605469 C 34.355469 3.832031 33.882812 2.714844 33.019531 1.785156 C 31.855469 0.53125 29.816406 -0.25 28.550781 0.078125 Z M 28.550781 0.078125 "/>
<path style=" stroke:none;fill-rule:nonzero;fill:rgb(0%,0%,0%);fill-opacity:1;" d="M 1.515625 26.058594 C 1.03125 26.171875 0.484375 26.601562 0.242188 27.054688 C -0.015625 27.550781 0 26.800781 0 37.5 C 0 46.019531 0.0078125 47.238281 0.0585938 47.457031 C 0.226562 48.167969 0.792969 48.742188 1.511719 48.929688 C 1.761719 48.996094 8.234375 49.007812 8.519531 48.941406 C 9.230469 48.777344 9.878906 48.101562 10.011719 47.386719 C 10.066406 47.097656 10.066406 27.902344 10.011719 27.613281 C 9.878906 26.898438 9.230469 26.222656 8.519531 26.058594 C 8.296875 26.007812 1.734375 26.007812 1.515625 26.058594 Z M 1.515625 26.058594 "/>
</g>
</svg>
