<?xml version="1.0" encoding="UTF-8"?>
<svg xmlns="http://www.w3.org/2000/svg" xmlns:xlink="http://www.w3.org/1999/xlink" width="48pt" height="48pt" viewBox="0 0 48 48" version="1.1">
<g id="surface1">
<path style=" stroke:none;fill-rule:evenodd;fill:rgb(0%,0%,0%);fill-opacity:0.501961;" d="M 18.898438 8.699219 C 16.199219 8.699219 14.011719 10.511719 14.011719 12.734375 C 14.011719 14.261719 15.082031 15.546875 16.605469 16.230469 C 15.785156 16.390625 15.023438 16.605469 14.308594 16.875 C 13.484375 16.355469 12.5 15.988281 11.386719 15.988281 C 8.683594 15.988281 6.496094 17.800781 6.496094 20.023438 C 6.496094 21.554688 7.5625 22.851562 9.089844 23.535156 C 7.070312 23.925781 5.238281 24.609375 4.15625 25.664062 C 1.878906 28.773438 2.726562 31.222656 2.683594 31.664062 C 2.890625 31.902344 4.191406 32.808594 5.160156 32.730469 C 5.132812 32.210938 5.222656 31.660156 5.265625 31.09375 C 5.296875 30.5625 5.28125 30.289062 5.339844 29.746094 C 5.476562 28.679688 5.625 27.855469 5.625 27.855469 C 5.570312 27.902344 5.445312 28.800781 5.339844 29.746094 C 5.285156 30.167969 5.300781 30.628906 5.265625 31.09375 C 5.226562 31.710938 5.148438 32.449219 5.191406 32.730469 C 5.179688 32.730469 5.167969 32.730469 5.160156 32.730469 C 5.160156 32.738281 5.160156 32.75 5.160156 32.761719 C 5.265625 34.523438 6.121094 38.570312 6.496094 38.910156 C 9.648438 39.375 12.703125 39.328125 15.929688 39.074219 C 16.433594 39.035156 16.914062 39.050781 17.429688 39 C 17.429688 39 17.542969 37.816406 17.578125 37.46875 C 17.890625 36.410156 18.140625 35.140625 17.941406 33.960938 C 17.972656 33.628906 17.964844 33.644531 18 33.300781 C 17.960938 32.71875 17.894531 32.390625 17.835938 31.890625 C 17.839844 31.890625 17.84375 31.90625 17.851562 31.90625 C 17.917969 32.546875 18 33.300781 18 33.300781 C 19.261719 33.078125 20.160156 32.863281 21.421875 32.128906 C 21.453125 32.09375 21.464844 31.957031 21.496094 31.890625 C 22.039062 31.867188 22.589844 31.839844 23.144531 31.800781 C 23.308594 32.394531 23.5 33.199219 23.609375 33.300781 C 26.355469 33.707031 29.042969 33.699219 31.816406 33.539062 C 32.105469 34.945312 32.421875 36.191406 32.625 36.375 C 35.742188 36.835938 38.769531 36.796875 41.953125 36.554688 C 42.09375 36.554688 42.160156 36.546875 42.300781 36.539062 C 42.726562 36.503906 43.125 36.507812 43.558594 36.464844 C 43.558594 36.464844 43.675781 35.308594 43.710938 34.980469 C 44.015625 33.9375 44.253906 32.675781 44.070312 31.484375 C 44.105469 31.128906 44.109375 31.148438 44.144531 30.78125 C 44.0625 29.578125 43.90625 28.691406 43.769531 27.871094 C 43.65625 27.09375 43.546875 26.242188 43.394531 25.785156 C 43.382812 25.757812 43.566406 26.644531 43.769531 27.871094 C 43.980469 29.316406 44.144531 30.78125 44.144531 30.78125 C 45.40625 30.558594 46.289062 30.328125 47.550781 29.59375 C 47.964844 29.152344 48.175781 26.628906 46.304688 23.191406 C 45.507812 21.722656 43.082031 20.929688 40.320312 20.714844 C 41.554688 19.984375 42.421875 18.851562 42.421875 17.503906 C 42.421875 17.496094 42.421875 17.484375 42.421875 17.476562 C 42.453125 17.3125 42.507812 17.101562 42.523438 16.996094 C 42.425781 16.925781 42.355469 16.9375 42.269531 16.90625 C 41.90625 14.976562 39.960938 13.46875 37.515625 13.46875 C 35.488281 13.46875 33.757812 14.484375 33.015625 15.929688 C 33.246094 15.460938 33.390625 14.949219 33.390625 14.414062 C 33.390625 14.40625 33.390625 14.394531 33.390625 14.386719 C 33.421875 14.226562 33.480469 14.011719 33.496094 13.90625 C 33.390625 13.835938 33.324219 13.847656 33.238281 13.816406 C 32.871094 11.890625 30.941406 10.394531 28.5 10.394531 C 25.796875 10.394531 23.609375 12.191406 23.609375 14.414062 C 23.609375 15.140625 23.894531 15.792969 24.300781 16.378906 C 23.5 16.167969 22.632812 16.03125 21.703125 15.960938 C 22.765625 15.332031 23.480469 14.390625 23.671875 13.273438 C 23.742188 13.050781 23.753906 12.917969 23.789062 12.734375 C 23.789062 12.730469 23.789062 12.726562 23.789062 12.71875 C 23.824219 12.554688 23.878906 12.335938 23.894531 12.226562 C 23.792969 12.15625 23.726562 12.167969 23.640625 12.136719 C 23.273438 10.207031 21.34375 8.699219 18.898438 8.699219 Z M 33 15.988281 C 32.769531 16.457031 32.625 16.96875 32.625 17.503906 C 32.625 17.605469 32.691406 17.691406 32.699219 17.789062 C 32.246094 17.714844 31.785156 17.664062 31.304688 17.625 C 32.027344 17.195312 32.648438 16.671875 33 15.988281 Z M 33 15.988281 "/>
<path style="fill-rule:evenodd;fill:rgb(100%,54.117647%,0%);fill-opacity:1;stroke-width:2.241887;stroke-linecap:butt;stroke-linejoin:round;stroke:rgb(0%,0%,0%);stroke-opacity:1;stroke-miterlimit:4;" d="M 18.809039 66.310337 C 18.971874 64.68416 15.77438 55.67543 24.404652 44.220239 C 37.416675 31.887201 77.96267 31.743291 85.053408 44.407321 C 92.144146 57.071351 91.374379 66.396683 89.805239 68.03725 C 85.023801 70.728357 81.663473 71.534249 76.882035 72.354533 C 76.882035 72.354533 75.697779 58.798265 74.054622 53.99169 C 73.995409 53.833389 76.082662 61.31668 76.882035 72.354533 C 75.786598 83.277259 74.69116 93.322137 74.69116 93.322137 C 60.243226 94.718059 47.053565 94.991487 33.242169 93.005537 C 31.821061 91.753525 28.564355 76.844507 28.164668 70.354192 C 27.764981 62.870902 29.955857 52.264776 29.955857 52.264776 C 29.496957 52.638941 27.779785 66.770847 28.327503 70.253455 C 24.641504 70.613229 19.593609 67.188185 18.809039 66.310337 Z M 18.809039 66.310337 " transform="matrix(0.263879,0,0,0.271438,13.149979,6.434443)"/>
<path style="fill-rule:evenodd;fill:rgb(100%,54.117647%,0%);fill-opacity:1;stroke-width:2.241887;stroke-linecap:butt;stroke-linejoin:round;stroke:rgb(0%,0%,0%);stroke-opacity:1;stroke-miterlimit:4;" d="M 70.324213 23.439717 C 70.324213 31.642555 62.019612 38.29117 51.77579 38.29117 C 41.546771 38.29117 33.242169 31.642555 33.242169 23.439717 C 33.242169 15.25127 41.546771 8.602655 51.77579 8.602655 C 62.019612 8.602655 70.324213 15.25127 70.324213 23.439717 Z M 70.324213 23.439717 " transform="matrix(0.263879,0,0,0.271438,13.149979,6.434443)"/>
<path style=" stroke:none;fill-rule:evenodd;fill:rgb(100%,100%,100%);fill-opacity:0.25098;" d="M 26.742188 9.074219 C 24.613281 8.34375 19.589844 12.140625 23.570312 15.550781 C 25.984375 15.066406 21.34375 11.117188 26.742188 9.074219 Z M 26.742188 9.074219 "/>
<path style=" stroke:none;fill-rule:evenodd;fill:rgb(100%,100%,100%);fill-opacity:0.25098;" d="M 24.28125 16.527344 C 24.042969 16.476562 20.871094 17.0625 19.734375 18.671875 C 18.785156 19.253906 17.886719 22.03125 18.265625 24.273438 C 18.738281 24.664062 19.636719 25.296875 19.875 25.148438 C 21.203125 22.277344 16.75 19.304688 24.28125 16.527344 Z M 24.28125 16.527344 "/>
<path style=" stroke:none;fill-rule:evenodd;fill:rgb(100%,100%,100%);fill-opacity:0.25098;" d="M 21.105469 21.398438 C 20.160156 24.371094 21.058594 29.679688 22.101562 31.433594 C 23.144531 31.777344 24.613281 31.921875 24.941406 31.824219 C 25.226562 29.339844 21.011719 29.679688 21.105469 21.398438 Z M 21.105469 21.398438 "/>
<path style=" stroke:none;fill-rule:evenodd;fill:rgb(0%,0%,0%);fill-opacity:0.25098;" d="M 27.027344 16.625 C 31.054688 15.503906 30.011719 11.070312 31.8125 12.289062 C 31.667969 13.214844 31.101562 16.476562 27.027344 16.625 Z M 27.027344 16.625 "/>
<path style=" stroke:none;fill-rule:evenodd;fill:rgb(0%,0%,0%);fill-opacity:0.25098;" d="M 34.605469 25.589844 C 34.605469 25.589844 36.785156 25.148438 36.878906 24.710938 C 37.398438 23.007812 35.976562 18.960938 35.316406 18.28125 C 32.09375 17.109375 38.820312 25.050781 34.605469 25.589844 Z M 34.605469 25.589844 "/>
<path style=" stroke:none;fill-rule:evenodd;fill:rgb(0%,0%,0%);fill-opacity:0.239216;" d="M 30.296875 31.824219 C 30.296875 31.824219 32.378906 31.96875 32.617188 31.582031 C 32.851562 31.191406 33.941406 27.78125 33.277344 26.125 C 31.101562 24.273438 34.085938 31.777344 30.296875 31.824219 Z M 30.296875 31.824219 "/>
<path style="fill-rule:evenodd;fill:rgb(51.764706%,0%,100%);fill-opacity:1;stroke-width:2.241887;stroke-linecap:butt;stroke-linejoin:round;stroke:rgb(0%,0%,0%);stroke-opacity:1;stroke-miterlimit:4;" d="M 18.820146 66.311749 C 18.968178 64.685572 15.770684 55.676842 24.400956 44.221651 C 37.412979 31.888613 77.958974 31.744703 85.064515 44.408733 C 92.155253 57.072763 91.370683 66.398095 89.816346 68.024271 C 85.034909 70.729768 81.659777 71.535661 76.878339 72.355945 C 76.878339 72.355945 75.694083 58.799677 74.065729 53.993101 C 73.991713 53.834801 76.093769 61.318092 76.878339 72.355945 C 75.782902 83.278671 74.687464 93.323549 74.687464 93.323549 C 60.254333 94.719471 47.049869 94.992899 33.238473 93.006949 C 31.832168 91.754937 28.575462 76.845919 28.175775 70.355604 C 27.776089 62.872313 29.966964 52.266188 29.966964 52.266188 C 29.493261 52.640353 27.776089 66.772259 28.323807 70.254867 C 24.637808 70.614641 19.604716 67.189596 18.820146 66.311749 Z M 18.820146 66.311749 " transform="matrix(0.263879,0,0,0.271438,22.174392,9.516091)"/>
<path style="fill-rule:evenodd;fill:rgb(51.764706%,0%,100%);fill-opacity:1;stroke-width:2.241887;stroke-linecap:butt;stroke-linejoin:round;stroke:rgb(0%,0%,0%);stroke-opacity:1;stroke-miterlimit:4;" d="M 70.33532 23.441129 C 70.33532 31.643967 62.015916 38.292582 51.786897 38.292582 C 41.543075 38.292582 33.238473 31.643967 33.238473 23.441129 C 33.238473 15.252682 41.543075 8.604067 51.786897 8.604067 C 62.015916 8.604067 70.33532 15.252682 70.33532 23.441129 Z M 70.33532 23.441129 " transform="matrix(0.263879,0,0,0.271438,22.174392,9.516091)"/>
<path style=" stroke:none;fill-rule:evenodd;fill:rgb(100%,100%,100%);fill-opacity:0.25098;" d="M 35.765625 12.15625 C 33.636719 11.421875 28.617188 15.222656 32.59375 18.632812 C 35.007812 18.148438 30.367188 14.199219 35.765625 12.15625 Z M 35.765625 12.15625 "/>
<path style=" stroke:none;fill-rule:evenodd;fill:rgb(100%,100%,100%);fill-opacity:0.25098;" d="M 33.304688 19.609375 C 33.066406 19.558594 29.894531 20.144531 28.757812 21.75 C 27.808594 22.335938 26.910156 25.113281 27.289062 27.355469 C 27.761719 27.746094 28.664062 28.378906 28.898438 28.230469 C 30.226562 25.355469 25.773438 22.386719 33.304688 19.609375 Z M 33.304688 19.609375 "/>
<path style=" stroke:none;fill-rule:evenodd;fill:rgb(100%,100%,100%);fill-opacity:0.25098;" d="M 30.132812 24.480469 C 29.183594 27.453125 30.082031 32.761719 31.125 34.515625 C 32.167969 34.855469 33.636719 35.003906 33.96875 34.90625 C 34.25 32.421875 30.035156 32.761719 30.132812 24.480469 Z M 30.132812 24.480469 "/>
<path style=" stroke:none;fill-rule:evenodd;fill:rgb(0%,0%,0%);fill-opacity:0.25098;" d="M 36.050781 19.707031 C 40.078125 18.585938 39.035156 14.152344 40.835938 15.371094 C 40.691406 16.296875 40.125 19.558594 36.050781 19.707031 Z M 36.050781 19.707031 "/>
<path style=" stroke:none;fill-rule:evenodd;fill:rgb(0%,0%,0%);fill-opacity:0.25098;" d="M 43.628906 28.671875 C 43.628906 28.671875 45.808594 28.230469 45.902344 27.792969 C 46.421875 26.089844 45.003906 22.042969 44.339844 21.363281 C 41.121094 20.191406 47.84375 28.132812 43.628906 28.671875 Z M 43.628906 28.671875 "/>
<path style=" stroke:none;fill-rule:evenodd;fill:rgb(0%,0%,0%);fill-opacity:0.239216;" d="M 39.320312 34.90625 C 39.320312 34.90625 41.402344 35.050781 41.640625 34.664062 C 41.878906 34.273438 42.964844 30.863281 42.304688 29.207031 C 40.125 27.355469 43.109375 34.855469 39.320312 34.90625 Z M 39.320312 34.90625 "/>
<path style="fill-rule:evenodd;fill:rgb(0%,52.156863%,0%);fill-opacity:1;stroke-width:2.241887;stroke-linecap:butt;stroke-linejoin:round;stroke:rgb(0%,0%,0%);stroke-opacity:1;stroke-miterlimit:4;" d="M 18.811379 66.311492 C 18.974215 64.685315 15.761918 55.676585 24.39219 44.221394 C 37.419016 31.888356 77.965011 31.744446 85.055749 44.408476 C 92.146487 57.072506 91.37672 66.397837 89.807579 68.038405 C 85.026142 70.729511 81.65101 71.535404 76.869573 72.355688 C 76.869573 72.355688 75.700119 58.799419 74.056963 53.992844 C 73.99775 53.834544 76.085003 61.317834 76.869573 72.355688 C 75.788939 83.278414 74.693501 93.323292 74.693501 93.323292 C 60.245567 94.719214 47.055906 94.992642 33.229707 93.006691 C 31.823402 91.754679 28.566696 76.845662 28.167009 70.355347 C 27.767322 62.872056 29.958197 52.265931 29.958197 52.265931 C 29.499298 52.640096 27.782125 66.772002 28.329844 70.25461 C 24.643845 70.614384 19.59595 67.189339 18.811379 66.311492 Z M 18.811379 66.311492 " transform="matrix(0.263879,0,0,0.271438,3.555612,4.750536)"/>
<path style="fill-rule:evenodd;fill:rgb(0%,52.156863%,0%);fill-opacity:1;stroke-width:2.241887;stroke-linecap:butt;stroke-linejoin:round;stroke:rgb(0%,0%,0%);stroke-opacity:1;stroke-miterlimit:4;" d="M 70.326554 23.440872 C 70.326554 31.643709 62.021952 38.292325 51.77813 38.292325 C 41.549112 38.292325 33.229707 31.643709 33.229707 23.440872 C 33.229707 15.252425 41.549112 8.603809 51.77813 8.603809 C 62.021952 8.603809 70.326554 15.252425 70.326554 23.440872 Z M 70.326554 23.440872 " transform="matrix(0.263879,0,0,0.271438,3.555612,4.750536)"/>
<path style=" stroke:none;fill-rule:evenodd;fill:rgb(100%,100%,100%);fill-opacity:0.25098;" d="M 17.148438 7.390625 C 15.015625 6.65625 9.996094 10.457031 13.976562 13.867188 C 16.390625 13.382812 11.75 9.433594 17.148438 7.390625 Z M 17.148438 7.390625 "/>
<path style=" stroke:none;fill-rule:evenodd;fill:rgb(100%,100%,100%);fill-opacity:0.25098;" d="M 14.6875 14.84375 C 14.449219 14.792969 11.277344 15.378906 10.140625 16.988281 C 9.191406 17.570312 8.292969 20.347656 8.671875 22.589844 C 9.144531 22.980469 10.042969 23.613281 10.28125 23.464844 C 11.605469 20.589844 7.15625 17.621094 14.6875 14.84375 Z M 14.6875 14.84375 "/>
<path style=" stroke:none;fill-rule:evenodd;fill:rgb(100%,100%,100%);fill-opacity:0.25098;" d="M 11.511719 19.714844 C 10.566406 22.6875 11.464844 27.996094 12.507812 29.75 C 13.550781 30.089844 15.015625 30.238281 15.347656 30.140625 C 15.632812 27.65625 11.417969 27.996094 11.511719 19.714844 Z M 11.511719 19.714844 "/>
<path style=" stroke:none;fill-rule:evenodd;fill:rgb(0%,0%,0%);fill-opacity:0.25098;" d="M 17.433594 14.941406 C 21.457031 13.820312 20.417969 9.386719 22.214844 10.605469 C 22.074219 11.53125 21.503906 14.792969 17.433594 14.941406 Z M 17.433594 14.941406 "/>
<path style=" stroke:none;fill-rule:evenodd;fill:rgb(0%,0%,0%);fill-opacity:0.25098;" d="M 25.011719 23.90625 C 25.011719 23.90625 27.1875 23.464844 27.285156 23.027344 C 27.804688 21.324219 26.382812 17.277344 25.722656 16.597656 C 22.5 15.425781 29.226562 23.367188 25.011719 23.90625 Z M 25.011719 23.90625 "/>
<path style=" stroke:none;fill-rule:evenodd;fill:rgb(0%,0%,0%);fill-opacity:0.239216;" d="M 20.699219 30.140625 C 20.699219 30.140625 22.785156 30.285156 23.019531 29.898438 C 23.257812 29.507812 24.347656 26.097656 23.683594 24.441406 C 21.503906 22.589844 24.488281 30.089844 20.699219 30.140625 Z M 20.699219 30.140625 "/>
<path style="fill-rule:evenodd;fill:rgb(0%,0%,80%);fill-opacity:1;stroke-width:2.241887;stroke-linecap:butt;stroke-linejoin:round;stroke:rgb(0%,0%,0%);stroke-opacity:1;stroke-miterlimit:4;" d="M 18.821049 66.311518 C 18.969081 64.685341 15.771588 55.676611 24.40186 44.22142 C 37.413882 31.888382 77.959877 31.744472 85.050615 44.408502 C 92.156156 57.072533 91.371586 66.397864 89.817249 68.038431 C 85.035812 70.729538 81.66068 71.53543 76.879243 72.355714 C 76.879243 72.355714 75.694986 58.799446 74.066633 53.992871 C 73.992617 53.83457 76.079869 61.317861 76.879243 72.355714 C 75.783805 83.27844 74.688368 93.323319 74.688368 93.323319 C 60.240434 94.71924 47.050773 94.992668 33.239377 93.006718 C 31.833072 91.754706 28.576365 76.845689 28.176679 70.355373 C 27.776992 62.872083 29.967867 52.265957 29.967867 52.265957 C 29.494164 52.640122 27.776992 66.772028 28.324711 70.254637 C 24.638711 70.61441 19.605619 67.189366 18.821049 66.311518 Z M 18.821049 66.311518 " transform="matrix(0.263879,0,0,0.271438,-3.962565,12.043498)"/>
<path style="fill-rule:evenodd;fill:rgb(0%,0%,80%);fill-opacity:1;stroke-width:2.241887;stroke-linecap:butt;stroke-linejoin:round;stroke:rgb(0%,0%,0%);stroke-opacity:1;stroke-miterlimit:4;" d="M 70.336223 23.440898 C 70.336223 31.643736 62.016819 38.292352 51.7878 38.292352 C 41.543978 38.292352 33.239377 31.643736 33.239377 23.440898 C 33.239377 15.252451 41.543978 8.603836 51.7878 8.603836 C 62.016819 8.603836 70.336223 15.252451 70.336223 23.440898 Z M 70.336223 23.440898 " transform="matrix(0.263879,0,0,0.271438,-3.962565,12.043498)"/>
<path style=" stroke:none;fill-rule:evenodd;fill:rgb(100%,100%,100%);fill-opacity:0.25098;" d="M 9.628906 14.683594 C 7.5 13.949219 2.480469 17.75 6.457031 21.160156 C 8.871094 20.675781 4.230469 16.726562 9.628906 14.683594 Z M 9.628906 14.683594 "/>
<path style=" stroke:none;fill-rule:evenodd;fill:rgb(100%,100%,100%);fill-opacity:0.25098;" d="M 7.167969 22.136719 C 6.929688 22.085938 3.757812 22.671875 2.621094 24.28125 C 1.671875 24.863281 0.773438 27.640625 1.152344 29.882812 C 1.625 30.273438 2.527344 30.90625 2.761719 30.757812 C 4.089844 27.882812 -0.363281 24.914062 7.167969 22.136719 Z M 7.167969 22.136719 "/>
<path style=" stroke:none;fill-rule:evenodd;fill:rgb(100%,100%,100%);fill-opacity:0.25098;" d="M 3.996094 27.007812 C 3.046875 29.980469 3.945312 35.289062 4.988281 37.042969 C 6.03125 37.382812 7.5 37.53125 7.832031 37.433594 C 8.113281 34.949219 3.898438 35.289062 3.996094 27.007812 Z M 3.996094 27.007812 "/>
<path style=" stroke:none;fill-rule:evenodd;fill:rgb(0%,0%,0%);fill-opacity:0.25098;" d="M 9.914062 22.234375 C 13.941406 21.113281 12.898438 16.679688 14.699219 17.898438 C 14.554688 18.824219 13.988281 22.085938 9.914062 22.234375 Z M 9.914062 22.234375 "/>
<path style=" stroke:none;fill-rule:evenodd;fill:rgb(0%,0%,0%);fill-opacity:0.25098;" d="M 17.492188 31.199219 C 17.492188 31.199219 19.671875 30.757812 19.765625 30.320312 C 20.285156 28.617188 18.867188 24.570312 18.203125 23.890625 C 14.980469 22.71875 21.707031 30.660156 17.492188 31.199219 Z M 17.492188 31.199219 "/>
<path style=" stroke:none;fill-rule:evenodd;fill:rgb(0%,0%,0%);fill-opacity:0.239216;" d="M 13.183594 37.433594 C 13.183594 37.433594 15.265625 37.578125 15.503906 37.191406 C 15.738281 36.800781 16.828125 33.390625 16.167969 31.734375 C 13.988281 29.882812 16.972656 37.382812 13.183594 37.433594 Z M 13.183594 37.433594 "/>
</g>
</svg>
