<?xml version="1.0" encoding="UTF-8"?>
<svg xmlns="http://www.w3.org/2000/svg" xmlns:xlink="http://www.w3.org/1999/xlink" width="48pt" height="48pt" viewBox="0 0 48 48" version="1.1">
<g id="surface1">
<path style=" stroke:none;fill-rule:nonzero;fill:rgb(0%,0%,0%);fill-opacity:1;" d="M 23.121094 21.183594 L 23.121094 17.417969 C 23.121094 16.726562 23.640625 16.101562 24.335938 16.101562 L 45.597656 16.101562 C 46.292969 16.101562 46.890625 16.726562 46.890625 17.417969 L 46.890625 31.386719 C 46.890625 32.082031 46.292969 32.703125 45.597656 32.703125 L 36.199219 32.703125 L 36.199219 36.222656 L 41.210938 36.222656 C 41.90625 36.222656 42.46875 36.761719 42.46875 37.457031 C 42.46875 38.152344 41.90625 38.691406 41.210938 38.691406 L 28.722656 38.699219 C 28.027344 38.699219 27.464844 38.148438 27.464844 37.453125 C 27.464844 36.761719 28.027344 36.222656 28.722656 36.222656 L 33.683594 36.222656 L 33.683594 32.703125 L 27.222656 32.703125 C 26.527344 32.703125 25.964844 32.140625 25.964844 31.445312 C 25.964844 30.75 26.527344 30.1875 27.222656 30.1875 L 44.375 30.1875 L 44.375 18.617188 L 25.636719 18.617188 L 25.636719 21.183594 C 25.636719 21.878906 25.070312 22.441406 24.378906 22.441406 C 23.683594 22.441406 23.121094 21.878906 23.121094 21.183594 Z M 4.953125 10.023438 C 5.125 5.355469 8.96875 3.097656 12.460938 2.972656 C 12.492188 2.972656 12.519531 2.972656 12.550781 2.972656 C 16.042969 3.097656 19.886719 5.355469 20.058594 10.027344 C 20.203125 13.847656 18.769531 16.941406 16.125 18.507812 C 15.007812 19.171875 13.757812 19.503906 12.503906 19.503906 C 11.253906 19.503906 10.003906 19.171875 8.886719 18.507812 C 6.242188 16.9375 4.808594 13.847656 4.953125 10.023438 Z M 10.171875 16.347656 C 11.609375 17.203125 13.402344 17.203125 14.839844 16.347656 C 16.667969 15.261719 17.652344 12.992188 17.546875 10.121094 C 17.429688 7.058594 14.941406 5.589844 12.503906 5.488281 C 10.070312 5.589844 7.578125 7.058594 7.464844 10.121094 C 7.359375 12.992188 8.34375 15.261719 10.171875 16.347656 Z M 14.273438 28.804688 C 13.578125 28.804688 13.015625 29.367188 13.015625 30.0625 C 13.015625 30.753906 13.578125 31.320312 14.273438 31.320312 L 14.289062 31.320312 C 14.984375 31.320312 15.546875 30.753906 15.546875 30.0625 C 15.546875 29.367188 14.984375 28.804688 14.289062 28.804688 Z M 3.03125 38.683594 L 15.519531 38.683594 C 16.214844 38.683594 16.777344 38.121094 16.777344 37.425781 C 16.777344 36.734375 16.214844 36.167969 15.519531 36.167969 L 4.542969 36.171875 L 5.835938 29.1875 C 6.429688 25.980469 9.613281 24.542969 12.503906 24.542969 C 15.398438 24.542969 18.582031 25.980469 19.175781 29.1875 L 20.746094 37.65625 C 20.855469 38.261719 21.386719 38.6875 21.980469 38.6875 C 22.054688 38.6875 22.132812 38.679688 22.210938 38.664062 C 22.894531 38.539062 23.34375 37.882812 23.21875 37.199219 L 21.648438 28.730469 C 20.792969 24.101562 16.4375 22.027344 12.503906 22.027344 C 8.574219 22.027344 4.21875 24.101562 3.363281 28.730469 L 1.792969 37.199219 C 1.726562 37.566406 1.824219 37.945312 2.0625 38.230469 C 2.300781 38.519531 2.65625 38.683594 3.03125 38.683594 Z M 46.742188 42.511719 L 1.257812 42.511719 C 0.5625 42.511719 0 43.074219 0 43.769531 C 0 44.464844 0.5625 45.027344 1.257812 45.027344 L 46.742188 45.027344 C 47.4375 45.027344 48 44.464844 48 43.769531 C 48 43.074219 47.4375 42.511719 46.742188 42.511719 Z M 46.742188 42.511719 "/>
</g>
</svg>
