<svg xmlns="http://www.w3.org/2000/svg"  viewBox="0 0 48 48" width="48px" height="48px" baseProfile="basic"><path d="M35,8H13c-3.86,0-7,3.141-7,7v22c0,3.859,3.14,7,7,7h22c3.86,0,7-3.141,7-7V15C42,11.141,38.86,8,35,8z"/><path fill="#fff" d="M35,41H13c-3.314,0-6-2.686-6-6V13c0-3.314,2.686-6,6-6h22c3.314,0,6,2.686,6,6v22	C41,38.314,38.314,41,35,41z"/><path d="M35,42H13c-3.86,0-7-3.141-7-7V13c0-3.859,3.14-7,7-7h22c3.86,0,7,3.141,7,7v22C42,38.859,38.86,42,35,42z M13,8	c-2.757,0-5,2.243-5,5v22c0,2.757,2.243,5,5,5h22c2.757,0,5-2.243,5-5V13c0-2.757-2.243-5-5-5H13z"/><rect width="2" height="34" x="34" y="7"/><rect width="6" height="2" x="35" y="23"/><rect width="6" height="2" x="35" y="15"/><rect width="6" height="2" x="35" y="31"/><path d="M21,34c-5.514,0-10-4.486-10-10s4.486-10,10-10s10,4.486,10,10S26.514,34,21,34z M21,16c-4.411,0-8,3.589-8,8s3.589,8,8,8	s8-3.589,8-8S25.411,16,21,16z"/><path d="M21,27c-2.678,0-5.105,1.059-6.9,2.774C15.751,31.745,18.228,33,21,33s5.249-1.255,6.9-3.226C26.105,28.059,23.678,27,21,27	z"/><circle cx="21" cy="22" r="3"/></svg>