<?xml version="1.0" standalone="yes"?>
<svg xmlns="http://www.w3.org/2000/svg" xmlns:xlink="http://www.w3.org/1999/xlink" xmlns:svg="http://www.w3.org/2000/svg" xmlns:dc="http://purl.org/dc/elements/1.1/" xmlns:cc="http://web.resource.org/cc/" xmlns:rdf="http://www.w3.org/1999/02/22-rdf-syntax-ns#" width="381" height="450">
<path style="fill:#ffffff; stroke:none;" d="M0 0L0 450L381 450L381 0L0 0z"/>
<path style="fill:#588dd0; stroke:none;" d="M183 12L183 13L208 17C201.95 10.9385 191.001 10.0952 183 12z"/>
<path style="fill:#5fa3ff; stroke:none;" d="M181 12C181 16.0404 174 16.3334 171 18.1667C161.479 23.9848 151.889 31.3921 143 37.8333C115.926 57.4521 88.6675 75.7965 62 96.6667C50.5236 105.648 34.4953 111.674 24 122C21.218 124.737 20.0018 130.203 25 131C32.316 132.166 58.5134 126.269 60 136C61.8372 148.025 60 161.815 60 174L60 252C60 263.842 56.6117 281.607 60.1667 292.833C61.2412 296.227 65.2267 296.216 68 297.333C75.2453 300.252 82.3235 308.394 90 309L90 184L90 152C89.9997 147.8 88.9437 142.426 91.662 138.874C99.402 128.761 121.791 133 133 133L249 133C260.174 133 285.838 128.298 293.106 139.059C295.939 143.252 295 149.202 295 154L295 186L295 309L305 304L304 302L310 301L322 292L322 258L322 188L322 131L353 131C356.217 130.993 363.238 131.302 360.914 125.985C356.626 116.178 339.081 115.061 336 106L261 53.3889L244 41.3333L237 36C232.064 33.762 224.783 31.5951 223 26L200 13.9275L181 12z"/>
<path style="fill:#387ede; stroke:none;" d="M174 16L174 17L182 14L174 16z"/>
<path style="fill:#4478c0; stroke:none;" d="M161 26L164 24L161 26z"/>
<path style="fill:#5d85c6; stroke:none;" d="M222 27L232 34L222 27z"/>
<path style="fill:#5091e3; stroke:none;" d="M147 35L147 36L157 29L147 35z"/>
<path style="fill:#4478c0; stroke:none;" d="M236 37L239 39L236 37z"/>
<path style="fill:#387ede; stroke:none;" d="M137 43L140 41L137 43z"/>
<path style="fill:#4e81d4; stroke:none;" d="M113 59L113 60L119 56L113 59z"/>
<path style="fill:#4385dd; stroke:none;" d="M102 68L109 63L102 68z"/>
<path style="fill:#498cf2; stroke:none;" d="M279 67L290 75L279 67z"/>
<path style="fill:#4e81d4; stroke:none;" d="M58 99L65 94L58 99z"/>
<path style="fill:#4385dd; stroke:none;" d="M48 105L48 106L55 101L48 105z"/>
<path style="fill:#5d85c6; stroke:none;" d="M335 107L335 108L341 111L335 107z"/>
<path style="fill:#4e81d4; stroke:none;" d="M31 118L38 113L31 118z"/>
<path style="fill:#3f7ed0; stroke:none;" d="M28 120L31 118L28 120z"/>
<path style="fill:#5082c5; stroke:none;" d="M21 125C20.2901 128.058 20.3308 129.268 23 131L21 125z"/>
<path style="fill:#3f7ed0; stroke:none;" d="M23 131L23 132L58 132L23 131M322 131L322 132L358 132C348.44 127.989 332.387 131 322 131z"/>
<path style="fill:#b5d5ff; stroke:none;" d="M26 132L26 133L59 133L26 132M323 132L323 133L356 133L323 132z"/>
<path style="fill:#e5ffff; stroke:none;" d="M58 133L58 250L57 296L83 306C76.5909 299.867 67.7263 296.176 59 295L59 181C59 167.485 63.2064 145.407 58 133z"/>
<path style="fill:#588dd0; stroke:none;" d="M59 133L59 257L59 286C59 289.654 57.7791 294.095 62 295L62 294C55.8309 285.857 60 263.161 60 253L60 169C60 158.628 63.0077 142.551 59 133z"/>
<path style="fill:#5091e3; stroke:none;" d="M101 133L101 134L285 134L267 133L230 133L101 133z"/>
<path style="fill:#4478c0; stroke:none;" d="M322 133L322 256C322 266.063 326.783 291.627 316 296L316 297L323 296L323 182C323 168.223 327.306 145.645 322 133z"/>
<path style="fill:#6ba0ec; stroke:none;" d="M91 311L92 311L92 183L92 152C92 147.531 91.0367 141.809 94.3179 138.228C98.0484 134.157 104.017 135 109 135L143 135L286 135C274.306 130.093 253.73 134 241 134L137 134L104 134C99.6718 134.007 94.4829 133.747 92.0278 138.109C89.8077 142.053 91 148.625 91 153L91 187L91 311z"/>
<path style="fill:#588dd0; stroke:none;" d="M288 135L288 136L293 139L288 135z"/>
<path style="fill:#5091e3; stroke:none;" d="M293 139L294 198L294 310L299 307L295 309L295 185L295 153L293 139z"/>
<path style="fill:#498cf2; stroke:none;" d="M90 140C85.6558 179.516 90 222.16 90 262C90 275.155 94.4458 298.41 88 310L92 312C88.8138 298.617 91 282.729 91 269L91 185C91 172.271 94.9069 151.694 90 140z"/>
<path style="fill:#709edb; stroke:none;" d="M293 141L293 312L296 311C290.326 300.798 294 281.53 294 270L294 180C294 168.842 297.308 151.266 293 141z"/>
<path style="fill:#e5e5e5; stroke:none;" d="M119 259C126.343 255.576 137.829 244.245 133.987 235.09C131.195 228.437 125.124 224.903 124.341 217C123.388 207.38 128.15 195.749 129 186C133.132 188.354 138.07 194.067 142.961 194.204C149.718 194.393 157.492 185.242 163 182.019C172.385 176.528 182.293 175 193 175L193 173L176 174L176 173L194 172C195.345 161.965 206.329 161.015 214 157C202.908 150.778 185.933 152.123 174 154.718C125.342 165.3 100.573 212.38 119 259z"/>
<path style="fill:#85afeb; stroke:none;" d="M194 178L195 178L195 174L206 176L212 171L214 180C230.365 180.827 245.576 203.585 249 218C262.987 193.238 245.951 162.611 219 155.832C214.953 154.814 211.428 157.995 208 159.601C197.365 164.583 194 165.333 194 178z"/>
<path style="fill:#5fa3ff; stroke:none;" d="M229 156L230 158L225 159L225 160L253 183L258 170C264.84 175.883 269.1 185.016 270 194C272.534 190.655 271.664 186.993 272.478 183.015C273.581 177.625 276.406 171.776 273.655 166.214C271.76 162.381 266.507 161.993 263 160.475C253.165 156.215 239.967 154.055 229 156z"/>
<path style="fill:#3f7ed0; stroke:none;" d="M223 158L223 159L230 158L223 158z"/>
<path style="fill:#4478c0; stroke:none;" d="M274 168L274 173L275 173L274 168z"/>
<path style="fill:#e9e9eb; stroke:none;" d="M205 177L214 180L212 171L205 177z"/>
<path style="fill:#ffffff; stroke:none;" d="M176 173L176 174L193 173L193 175C173.449 175 163.382 182.898 147 192L147 193C160.059 193.001 165.254 194.721 176 186L178 192L195 189L194 172L176 173z"/>
<path style="fill:#5091e3; stroke:none;" d="M195 174L196 188L197 188L196 175L204 177L200 189C207.419 181.33 205.556 174.03 195 174z"/>
<path style="fill:#5fa3ff; stroke:none;" d="M196 175L197 193L198 193L201 191L204 177L196 175z"/>
<path style="fill:#4478c0; stroke:none;" d="M254 176L253 185L254 185L254 176z"/>
<path style="fill:#ffffff; stroke:none;" d="M205 177C204.23 180.328 201.022 186.257 203.068 189.451C206.869 195.387 213.71 193.133 214 202L215 202L215 180L205 177z"/>
<path style="fill:#498cf2; stroke:none;" d="M265 178L269 192L270 192L265 178M273 178L273 197L273 178z"/>
<path style="fill:#5091e3; stroke:none;" d="M215 179L216 195L217 195L216 181L232 191C228.721 184.877 221.529 180.884 215 179z"/>
<path style="fill:#5fa3ff; stroke:none;" d="M216 181C216.829 185.465 215.846 191.882 218.028 195.83C222.04 203.091 230.047 207.029 233.688 215.001C244.357 238.367 239.059 263.866 219.979 281.246C214.406 286.323 210.373 291.465 203 294C203 302.076 197.931 321.771 203.179 328.397C205.893 331.823 216.071 330 220 330C235.018 330 253.478 325.663 268 329C265.71 299.988 275.308 269.233 268 241L266 241C261.262 254.969 256.207 280.984 238 283C238.326 271.864 246.381 261.689 249.104 251C255.998 223.941 245.436 189.662 216 181z"/>
<path style="fill:#e5e5e5; stroke:none;" d="M195 182L195 189L178 192L181.564 207.879L195 207L195 208L183 212C193.094 209.513 199.434 212.265 209 215L203 211L203 210L219 221L212.976 195.634L202 188L201 188L197 197L195 182z"/>
<path style="fill:#85afe8; stroke:none;" d="M129 186C127.47 196.404 122.16 210.768 124.927 221C126.584 227.124 131.039 230.713 134 236L135 236C135 219.36 139.377 209.243 145 194L129 186z"/>
<path style="fill:#7a98be; stroke:none;" d="M174 187L182 212L176 186L174 187z"/>
<path style="fill:#5fa3ff; stroke:none;" d="M176 188C171.115 188.751 168.232 193.124 163.576 193.896C157.844 194.846 150.666 190.502 145.471 194.742C130.128 207.265 133.391 237.577 140.9 252.91C145.841 262.998 154.395 271.535 165 275.405C167.772 276.417 173.612 278.785 176.397 276.883C180.167 274.308 177.78 264.37 174.697 262.135C169.482 258.355 163.712 257.158 159.214 251.985C148.182 239.297 148.849 219.516 157.927 206.174C162.391 199.612 174.686 195.644 176 188z"/>
<path style="fill:#87a4d7; stroke:none;" d="M196 188L197 197L200 190L199 190L198 193L197 193L196 188z"/>
<path style="fill:#95c3ff; stroke:none;" d="M215 188L215 195L216 195L215 188z"/>
<path style="fill:#e5e5e5; stroke:none;" d="M254 189C254 194.718 255.349 201.431 254.52 207C253.934 210.936 250.708 214.032 250.383 218C249.826 224.824 259.48 233.424 265 236C266.613 221.56 264.312 200.118 254 189z"/>
<path style="fill:#85afe8; stroke:none;" d="M176 191C169.146 195.043 161.75 199.267 157.338 206.174C144.774 225.84 150.937 256.744 176 262C171.11 248.562 166.159 241.941 169.39 227C170.808 220.446 176.395 217.441 178.799 211.83C180.644 207.526 178.166 195.075 176 191M215 195C215 212.099 223.978 230.068 220.485 247C218.901 254.681 214.669 261.567 208.985 266.906C206.407 269.328 201.793 271.144 200.067 274.263C197.411 279.063 200.999 290.395 201 296L202 296C206.935 287.298 221.001 282.486 227.711 273.996C245.224 251.834 244.649 207.553 215 195z"/>
<path style="fill:#7a98be; stroke:none;" d="M253 196L250 216L251 216C254.153 210.372 255.572 202.129 253 196z"/>
<path style="fill:#a5c1e5; stroke:none;" d="M254 203L254 209L255 209L254 203z"/>
<path style="fill:#ffffff; stroke:none;" d="M181 209C182.17 215.306 182.012 220.54 178.2 226C175.521 229.836 170.241 233.181 169.372 238C167.904 246.138 179.276 256.207 186.887 251.566C192.394 248.208 186.552 222.649 200.955 232.277C202.436 233.267 203.736 234.777 205 236L206 236C215.668 226.305 222.391 213.512 203 210L203 211L209 215C200.054 211.331 192.549 208.98 183 212L195 208L181 209z"/>
<path style="fill:#5fa3ff; stroke:none;" d="M179 212C171.64 218.138 169.006 224.563 169 234L178 228L182 220L179 212z"/>
<path style="fill:#387ede; stroke:none;" d="M180 212L181 219L182 219L180 212z"/>
<path style="fill:#4478c0; stroke:none;" d="M180 220L178 226L179 226L180 220z"/>
<path style="fill:#5fa3ff; stroke:none;" d="M217 223L205 237C209.234 244.766 202.229 250.277 199.702 257.17C197.929 262.007 198.577 268.936 199 274C216.523 265.399 229.103 241.313 217 223z"/>
<path style="fill:#85afe8; stroke:none;" d="M251 224L248.56 252L238 283C258.125 281.9 259.611 254.328 267 241L267 240L251 224z"/>
<path style="fill:#588dd0; stroke:none;" d="M169 236L177 228L169 236z"/>
<path style="fill:#3f7ed0; stroke:none;" d="M212 229L206 237L212 229z"/>
<path style="fill:#e5e5e5; stroke:none;" d="M169 237L168 237C165.551 250.393 178.912 274.692 194.682 261.852C197.988 259.16 196.916 253.768 197.848 250C199.127 244.83 202.489 240.847 206 237C204.764 235.266 203.65 233.626 201.941 232.293C187.013 220.655 191.877 246.073 188.473 249.687C180.114 258.561 170.003 244.997 169 237z"/>
<path style="fill:#85afe8; stroke:none;" d="M135 238C132.782 247.251 121.524 252.609 120.133 261C119.26 266.266 125.352 273.204 128.616 276.715C139.853 288.8 154.267 296.989 171 297L177 278C161.477 275.074 149.994 267.752 141.89 253.83C138.967 248.807 138.484 242.658 135 238M197 258C204.158 254.003 206.833 245.839 207 238C198.501 240.5 197.064 250.284 197 258z"/>
<path style="fill:#498cf2; stroke:none;" d="M269 245L271 261L272 261L269 245z"/>
<path style="fill:#3f7ed0; stroke:none;" d="M198 257L198 269L199 269L198 257z"/>
<path style="fill:#ffffff; stroke:none;" d="M177 264L178 279C182.709 278.999 196.023 279.902 198.382 274.686C199.963 271.19 198.011 264.858 198 261L177 264z"/>
<path style="fill:#3f7ed0; stroke:none;" d="M270 261L270 270L271 270L270 261z"/>
<path style="fill:#95c3ff; stroke:none;" d="M271 261L271 266L272 266L271 261z"/>
<path style="fill:#4385dd; stroke:none;" d="M116 266L120 262L116 266z"/>
<path style="fill:#5fa3ff; stroke:none;" d="M125 328L125 329L121 329L121 330L150 330L163 331L164 331C163.824 322.449 161.474 311.936 168 305L167 299C147.499 295.216 129.139 282.859 121 264C111.18 266.341 108.524 277.618 105.204 286C102.325 293.268 95.9965 308.155 98.6427 315.961C102.145 326.291 115.997 327.999 125 328z"/>
<path style="fill:#4385dd; stroke:none;" d="M109 275L106 283L107 283L109 275z"/>
<path style="fill:#e5e5e5; stroke:none;" d="M178 277L177 277L171 297L192 296L192 297L171 298L171 299C177.359 300.514 195.593 301.015 199.566 294.581C202.637 289.61 200.262 281.24 199 276C192.858 277.589 183.497 281.164 178 277z"/>
<path style="fill:#4e81d4; stroke:none;" d="M105 283C101.945 290.92 91.0738 314.526 101 320C93.9857 307.054 108.323 294.98 105 283z"/>
<path style="fill:#5091e3; stroke:none;" d="M139 287C145.205 294.901 157.427 297.764 167 299L167 304L168 304L170 297L139 287M201 328L202 328L203 294L215 288C196.528 284.981 201 317.56 201 328z"/>
<path style="fill:#a6d1ff; stroke:none;" d="M201 296L201 304L202 304L201 296z"/>
<path style="fill:#95c3ff; stroke:none;" d="M267 297L267 302L268 302L267 297z"/>
<path style="fill:#3f7ed0; stroke:none;" d="M309 299L309 300L313 299L309 299z"/>
<path style="fill:#4478c0; stroke:none;" d="M304 302L304 303L308 302L304 302z"/>
<path style="fill:#4385dd; stroke:none;" d="M166 305L163 325L164 325L166 305z"/>
<path style="fill:#5fa3ff; stroke:none;" d="M65 442C70.213 436.64 77.8619 434.861 84 430.817C93.9263 424.277 102.35 410.684 115 410L115 409L112 409L112 408L154 405.004L264 407L264 408L261 408L261 409L271 408L271 409L269 409L269 410C279.98 410.571 288.256 418.485 295.989 425.424C300.001 429.024 303.242 433.8 309 434L309 437L311 437L310 430L312 433L318 433L318 435L312 435L312 439L318 438L321 442L321 433L323 433L323 441L324 441L324 434L325 434L325 442L327 442C327.299 432.796 338.439 430.008 340 440L344 440C345.433 430.824 356.778 435.448 361.828 427C369.664 413.893 367.856 394.369 366 380C360.239 380 366 361.47 366 357L367 357L367 360L368 360L363.931 329L355 314C344.069 308.474 335.235 306 323 306C323 308.646 310.241 313.816 307 315.167C291.939 321.442 281.407 343.207 264 340C256.234 346.656 237.535 341.866 228.019 342.042C199.773 342.562 170.122 341.929 142 342.981C132.898 343.322 123.953 342.116 115 340.593C111.451 339.989 107.009 339.952 106 336C87.6408 323.856 72.6925 304.331 48 306.529C24.2454 308.643 14.6693 332.289 16.7415 353C17.4731 360.312 21.6402 367.65 21.6312 375C21.6223 382.291 17.5568 390.012 16.2593 397.17C14.531 406.703 19.4685 422.105 25.017 429.91C35.049 444.023 50.826 439.234 65 442z"/>
<path style="fill:#387ede; stroke:none;" d="M51 306L51 307L75 313C68.8013 306.74 59.3756 306.006 51 306M267 306L267 325L268 325L267 306z"/>
<path style="fill:#498cf2; stroke:none;" d="M305 315L305 316L324 308C317.811 305.805 309.996 311.705 305 315z"/>
<path style="fill:#4478c0; stroke:none;" d="M344 309L344 310L348 311L348 310L344 309z"/>
<path style="fill:#95c3ff; stroke:none;" d="M165.333 312.667L165.667 313.333L165.333 312.667z"/>
<path style="fill:#4e81d4; stroke:none;" d="M354 315C363.841 329.139 367 338.698 367 356L368 356C368 341.968 369.232 322.163 354 315z"/>
<path style="fill:#387ede; stroke:none;" d="M101 320L106 324L101 320z"/>
<path style="fill:#3f7ed0; stroke:none;" d="M107 325L107 326L125 329L125 328L107 325z"/>
<path style="fill:#a5c1e5; stroke:none;" d="M201 328L201 331L202 331L201 328z"/>
<path style="fill:#5d85c6; stroke:none;" d="M202 328C202.904 332.221 207.346 331 211 331L240 331L240 330C229.155 330 211.611 333.345 202 328z"/>
<path style="fill:#387ede; stroke:none;" d="M260 328L260 329L267 329L260 328z"/>
<path style="fill:#3f7ed0; stroke:none;" d="M126 329L126 330L142 330L126 329z"/>
<path style="fill:#588dd0; stroke:none;" d="M162 329L144 330L144 331L162 329z"/>
<path style="fill:#3f7ed0; stroke:none;" d="M240 329L240 330L259 330L240 329z"/>
<path style="fill:#a6d1ff; stroke:none;" d="M259 329L259 330L264 330L259 329z"/>
<path style="fill:#87a4d7; stroke:none;" d="M136 330L136 331L144 331L136 330z"/>
<path style="fill:#85afe8; stroke:none;" d="M240 330L240 331L248 331L240 330z"/>
<path style="fill:#588dd0; stroke:none;" d="M105 337L105 338L114 340L114 339L105 337z"/>
<path style="fill:#4e81d4; stroke:none;" d="M266 340L266 341L279 338L266 340z"/>
<path style="fill:#4385dd; stroke:none;" d="M114 340L114 341L147 343L114 340z"/>
<path style="fill:#95c3ff; stroke:none;" d="M259 340L259 341L264 341L259 340M131 341L131 342L138 342L131 341z"/>
<path style="fill:#a5c1e5; stroke:none;" d="M246 341L246 342L252 342L246 341z"/>
<path style="fill:#3f7ed0; stroke:none;" d="M252 341L252 342L264 342L252 341z"/>
<path style="fill:#4e81d4; stroke:none;" d="M16 342L16 352L17 352L16 342z"/>
<path style="fill:#95c3ff; stroke:none;" d="M160 342L160 343L168 343L160 342z"/>
<path style="fill:#c6edff; stroke:none;" d="M168 342L168 343L216 343C203.586 337.791 181.526 342 168 342z"/>
<path style="fill:#95c3ff; stroke:none;" d="M216 342L216 343L224 343L216 342z"/>
<path style="fill:#3f7ed0; stroke:none;" d="M232 342L232 343L251 343L232 342z"/>
<path style="fill:#a5c1e5; stroke:none;" d="M368 342L368 352L369 352L368 342z"/>
<path style="fill:#3f7ed0; stroke:none;" d="M160 343L160 344L224 344L204 343L160 343z"/>
<path style="fill:#9ec8fa; stroke:none;" d="M16 354L16 357L17 357L16 354z"/>
<path style="fill:#4478c0; stroke:none;" d="M17 355L19 369L20 369L17 355z"/>
<path style="fill:#5082c5; stroke:none;" d="M366 357L366 363L367 363L366 357z"/>
<path style="fill:#588dd0; stroke:none;" d="M364 368L364 381L365 381L364 368z"/>
<path style="fill:#4e81d4; stroke:none;" d="M20 369L17 395L18 395C18.3573 386.699 24.5744 376.638 20 369z"/>
<path style="fill:#9ec8fa; stroke:none;" d="M16 392L16 395L17 395L16 392z"/>
<path style="fill:#3f7ed0; stroke:none;" d="M367 392L366 416L367 416L367 392z"/>
<path style="fill:#a5c1e5; stroke:none;" d="M368 396L368 406L369 406L368 396z"/>
<path style="fill:#4385dd; stroke:none;" d="M112 408L112 409L224 406L192 405L112 408z"/>
<path style="fill:#709edb; stroke:none;" d="M152 406L152 407L160 407L152 406z"/>
<path style="fill:#a5c1e5; stroke:none;" d="M160 406L160 407L170 407L160 406z"/>
<path style="fill:#c6edff; stroke:none;" d="M170 406L170 407L213 407C201.774 402.29 182.219 406 170 406z"/>
<path style="fill:#a5c1e5; stroke:none;" d="M213 406L213 407L224 407L213 406z"/>
<path style="fill:#3f7ed0; stroke:none;" d="M230 406L230 407L264 408C254.215 403.856 240.458 406 230 406z"/>
<path style="fill:#c6edff; stroke:none;" d="M134 407L134 408L143 408L134 407z"/>
<path style="fill:#85afeb; stroke:none;" d="M246 407L246 408L251 408L246 407z"/>
<path style="fill:#3f7ed0; stroke:none;" d="M265 408L265 409L271 409L265 408z"/>
<path style="fill:#4e81d4; stroke:none;" d="M17 409L22 426L23 426L17 409z"/>
<path style="fill:#5091e3; stroke:none;" d="M282 414C286.502 420.259 293.934 426.851 301 430C296.396 423.744 289.163 417.142 282 414z"/>
<path style="fill:#4478c0; stroke:none;" d="M364 419L363 423L364 423L364 419z"/>
<path style="fill:#9ec8fa; stroke:none;" d="M324 431L324 430C320.145 427.989 319.763 425.945 323 423C316.693 421.674 317.406 430.241 324 431z"/>
<path style="fill:#85afeb; stroke:none;" d="M324 422C324 425.02 320.704 423.873 320.167 427C318.822 434.823 336.394 425.895 324 422z"/>
<path style="fill:#5d85c6; stroke:none;" d="M322 425L322 427L324 427L324 425L322 425z"/>
<path style="fill:#c4c2c2; stroke:none;" d="M248 430C247.996 435.231 247.966 439.22 244 443L244 444C249.772 442.177 250.104 435.013 248 430z"/>
<path style="fill:#a6d1ff; stroke:none;" d="M310 430L311 438L312 438L312 435L318 435L318 433L310 430z"/>
<path style="fill:#588dd0; stroke:none;" d="M75 435L75 436L81 432L75 435z"/>
<path style="fill:#c4c2c2; stroke:none;" d="M304 433L304 434L306 435L300 445C305.272 443.4 305.983 437.95 307 433L304 433z"/>
<path style="fill:#95c3ff; stroke:none;" d="M321 433L321 442L323 442L323 433L321 433z"/>
<path style="fill:#a6d1ff; stroke:none;" d="M330 444L330 435L332 435L336 444L335 435L338 435L338 442L340 442C339.797 424.803 320.21 437.653 330 444z"/>
<path style="fill:#9ec8fa; stroke:none;" d="M344 440L345 440L349 435L347 439L351 440L350 436L353 435C347.942 431.57 344.425 434.427 344 440z"/>
<path style="fill:#c4c2c2; stroke:none;" d="M244 434L240 439L244 434z"/>
<path style="fill:#b5b6b5; stroke:none;" d="M252 445L257 434C252.274 435.9 252.839 440.483 252 445z"/>
<path style="fill:#3e6594; stroke:none;" d="M308 434L307 436L309 436L308 434z"/>
<path style="fill:#557db3; stroke:none;" d="M324 434L323 442L327 443L327 442L324 434z"/>
<path style="fill:#c4c2c2; stroke:none;" d="M260 439L264 435L260 439M272 440L273 440L276 435L272 440z"/>
<path style="fill:#b5b6b5; stroke:none;" d="M286 435L285 444L286 444L288 435L286 435M291 435L291 444L292 444L293 435L291 435z"/>
<path style="fill:#d5d6d5; stroke:none;" d="M296 435L296 445L298 445L296 435z"/>
<path style="fill:#4478c0; stroke:none;" d="M330 435L329 443L333 443L333 442L330 442L332 435L330 435M335 435L335 443L338 442L337 435L335 435z"/>
<path style="fill:#5fa3ff; stroke:none;" d="M337 435L336 441L338 441L337 435z"/>
<path style="fill:#3e6594; stroke:none;" d="M347 435L346 439L347 439L349 435L347 435z"/>
<path style="fill:#85afe8; stroke:none;" d="M350 439L354 435L350 439z"/>
<path style="fill:#588dd0; stroke:none;" d="M65 440L65 441L75 437L65 440z"/>
<path style="fill:#b5b6b5; stroke:none;" d="M263 440L268 436L263 440z"/>
<path style="fill:#5fa3ff; stroke:none;" d="M332 436L330 442L333 442L332 436z"/>
<path style="fill:#87a4d7; stroke:none;" d="M345 437L347 440L345 437z"/>
<path style="fill:#c4c2c2; stroke:none;" d="M280 438L279 445L280 445L280 438z"/>
<path style="fill:#a6d1ff; stroke:none;" d="M316 438L320 442L320 441L316 438z"/>
<path style="fill:#d5d6d5; stroke:none;" d="M364 443L367 440L367 444L368 444L368 439C364.966 439.496 363.929 439.874 364 443z"/>
<path style="fill:#c4c2c2; stroke:none;" d="M370 439L370 445L371 445L372 439L370 439z"/>
<path style="fill:#b5b6b5; stroke:none;" d="M373 439L373 445L374 445L375 439L373 439z"/>
<path style="fill:#5082c5; stroke:none;" d="M40 440L40 441L64 442L40 440z"/>
<path style="fill:#4478c0; stroke:none;" d="M340 442L344 441L340 442z"/>
<path style="fill:#c4c2c2; stroke:none;" d="M376 440L376 445L377 445L376 440z"/>
<path style="fill:#d5d6d5; stroke:none;" d="M268 442L261 443L261 444C263.322 444.755 269.586 446.208 268 442z"/>
<path style="fill:#c4c2c2; stroke:none;" d="M317 442L315 443L315 444L317 442z"/>
<path style="fill:#d5d6d5; stroke:none;" d="M273 443L273 444L277 445L273 443M348 444L348 445L352 443L348 444z"/>
<path style="fill:#b5b6b5; stroke:none;" d="M359.667 444.333L360.333 444.667L359.667 444.333M364 444L364 445L367 445L364 444z"/>
</svg>
