<?xml version="1.0" standalone="no"?>
<!DOCTYPE svg PUBLIC "-//W3C//DTD SVG 20010904//EN"
 "http://www.w3.org/TR/2001/REC-SVG-20010904/DTD/svg10.dtd">
<svg version="1.0" xmlns="http://www.w3.org/2000/svg"
 width="1280.000000pt" height="944.000000pt" viewBox="0 0 1280.000000 944.000000"
 preserveAspectRatio="xMidYMid meet">
<metadata>
Created by potrace 1.15, written by Peter Selinger 2001-2017
</metadata>
<g transform="translate(0.000000,944.000000) scale(0.100000,-0.100000)"
fill="#000000" stroke="none">
<path d="M4442 9333 c-52 -127 -76 -199 -111 -336 -59 -228 -66 -291 -66 -567
1 -227 3 -266 23 -359 42 -192 98 -344 173 -472 21 -37 39 -70 39 -72 0 -3
-36 10 -81 29 -218 92 -456 235 -629 380 -243 202 -436 429 -815 962 l-130
183 -8 -68 c-29 -267 -70 -806 -74 -993 -8 -309 17 -532 79 -723 29 -91 99
-235 149 -308 l44 -64 -1 -135 c-6 -550 -283 -984 -834 -1310 -66 -39 -172
-96 -235 -126 -63 -30 -115 -57 -115 -60 0 -10 41 -42 134 -105 210 -142 405
-211 645 -227 l106 -7 -160 -62 c-693 -267 -1174 -394 -1600 -423 -295 -20
-624 23 -846 110 -28 11 -48 16 -44 11 6 -11 383 -320 499 -410 190 -148 446
-289 636 -351 220 -72 472 -101 708 -82 168 14 343 42 486 78 54 14 100 23
103 21 6 -7 -98 -64 -196 -106 -210 -93 -438 -143 -735 -163 -308 -20 -645 8
-1281 106 -159 25 -290 44 -292 43 -1 -2 44 -37 100 -79 606 -449 1368 -791
2001 -898 176 -30 169 -29 327 -40 134 -9 337 -2 447 15 l37 6 -50 -27 c-67
-36 -172 -72 -275 -94 -268 -59 -571 -51 -1048 25 -84 14 -160 25 -169 25 -8
0 18 -22 58 -48 370 -240 768 -390 1194 -448 204 -28 610 -14 755 26 44 12 63
12 31 -1 -42 -17 -311 -86 -437 -113 -388 -82 -772 -106 -1034 -65 -39 6 -73
9 -75 7 -4 -4 87 -79 180 -147 301 -223 691 -370 1145 -432 124 -16 225 -22
510 -26 l355 -5 265 -54 c917 -187 1389 -283 1715 -350 360 -74 380 -79 765
-206 1506 -494 2646 -799 2979 -798 42 0 80 7 106 19 60 27 334 310 701 721
131 147 645 739 702 808 l35 42 -7 113 c-23 364 -115 669 -407 1358 -107 250
-113 268 -113 334 -1 63 3 80 38 150 85 172 297 335 794 609 l123 68 25 -23
c45 -42 73 -121 91 -249 9 -66 19 -120 23 -120 8 0 81 127 115 201 39 86 65
203 65 291 0 43 3 78 6 78 17 0 136 -94 163 -129 39 -49 70 -118 71 -153 0
-48 18 -31 59 55 68 140 86 268 57 405 -7 34 -11 64 -8 67 8 7 75 -25 100 -48
29 -27 52 -69 52 -97 0 -35 19 -22 46 33 51 99 65 214 46 362 -6 42 -1 67 31
162 138 406 125 703 -37 851 -116 107 -228 114 -421 26 -6 -2 -26 64 -48 153
-60 247 -152 459 -257 592 -45 57 -143 138 -148 123 -1 -5 16 -106 38 -223 51
-265 62 -450 36 -594 -20 -104 -30 -117 -161 -220 -234 -183 -401 -252 -1005
-420 -324 -90 -546 -180 -701 -285 -32 -22 -60 -40 -62 -40 -3 0 -10 14 -17
31 -9 21 -11 60 -7 132 17 265 150 640 314 884 113 168 270 311 428 391 86 43
317 136 478 193 l138 49 29 -46 c50 -80 61 -183 39 -382 -6 -54 -9 -116 -7
-138 3 -37 7 -32 94 142 114 228 145 319 151 444 5 92 -3 135 -41 221 -6 13 9
23 76 49 252 101 462 246 547 379 136 214 76 474 -178 768 -52 61 -68 86 -65
104 2 13 18 112 36 219 27 164 32 222 32 365 0 186 -16 273 -73 413 -34 81
-30 80 -180 17 -187 -79 -350 -187 -545 -360 l-115 -101 -123 -23 c-818 -150
-1574 -430 -2180 -807 l-118 -73 -73 30 c-268 111 -754 247 -1052 295 -159 25
-428 30 -565 9 -133 -19 -521 -98 -759 -154 l-163 -38 -107 17 c-352 58 -586
168 -799 374 -156 151 -229 259 -412 606 -116 221 -219 400 -231 400 -4 0 -25
-44 -47 -97z"/>
</g>
</svg>
