<?xml version="1.0" standalone="no"?>
<!DOCTYPE svg PUBLIC "-//W3C//DTD SVG 20010904//EN"
 "http://www.w3.org/TR/2001/REC-SVG-20010904/DTD/svg10.dtd">
<svg version="1.0" xmlns="http://www.w3.org/2000/svg"
 width="1253.000000pt" height="1280.000000pt" viewBox="0 0 1253.000000 1280.000000"
 preserveAspectRatio="xMidYMid meet">
<metadata>
Created by potrace 1.15, written by Peter Selinger 2001-2017
</metadata>
<g transform="translate(0.000000,1280.000000) scale(0.100000,-0.100000)"
fill="#000000" stroke="none">
<path d="M7855 12794 c-127 -21 -304 -86 -396 -144 -27 -18 -73 -59 -103 -91
l-53 -59 -159 -3 c-101 -2 -188 -10 -239 -21 -455 -99 -843 -378 -1000 -719
-125 -272 -140 -655 -40 -977 15 -47 69 -188 120 -315 116 -288 138 -357 175
-561 39 -208 71 -318 121 -415 105 -201 303 -329 508 -329 142 0 245 48 385
180 134 126 208 261 245 445 42 213 37 362 -24 765 -42 279 -55 381 -55 442 0
30 -4 48 -12 48 -18 0 -2 -265 33 -540 40 -311 43 -473 11 -576 -68 -219 -248
-338 -507 -336 -83 0 -116 6 -195 31 -262 84 -372 221 -431 535 -73 397 -74
399 -210 688 -146 313 -181 458 -145 613 35 150 146 319 302 463 184 170 390
286 669 376 104 34 380 106 404 106 6 0 11 -13 11 -30 0 -80 114 -66 283 37
110 67 329 138 567 185 82 16 505 15 644 -1 444 -51 789 -247 1128 -638 51
-59 58 -28 9 38 -297 394 -680 644 -1125 734 -219 44 -425 66 -666 70 -124 2
-238 1 -255 -1z"/>
<path d="M9357 12033 c-21 -20 -3 -53 56 -103 189 -161 366 -229 617 -237 128
-4 169 -1 343 26 381 60 536 62 715 9 l72 -21 0 -122 c0 -79 5 -139 15 -172
14 -48 14 -53 -10 -117 -13 -36 -38 -133 -55 -215 -71 -346 -151 -480 -415
-694 -312 -252 -713 -452 -1056 -526 -194 -42 -331 -53 -719 -60 l-375 -6 -3
-41 c-3 -40 -2 -41 45 -62 565 -240 1361 -78 2011 410 145 109 314 277 383
381 74 113 109 212 149 417 41 216 68 274 188 401 115 121 134 159 140 269 10
199 -66 320 -173 276 -20 -9 -49 -25 -65 -36 -27 -19 -32 -20 -57 -7 -63 33
-200 67 -308 79 -130 13 -284 3 -485 -33 -238 -42 -441 -35 -630 23 -78 24
-255 100 -326 139 -28 16 -54 26 -57 22z m1840 -400 c-3 -10 -5 -2 -5 17 0 19
2 27 5 18 2 -10 2 -26 0 -35z m88 -142 c3 -5 1 -12 -5 -16 -5 -3 -10 1 -10 9
0 18 6 21 15 7z"/>
<path d="M8724 11809 c-99 -16 -204 -79 -204 -121 0 -18 3 -17 34 10 64 56
134 75 299 80 136 4 147 6 147 23 0 18 -8 19 -112 18 -62 -1 -136 -5 -164 -10z"/>
<path d="M9165 11643 c-133 -81 -231 -109 -419 -123 -90 -7 -143 -15 -148 -23
-17 -24 2 -72 42 -109 60 -54 123 -72 231 -66 76 5 98 11 173 47 105 51 191
129 201 184 8 40 -2 127 -13 127 -4 0 -34 -16 -67 -37z"/>
<path d="M10052 10880 c-32 -20 -70 -86 -56 -99 4 -3 9 1 12 9 7 19 53 65 71
71 7 3 12 12 10 22 -4 16 -7 15 -37 -3z"/>
<path d="M10370 10811 c-102 -43 -110 -48 -110 -67 0 -23 29 -16 122 28 64 30
88 46 88 60 0 23 2 23 -100 -21z"/>
<path d="M9723 10808 c-23 -25 -30 -48 -15 -48 16 0 44 38 40 55 -2 14 -6 13
-25 -7z"/>
<path d="M9843 10705 c-53 -23 -42 -49 15 -33 22 6 32 15 32 28 0 23 -4 24
-47 5z"/>
<path d="M10020 10571 c0 -12 6 -21 16 -21 9 0 14 7 12 17 -5 25 -28 28 -28 4z"/>
<path d="M5814 9508 c-134 -141 -180 -236 -299 -619 -131 -421 -258 -622 -635
-1000 -240 -240 -462 -434 -880 -769 -179 -143 -508 -467 -652 -640 -52 -63
-166 -207 -253 -320 -305 -394 -442 -549 -660 -748 -213 -194 -413 -392 -509
-502 -473 -544 -711 -1198 -800 -2195 -31 -350 -31 -504 0 -712 4 -24 3 -43
-2 -43 -24 0 -220 128 -361 236 -341 262 -478 398 -553 549 -126 255 -126 599
2 993 71 221 153 363 388 677 281 375 364 543 435 877 62 295 60 705 -5 973
-53 215 -222 442 -428 574 -42 27 -86 58 -97 68 -22 20 -76 25 -87 8 -21 -29
-5 -62 68 -140 200 -211 315 -395 394 -632 99 -298 92 -538 -24 -787 -52 -112
-134 -239 -312 -477 -221 -298 -292 -417 -369 -623 -115 -310 -186 -791 -171
-1166 8 -216 39 -351 104 -454 34 -55 300 -318 462 -457 232 -199 377 -290
521 -325 l66 -16 17 -62 c24 -85 93 -228 156 -322 100 -148 284 -305 464 -396
52 -26 227 -98 240 -98 8 0 17 71 11 89 -3 10 -51 56 -108 103 -312 260 -509
478 -621 689 -66 124 -93 203 -117 346 -18 105 -20 151 -16 258 8 173 62 630
92 780 78 387 235 745 478 1089 153 216 316 393 567 616 260 230 420 407 775
860 441 562 556 680 1095 1128 366 304 503 426 651 579 215 222 361 424 490
678 92 184 142 320 214 597 100 380 162 532 281 691 61 81 74 107 56 107 -5 0
-36 -28 -68 -62z"/>
<path d="M11050 9269 c-52 -21 -165 -65 -251 -99 -221 -86 -309 -141 -446
-276 -158 -157 -197 -168 -384 -114 -266 77 -474 79 -784 5 -176 -42 -265 -81
-458 -203 -67 -42 -160 -92 -207 -111 -79 -33 -92 -35 -190 -35 -144 1 -215
25 -535 184 -268 134 -315 153 -315 129 0 -8 -13 -33 -29 -57 -70 -102 -62
-328 19 -573 16 -47 94 -230 173 -405 209 -461 208 -457 204 -461 -2 -2 -47 8
-100 22 -107 28 -214 69 -464 179 -95 42 -178 76 -184 76 -6 0 -9 -9 -7 -21 2
-16 44 -38 190 -104 265 -119 391 -163 568 -199 21 -5 36 -29 95 -153 77 -164
415 -820 476 -925 21 -36 39 -69 39 -71 0 -3 -24 -11 -52 -17 -255 -61 -513
-211 -747 -435 -259 -249 -439 -494 -841 -1145 -117 -190 -277 -442 -355 -560
-262 -396 -377 -620 -496 -968 -168 -492 -209 -903 -143 -1434 77 -630 167
-1011 297 -1262 55 -107 152 -207 219 -225 78 -22 176 6 256 73 23 21 41 26
81 26 150 0 331 33 608 111 216 60 414 101 633 131 139 18 213 22 470 22 366
1 412 -5 913 -120 244 -56 588 -118 847 -153 471 -64 848 -52 1170 35 211 57
439 170 592 292 424 337 673 952 607 1497 -43 352 -191 586 -455 719 -155 77
-360 113 -549 96 -116 -11 -125 -18 -125 -96 0 -29 5 -56 13 -61 6 -5 39 -16
72 -23 96 -20 281 -87 401 -144 307 -147 490 -334 549 -561 51 -199 -33 -497
-218 -769 -75 -111 -270 -309 -384 -389 -233 -165 -472 -258 -808 -314 -89
-15 -166 -18 -410 -18 -319 0 -378 5 -770 65 -544 83 -788 104 -1230 104 -529
1 -723 -24 -1528 -195 -306 -65 -330 -69 -341 -53 -10 13 -22 16 -55 11 -74
-10 -169 11 -269 59 -168 81 -285 224 -356 434 -53 159 -112 462 -157 805 -68
522 10 966 262 1480 82 169 158 302 392 687 98 161 247 408 330 548 528 885
837 1210 1449 1521 161 81 161 81 170 144 2 14 15 1 45 -48 72 -114 91 -105
100 45 8 149 -11 209 -122 373 -46 69 -110 174 -141 233 -194 366 -536 1003
-650 1209 -74 132 -149 274 -168 315 -75 167 -126 332 -126 411 0 49 17 97 29
80 11 -16 564 -280 646 -308 57 -20 107 -29 176 -33 150 -7 217 14 426 134
435 250 864 317 1230 193 225 -76 288 -60 415 105 81 104 186 172 465 297 221
100 285 124 305 117 22 -9 56 -119 127 -408 88 -362 86 -348 86 -535 0 -186
-13 -265 -66 -423 -30 -90 -35 -122 -20 -122 13 0 69 142 94 238 19 77 22 112
22 302 0 252 -7 294 -115 740 -37 157 -74 314 -82 349 -7 35 -17 65 -23 66 -5
1 -53 -15 -105 -36z"/>
<path d="M7750 8061 c0 -20 5 -31 14 -31 9 0 12 8 8 25 -7 37 -22 41 -22 6z"/>
<path d="M6868 7073 c-16 -2 -28 -11 -28 -19 0 -12 56 -14 373 -14 364 0 534
-9 670 -34 62 -12 67 -12 67 4 0 20 -9 23 -146 46 -78 13 -185 17 -504 19
-223 2 -417 1 -432 -2z"/>
<path d="M7789 6819 c-20 -5 -122 -18 -225 -29 -191 -21 -353 -45 -362 -54 -9
-10 7 -36 20 -31 19 6 201 32 358 50 196 22 260 35 260 50 0 20 -11 23 -51 14z"/>
<path d="M3765 4624 c-180 -29 -405 -135 -606 -286 -75 -57 -207 -163 -293
-236 -132 -113 -156 -137 -156 -161 0 -15 3 -30 6 -33 3 -4 36 11 72 32 151
85 353 189 452 232 357 157 661 179 946 69 331 -128 621 -443 716 -777 17 -62
22 -104 22 -194 0 -103 -4 -125 -33 -210 -40 -118 -108 -240 -247 -440 -58
-85 -158 -233 -220 -328 -199 -302 -285 -405 -459 -545 -129 -105 -223 -194
-243 -232 -9 -17 -16 -57 -16 -93 -1 -52 3 -66 18 -78 33 -24 112 -17 175 15
l57 29 194 -34 c407 -72 617 -140 788 -256 116 -78 259 -251 296 -356 14 -38
13 -43 -5 -66 -44 -56 -159 -104 -314 -132 -95 -17 -411 -19 -590 -4 -66 6
-255 27 -420 46 -449 54 -557 43 -910 -91 -82 -31 -205 -77 -272 -102 -118
-44 -123 -47 -123 -74 0 -19 5 -29 14 -29 14 0 174 27 541 91 280 49 393 49
795 0 462 -56 577 -64 838 -59 254 5 314 17 408 81 124 83 166 279 104 482
-92 296 -309 511 -610 603 -158 48 -209 56 -392 56 l-176 1 16 21 c9 12 51 67
93 121 83 108 470 684 539 803 102 176 177 366 217 550 24 115 24 396 -1 523
-72 368 -283 697 -572 890 -177 119 -318 167 -499 172 -66 2 -133 1 -150 -1z"/>
<path d="M10679 4438 c-174 -170 -218 -225 -279 -346 -152 -306 -195 -690
-172 -1540 16 -562 27 -687 79 -872 24 -85 71 -182 85 -178 36 12 76 230 64
343 -4 33 -20 125 -36 205 -63 313 -85 596 -77 994 6 305 12 358 58 544 62
253 168 485 360 792 71 114 80 133 77 170 l-3 41 -156 -153z"/>
</g>
</svg>
